<?xml version="1.0" encoding="UTF-8" standalone="no"?><svg xmlns="http://www.w3.org/2000/svg" id="Layer_1" viewBox="0 0 357.28 194.87"><style>text[font-family="'DejaVuSans'"] {font-family: 'DejaVu Sans', Ariel, Helvetica, sans-serif; font-style: normal; font-weight: normal;}
</style><defs><style>.cls-1{fill:#e6e7e7;isolation:isolate;opacity:.3;}.cls-2{fill:#a7a9ac;}.cls-3{fill:#019547;}.cls-4,.cls-5,.cls-6,.cls-7,.cls-8,.cls-9,.cls-10,.cls-11{fill:none;}.cls-4,.cls-12,.cls-13{stroke-width:2px;}.cls-4,.cls-13{stroke:#764d2a;}.cls-5,.cls-12{stroke:#2075bc;}.cls-5,.cls-7{stroke-width:1.5px;}.cls-14,.cls-13{fill:#764d2a;}.cls-12{fill:#f2f2f2;}.cls-15{fill:#6d6e71;}.cls-6{stroke-dasharray:0 0 12.41 1.55;}.cls-6,.cls-8{stroke:#bdbec0;}.cls-16{fill:#bdbec0;}.cls-7{stroke:#595a5c;}.cls-17{fill:#808285;}.cls-18{fill:#98cef0;}.cls-19{fill:#2075bc;}.cls-10{stroke:#f89521;}.cls-20{fill:#595a5c;}.cls-21{opacity:.25;}.cls-22{fill:#231f20;}.cls-23{fill:#010101;}.cls-11{stroke:#939598;}.cls-24{opacity:.23;}</style></defs><g id="g91467"><g id="g91465"><line class="cls-8" id="line91459" x1="125.35" x2="125.35" y1="43.33" y2="49.33"/><line class="cls-6" id="line91461" x1="125.35" x2="125.35" y1="50.93" y2="92.03"/><line class="cls-8" id="line91463" x1="125.35" x2="125.35" y1="92.73" y2="98.73"/></g></g><ellipse class="cls-1" cx="273.65" cy="87.23" id="ellipse91469" rx="39.5" ry="74"/><g class="cls-21" id="g91553"><path class="cls-3" d="M293.35,69.93c0,9.7-10.1,17.6-22.5,17.6s-22.5-7.9-22.5-17.6,10.1-17.6,22.5-17.6,22.5,7.9,22.5,17.6Z" id="path91471"/><path class="cls-3" d="M290.85,59.53c0,10.2-9,18.4-20,18.4s-20-8.2-20-18.4,9-18.4,20-18.4c11,0,20,8.2,20,18.4Z" id="path91473"/><path class="cls-3" d="M297.25,53.83c0,8.1-8.2,14.7-18.4,14.7s-18.4-6.6-18.4-14.7,8.2-14.7,18.4-14.7c10.2,0,18.4,6.6,18.4,14.7Z" id="path91475"/><path class="cls-3" d="M304.65,59.53c0,8.7-6.2,15.7-13.9,15.7s-13.9-7-13.9-15.7,6.2-15.7,13.9-15.7,13.9,7,13.9,15.7Z" id="path91477"/><path class="cls-3" d="M307.85,69.93c0,7.9-10.6,14.3-23.7,14.3s-23.7-6.4-23.7-14.3,10.6-14.3,23.7-14.3,23.7,6.4,23.7,14.3Z" id="path91479"/><path class="cls-3" d="M280.65,78.73c0,8.1-6.3,14.6-14.1,14.6s-14.1-6.5-14.1-14.6,6.3-14.6,14.1-14.6,14.1,6.6,14.1,14.6Z" id="path91481"/><path class="cls-3" d="M306.65,75.13c0,7.9-6.4,14.3-14.4,14.3s-14.4-6.4-14.4-14.3,6.4-14.3,14.4-14.3c8,.1,14.4,6.5,14.4,14.3Z" id="path91483"/><g id="g91549"><path class="cls-4" d="M274.45,95.33c0,19.4-4.4,35.1-9.8,35.1" id="path91485"/><rect class="cls-13" height="35.1" id="rect91487" width="8.3" x="274.45" y="95.33"/><path class="cls-4" d="M281.75,94.73c0,19.4,4.4,35.1,9.8,35.1" id="path91489"/><rect class="cls-14" height="5.8" id="rect91491" width="16.5" x="270.05" y="124.63"/><rect class="cls-14" height="5.8" id="rect91493" width="13.8" x="271.75" y="119.83"/><rect class="cls-14" height="1.2" id="rect91495" width="21.4" x="267.85" y="128.63"/><rect class="cls-14" height="1.2" id="rect91497" width="20" x="268.15" y="127.43"/><rect class="cls-14" height="1.2" id="rect91499" width="15.6" x="269.15" y="126.53"/><rect class="cls-14" height="2.3" id="rect91501" width="1.6" x="285.55" y="125.73"/><rect class="cls-14" height="3.9" id="rect91503" width=".6" x="271.15" y="121.73"/><g id="g91511"><rect class="cls-14" height="2" id="rect91505" width="1" x="270.75" y="123.73"/><g id="g91509"><path class="cls-14" d="M271.75,124.23h-1l1.5,1.5v-1.9l-1.5,1.5h1l-1.5-1.5v1.9c0,.4,.2,.8,.4,1.1,.1,.1,.3,.2,.5,.3,.2,.1,.4,.1,.6,.1,.4,0,.8-.1,1.1-.4,.3-.3,.4-.7,.4-1.1v-1.9c0-.8-.7-1.5-1.5-1.5h-1c-.8,0-1.5,.7-1.5,1.5v1.9c0,.8,.7,1.5,1.5,1.5h1c.4,0,.8-.2,1.1-.4,.1-.1,.2-.3,.3-.5,.1-.2,.1-.4,.1-.6,0-.4-.1-.8-.4-1.1-.3-.3-.7-.4-1.1-.4Z" id="path91507"/></g></g><g id="g91517"><g id="g91515"><path class="cls-14" d="M271.95,113.53v.5c0,.2,.1-.3,0-.1,0,.3-.1,.6-.1,.8-.1,.6-.3,1.2-.4,1.8-.2,1.4-.4,2.8,.3,4.1,.3,.5,.9,.8,1.5,.7,.6-.1,1-.5,1.2-1.1,.1-.2-.2,.4-.1,.1,0-.1,.1-.1,.1-.2,.1-.1,.1-.3,.2-.4,.2-.4,.4-.8,.4-1.3,.1-.8-.7-1.5-1.5-1.5-.9,0-1.4,.7-1.5,1.5,0-.4,.1-.4,0-.2,0,.2,.2-.4,.1-.2-.1,.1-.1,.2-.2,.3-.2,.3-.3,.6-.4,.9,.9-.1,1.8-.2,2.7-.4,0,0-.1-.3,0,0s0,.1,0,0-.1-.3-.1-.3c0,0,0,.4,0,.1v-1.2c0-.1,0-.3,0-.1,0,.3,0,0,0-.1v-.2c0-.1,.1-.3,.1-.4,.2-1.1,.6-2.3,.6-3.4,0-.8-.7-1.5-1.5-1.5-.8,.3-1.4,.9-1.4,1.8h0Z" id="path91513"/></g></g><g id="g91523"><g id="g91521"><path class="cls-14" d="M281.85,118.83l.1,.1c-.1-.1-.2-.2-.2-.3,.1,.2,.3,.4,.4,.6-.1-.1-.1-.2-.3-.4,.3,.7,.4,1.4,.6,2,.1,.4,.4,.7,.7,.9,.3,.2,.8,.3,1.2,.2s.7-.3,.9-.7c.2-.4,.3-.8,.2-1.2-.1-.5-.2-1-.3-1.4-.1-.3-.2-.7-.4-1-.2-.3-.4-.7-.6-.9-.2-.3-.7-.4-1.1-.4s-.8,.2-1.1,.4c-.3,.3-.5,.7-.4,1.1,0,.1,0,.3,.1,.4-.1,.2,.1,.4,.2,.6h0Z" id="path91519"/></g></g><g id="g91529"><g id="g91527"><path class="cls-14" d="M270.45,126.63c-.1,0-.2,.1-.4,.1,.1,0,.3,0,.4-.1-.2,.1-.5,.1-.8,.1-.2,0-.4,0-.6,.1s-.3,.2-.5,.3c-.1,.1-.2,.3-.3,.5-.1,.2-.1,.4-.1,.6,0,.1,0,.3,.1,.4,.1,.3,.2,.5,.4,.7,.1,.1,.2,.2,.3,.2,.2,.1,.5,.2,.8,.2h.6c.2,0,.5,0,.7-.1,.1,0,.2,0,.3-.1,.2,0,.4-.1,.5-.3,.2-.1,.3-.2,.4-.4s.2-.4,.2-.6v-.6c-.1-.1-.1-.2-.2-.4-.1-.2-.3-.4-.5-.5-.1-.1-.2-.1-.4-.2-.4,.1-.7,.1-.9,.1h0Z" id="path91525"/></g></g><g id="g91535"><g id="g91533"><path class="cls-14" d="M266.95,131.63c7.3,0,14.7,.1,22,.1,1.9,0,1.9-3,0-3-7.3,0-14.7-.1-22-.1-2,0-2,3,0,3h0Z" id="path91531"/></g></g><g id="g91541"><g id="g91539"><path class="cls-14" d="M284.85,127.73c.4,.7,.9,1.3,1.3,2,.1,.2,.2,.3,.4,.4,.1,.1,.3,.2,.5,.3s.4,.1,.6,0c.2,0,.4-.1,.6-.2,.3-.2,.6-.5,.7-.9,0-.1,0-.3,.1-.4,0-.3-.1-.5-.2-.8-.4-.7-.9-1.3-1.3-2-.1-.2-.2-.3-.4-.4-.1-.1-.3-.2-.5-.3-.2-.1-.4-.1-.6,0-.2,0-.4,.1-.6,.2-.3,.2-.6,.5-.7,.9,0,.1,0,.3-.1,.4,0,.3,.1,.5,.2,.8h0Z" id="path91537"/></g></g><g id="g91547"><g id="g91545"><path class="cls-14" d="M288.65,131.93h1.5c.2,0,.4,0,.6-.1s.3-.2,.5-.3c.1-.1,.2-.3,.3-.5,.1-.2,.1-.4,.1-.6,0-.1,0-.3-.1-.4-.1-.3-.2-.5-.4-.7-.3-.3-.7-.4-1.1-.4h-1.5c-.2,0-.4,0-.6,.1s-.3,.2-.5,.3c-.1,.1-.2,.3-.3,.5-.1,.2-.1,.4-.1,.6,0,.1,0,.3,.1,.4,.1,.3,.2,.5,.4,.7,.3,.3,.7,.4,1.1,.4h0Z" id="path91543"/></g></g></g><path class="cls-3" d="M297.65,82.83c0,7.9-7.6,14.3-17,14.3s-17-6.4-17-14.3,7.6-14.3,17-14.3,17,6.4,17,14.3Z" id="path91551"/></g><polygon class="cls-12" id="polygon91555" points="18.35 82.73 79.75 59.03 79.75 121.23 18.35 145.03 18.35 82.73"/><g class="cls-24" id="g91639"><path class="cls-3" d="M28.65,116.53c0-3.7,3.8-6.7,8.5-6.7s8.5,3,8.5,6.7-3.8,6.7-8.5,6.7c-4.7,0-8.5-3-8.5-6.7Z" id="path91557"/><path class="cls-3" d="M29.55,120.53c0-3.9,3.4-7,7.5-7s7.5,3.1,7.5,7-3.4,7-7.5,7-7.5-3.1-7.5-7Z" id="path91559"/><path class="cls-3" d="M27.15,122.73c0-3.1,3.1-5.6,6.9-5.6s6.9,2.5,6.9,5.6-3.1,5.6-6.9,5.6-6.9-2.5-6.9-5.6Z" id="path91561"/><path class="cls-3" d="M24.35,120.53c0-3.3,2.3-6,5.2-6s5.2,2.7,5.2,6-2.3,6-5.2,6-5.2-2.7-5.2-6Z" id="path91563"/><path class="cls-3" d="M23.15,116.53c0-3,4-5.4,8.9-5.4s8.9,2.4,8.9,5.4-4,5.4-8.9,5.4c-4.9,.1-8.9-2.4-8.9-5.4Z" id="path91565"/><path class="cls-3" d="M33.35,113.23c0-3.1,2.4-5.6,5.3-5.6s5.3,2.5,5.3,5.6-2.4,5.6-5.3,5.6c-2.9-.1-5.3-2.6-5.3-5.6Z" id="path91567"/><path class="cls-3" d="M23.65,114.53c0-3,2.4-5.4,5.4-5.4s5.4,2.4,5.4,5.4-2.4,5.4-5.4,5.4c-3,.1-5.4-2.4-5.4-5.4Z" id="path91569"/><g id="g91635"><path class="cls-4" d="M35.75,106.93c0-7.4,1.6-13.4,3.7-13.4" id="path91571"/><rect class="cls-13" height="13.4" id="rect91573" width="3.1" x="32.65" y="93.53"/><path class="cls-4" d="M32.95,107.13c0-7.4-1.6-13.4-3.7-13.4" id="path91575"/><rect class="cls-14" height="2.2" id="rect91577" width="6.2" x="31.15" y="93.53"/><rect class="cls-14" height="2.2" id="rect91579" width="5.2" x="31.55" y="95.33"/><rect class="cls-14" height=".5" id="rect91581" width="8" x="30.15" y="93.73"/><rect class="cls-14" height=".5" id="rect91583" width="7.5" x="30.55" y="94.23"/><rect class="cls-14" height=".5" id="rect91585" width="5.9" x="31.85" y="94.53"/><rect class="cls-14" height=".9" id="rect91587" width=".6" x="30.95" y="94.43"/><rect class="cls-14" height="1.5" id="rect91589" width=".2" x="36.75" y="95.33"/><g id="g91597"><rect class="cls-14" height=".7" id="rect91591" width=".4" x="36.75" y="95.33"/><g id="g91595"><path class="cls-14" d="M36.75,96.83h.4l-1.5-1.5v.8l1.5-1.5h-.4l1.5,1.5v-.8c0-.2,0-.4-.1-.6s-.2-.3-.3-.5c-.1-.1-.3-.2-.5-.3-.2-.1-.4-.1-.6-.1-.1,0-.3,0-.4,.1-.3,.1-.5,.2-.7,.4-.1,.1-.2,.2-.2,.3-.2,.2-.2,.4-.2,.7v.8c0,.2,0,.4,.1,.6s.2,.3,.3,.5c.1,.1,.2,.2,.3,.2,.2,.1,.5,.2,.8,.2h.4c.2,0,.4,0,.6-.1,.2-.1,.3-.2,.5-.3,.1-.1,.2-.2,.2-.3,.1-.2,.2-.5,.2-.8v-.8c0-.2,0-.4-.1-.6s-.2-.3-.3-.5c-.1-.1-.2-.2-.3-.2-.2-.1-.5-.2-.8-.2h-.4c-.2,0-.4,0-.6,.1-.2,.1-.3,.2-.5,.3-.1,.1-.2,.3-.3,.5s-.1,.4-.1,.6c0,.1,0,.3,.1,.4,.1,.3,.2,.5,.4,.7,.1,.1,.2,.2,.3,.2,.2,.1,.4,.2,.7,.2Z" id="path91593"/></g></g><g id="g91603"><g id="g91601"><path class="cls-14" d="M37.65,100.03v0c0-.3,.1-.7,.1-1.1,0-.3,.1-.6,.1-.9,0-.4-.1-.8-.3-1.2-.1-.1-.2-.2-.2-.3-.1-.1-.2-.2-.3-.2-.1-.1-.2-.1-.4-.2s-.4-.1-.6,0c-.1,0-.3,0-.4,.1-.1,0-.2,.1-.3,.2s-.2,.2-.3,.3c-.1,.1-.2,.3-.3,.5h0c.1-.1,.1-.2,.2-.4,0,.1-.1,.2-.1,.3-.2,.3-.2,.6-.3,.9,0,.2,0,.4,.1,.6s.2,.3,.3,.5c.3,.3,.7,.5,1.1,.4,.4,0,.8-.1,1.1-.4,.1-.1,.2-.2,.2-.3,.1-.2,.2-.5,.2-.8h0c0,.1,0,.3-.1,.4v-.1c-.1,.1-.1,.2-.2,.4,.1-.3,.2-.5,.3-.8-.9,.1-1.8,.2-2.7,.4h0c-.1-.1-.1-.2-.2-.4,0,.1,.1,.2,.1,.3,0-.1,0-.3-.1-.4v.6c0-.1,0-.3,.1-.4,0,.3-.1,.6-.2,.8-.1,.4-.1,.7-.1,1.1s.2,.8,.4,1.1c.3,.3,.7,.5,1.1,.4,.4,0,.8-.1,1.1-.4,.4-.3,.6-.6,.6-1h0Z" id="path91599"/></g></g><g id="g91609"><g id="g91607"><path class="cls-14" d="M33.55,97.33h0c0,.1,.1,.2,.2,.3,0-.1-.1-.2-.2-.3,.1,.1,.2,.3,.2,.4-.1-.2-.1-.5-.2-.7,0-.2-.1-.4-.3-.5-.1-.2-.2-.3-.4-.4s-.4-.2-.6-.2h-.6c-.1,.1-.2,.1-.4,.2s-.4,.3-.5,.5c-.1,.1-.1,.2-.2,.4-.1,.3-.1,.5,0,.8,0,.2,.1,.4,.1,.5v.1c.1,.2,.1,.3,.2,.5,0,0,0,.1,.1,.1v.1c.1,.1,.2,.2,.3,.4,.1,.1,.3,.2,.5,.3,.2,.1,.4,.1,.6,.1s.4,0,.6-.1c.2-.1,.3-.2,.5-.3,.1-.1,.2-.2,.2-.3,.1-.2,.2-.5,.2-.8,0-.1,0-.3-.1-.4,.1-.3,0-.5-.2-.7h0Z" id="path91605"/></g></g><g id="g91615"><g id="g91613"><path class="cls-14" d="M37.45,95.83h0s-.2,0-.3,.1c.2-.1,.3-.1,.3-.1,.3,0,.4,0,.6-.1,.2-.1,.3-.2,.5-.3,.1-.1,.2-.3,.3-.5s.1-.4,.1-.6c0-.1,0-.3-.1-.4-.1-.3-.2-.5-.4-.7-.1-.1-.2-.2-.3-.2-.2-.1-.5-.2-.8-.2h-.2c-.2,0-.3,0-.5,.1h-.1c-.2,0-.4,.1-.5,.3-.2,.1-.3,.2-.4,.4s-.2,.4-.2,.6v.6c.1,.1,.1,.2,.2,.4s.3,.4,.5,.5c.1,.1,.2,.1,.4,.2,.4,0,.7,0,.9-.1h0Z" id="path91611"/></g></g><g id="g91621"><g id="g91619"><path class="cls-14" d="M38.55,92.13h-8.3c-.8,0-1.5,.7-1.5,1.5s.7,1.5,1.5,1.5h8.3c.8,0,1.5-.7,1.5-1.5s-.7-1.5-1.5-1.5h0Z" id="path91617"/></g></g><g id="g91627"><g id="g91625"><path class="cls-14" d="M32.65,94.13c-.1-.3-.4-.5-.5-.8-.1-.2-.2-.3-.4-.4-.1-.1-.3-.2-.5-.3-.2-.1-.4-.1-.6,0-.2,0-.4,.1-.6,.2-.1,.1-.2,.2-.3,.2-.2,.2-.3,.4-.4,.7,0,.1,0,.3-.1,.4,0,.3,.1,.5,.2,.8,.1,.3,.4,.5,.5,.8,.1,.2,.2,.3,.4,.4,.1,.1,.3,.2,.5,.3,.2,.1,.4,.1,.6,0,.2,0,.4-.1,.6-.2,.1-.1,.2-.2,.3-.2,.2-.2,.3-.4,.4-.7,0-.1,0-.3,.1-.4,0-.3-.1-.6-.2-.8h0Z" id="path91623"/></g></g><g id="g91633"><g id="g91631"><path class="cls-14" d="M30.35,92.03h-.6c-.2,0-.4,0-.6,.1-.2,.1-.3,.2-.5,.3-.1,.1-.2,.3-.3,.5s-.1,.4-.1,.6c0,.1,0,.3,.1,.4,.1,.3,.2,.5,.4,.7,.1,.1,.2,.2,.3,.2,.2,.1,.5,.2,.8,.2h.6c.2,0,.4,0,.6-.1,.2-.1,.3-.2,.5-.3,.1-.1,.2-.3,.3-.5s.1-.4,.1-.6c0-.1,0-.3-.1-.4-.1-.3-.2-.5-.4-.7-.1-.1-.2-.2-.3-.2-.2-.1-.5-.2-.8-.2h0Z" id="path91629"/></g></g></g><path class="cls-3" d="M26.95,111.63c0-3,2.9-5.4,6.4-5.4s6.4,2.4,6.4,5.4-2.9,5.4-6.4,5.4c-3.5,.1-6.4-2.4-6.4-5.4Z" id="path91637"/></g><g id="g91655"><g id="g91653"><line class="cls-7" id="line91647" x1="308.35" x2="308.35" y1="92.33" y2="124.93"/><g id="g91651"><polygon class="cls-20" id="polygon91649" points="304.45 121.93 308.35 123.63 312.25 121.93 308.35 131.23 304.45 121.93"/></g></g></g><g id="g91665"><g id="g91663"><line class="cls-7" id="line91657" x1="307.85" x2="341.55" y1="93.13" y2="72.13"/><g id="g91661"><polygon class="cls-20" id="polygon91659" points="341.15 76.93 340.45 72.73 337.05 70.33 346.95 68.73 341.15 76.93"/></g></g></g><g id="g91675"><g id="g91673"><line class="cls-7" id="line91667" x1="308.15" x2="347.25" y1="93.03" y2="103.43"/><g id="g91671"><polygon class="cls-20" id="polygon91669" points="343.35 106.43 345.95 103.13 345.35 98.93 353.25 105.03 343.35 106.43"/></g></g></g><g id="g91689"><g id="g91687"><line class="cls-7" id="line91681" x1="13.25" x2="13.25" y1="78.13" y2="98.03"/><g id="g91685"><polygon class="cls-20" id="polygon91683" points="11.05 96.43 13.25 97.33 15.45 96.43 13.25 101.63 11.05 96.43"/></g></g></g><g id="g91699"><g id="g91697"><line class="cls-7" id="line91691" x1="12.55" x2="38.75" y1="78.53" y2="68.53"/><g id="g91695"><polygon class="cls-20" id="polygon91693" points="37.95 71.23 38.05 68.83 36.35 67.03 42.15 67.23 37.95 71.23"/></g></g></g><path class="cls-23" d="M39.75,122.63c0,1.2-1,2.2-2.2,2.2s-2.2-1-2.2-2.2,1-2.2,2.2-2.2c1.2,.1,2.2,1,2.2,2.2Z" id="path91711"/><path class="cls-11" d="M246.95,95.03c0,1.2-1,2.2-2.2,2.2s-2.2-1-2.2-2.2,1-2.2,2.2-2.2c1.3,0,2.2,1,2.2,2.2Z" id="path91713"/><g id="g91725"><g id="g91723"><line class="cls-7" id="line91717" x1="125.35" x2="125.35" y1="95.43" y2="147.63"/><g id="g91721"><polygon class="cls-20" id="polygon91719" points="121.45 144.63 125.35 146.33 129.25 144.63 125.35 153.83 121.45 144.63"/></g></g></g><g id="g91737"><line class="cls-9" id="line91727" x1="124.45" x2="173.15" y1="96.33" y2="66.03"/><g id="g91735"><line class="cls-7" id="line91729" x1="124.45" x2="167.85" y1="96.33" y2="69.33"/><g id="g91733"><polygon class="cls-20" id="polygon91731" points="167.35 74.13 166.75 70.03 163.25 67.53 173.15 66.03 167.35 74.13"/></g></g></g><g id="g91749"><line class="cls-9" id="line91739" x1="124.85" x2="177.85" y1="96.33" y2="110.93"/><g id="g91747"><line class="cls-7" id="line91741" x1="124.85" x2="171.85" y1="96.33" y2="109.23"/><g id="g91745"><polygon class="cls-20" id="polygon91743" points="167.95 112.23 170.55 108.93 170.05 104.73 177.85 110.93 167.95 112.23"/></g></g></g><g id="g91773"><g id="g91771"><line class="cls-8" id="line91761" x1="50.15" x2="122.85" y1="55.03" y2="55.03"/><g id="g91765"><polygon class="cls-16" id="polygon91763" points="51.25 56.53 50.65 55.03 51.25 53.53 47.75 55.03 51.25 56.53"/></g><g id="g91769"><polygon class="cls-16" id="polygon91767" points="121.65 56.53 122.35 55.03 121.65 53.53 125.15 55.03 121.65 56.53"/></g></g></g><g id="g91783"><g id="g91781"><line class="cls-8" id="line91775" x1="47.85" x2="47.85" y1="43.33" y2="49.33"/><line class="cls-6" id="line91777" x1="47.85" x2="47.85" y1="50.93" y2="92.03"/><line class="cls-8" id="line91779" x1="47.85" x2="47.85" y1="92.73" y2="98.73"/></g></g><g id="g91793"><g id="g91791"><line class="cls-5" id="line91785" x1="47.85" x2="47.85" y1="95.53" y2="122.13"/><g id="g91789"><polygon class="cls-19" id="polygon91787" points="45.55 120.43 47.85 121.33 50.05 120.43 47.85 125.73 45.55 120.43"/></g></g></g><g id="g91803"><g id="g91801"><line class="cls-5" id="line91795" x1="47.45" x2="67.95" y1="96.03" y2="88.13"/><g id="g91799"><polygon class="cls-19" id="polygon91797" points="67.25 90.83 67.35 88.33 65.65 86.63 71.35 86.83 67.25 90.83"/></g></g></g><line class="cls-8" id="line91805" x1="48.15" x2="243.25" y1="95.53" y2="95.53"/><line class="cls-10" id="line91807" x1="265.85" x2="39.75" y1="51.33" y2="122.63"/><path class="cls-11" d="M48.55,95.03c0,1.2-1,2.2-2.2,2.2s-2.2-1-2.2-2.2,1-2.2,2.2-2.2,2.2,1,2.2,2.2Z" id="path91809"/><g id="g91827"><path class="cls-18" d="M357.25,149.83l-1,12.4h0c.1-2.1-1-4.3-3.1-6.4,2.5-1.8,3.9-3.8,4.1-6Z" id="path91813"/><path class="cls-18" d="M356.25,162.23v.2c-1.1,12.9-46.5,19.7-101.5,15.1-39.2-3.3-72.7-11.5-88.2-20.6l7.2-9.4c17.3,7.8,47.4,14.5,82.1,17.4,45.7,3.8,84.8-.2,97.3-9.2,2.1,2.2,3.2,4.4,3.1,6.5Z" id="path91815"/><path class="cls-19" d="M357.25,149.83c-.2,2.2-1.6,4.2-4.1,6-5.2-5.2-16.7-10.4-32.3-14.7l8-10.5c18,5.7,29,12.6,28.4,19.2Z" id="path91817"/><path class="cls-18" d="M177.65,142.33l-4,5.2c-5.5-2.5-9.7-5.1-12.4-7.7,1-.7,2.1-1.4,3.4-2l13,4.5Z" id="path91819"/><path class="cls-18" d="M173.75,147.53l-7.2,9.4c-6.2-3.7-9.6-7.5-9.3-11.2,.2-2.2,1.6-4.2,4.1-6,2.6,2.7,6.8,5.3,12.4,7.8Z" id="path91821"/><path class="cls-18" d="M166.55,156.93l-4.8,6.2-15.4-31.8,12.2,4.3c.5,1.4,1.4,2.8,2.8,4.1-2.5,1.8-4,3.8-4.1,6-.4,3.7,3,7.5,9.3,11.2Z" id="path91823"/><path class="cls-18" d="M158.55,135.63l6.2,2.2c-1.3,.6-2.4,1.3-3.4,2-1.4-1.4-2.3-2.8-2.8-4.2Z" id="path91825"/></g><g id="g91866"><path class="cls-18" d="M138.45,167.23l-1.1,5.9h0c.2-1-.3-2.1-1.2-3.3,1.3-.7,2.1-1.6,2.3-2.6Z" id="path91852"/><path class="cls-18" d="M137.35,173.13s0,.1,0,0c-1.2,6.3-23.5,7.3-49.8,2.3-18.8-3.5-34.5-9.2-41.6-14.4l4-4.2c8,4.7,22.2,9.4,38.8,12.5,21.9,4.1,41,4.1,47.5,.4,.8,1.3,1.2,2.4,1.1,3.4Z" id="path91854"/><path class="cls-19" d="M138.45,167.23c-.2,1-1,1.9-2.3,2.7-2.3-2.8-7.6-5.8-14.9-8.7l4.4-4.7c8.4,3.7,13.4,7.5,12.8,10.7Z" id="path91856"/><path class="cls-18" d="M52.05,154.63l-2.2,2.3c-2.5-1.5-4.4-2.9-5.6-4.4,.5-.3,1.1-.5,1.7-.8l6.1,2.9Z" id="path91858"/><path class="cls-18" d="M49.85,156.93l-4,4.2c-2.8-2.1-4.3-4.1-3.9-5.9,.2-1,1-1.9,2.3-2.7,1.2,1.4,3.1,2.9,5.6,4.4Z" id="path91860"/><path class="cls-18" d="M45.95,161.13l-2.6,2.8-5.8-16.1,5.7,2.7c.2,.7,.5,1.4,1.1,2.1-1.3,.7-2.1,1.6-2.3,2.7-.4,1.7,1,3.7,3.9,5.8Z" id="path91862"/><path class="cls-18" d="M43.15,150.43l2.9,1.4c-.6,.2-1.2,.5-1.7,.8-.7-.8-1-1.5-1.2-2.2Z" id="path91864"/></g><g><path class="cls-22" d="M267.73,55.38h2.67c.98,0,1.72,.22,2.22,.67s.75,1.09,.75,1.95-.25,1.52-.75,1.96-1.24,.66-2.22,.66h-1.49v3.52h-1.18v-8.75Zm1.18,.97v3.29h1.49c.55,0,.98-.14,1.28-.43s.45-.69,.45-1.22-.15-.93-.45-1.21-.73-.43-1.28-.43h-1.49Z"/><path class="cls-22" d="M277.04,57.41c.94,0,1.67,.3,2.21,.91s.8,1.45,.8,2.53-.27,1.92-.8,2.53-1.27,.92-2.21,.92-1.68-.31-2.21-.92-.8-1.45-.8-2.53,.27-1.92,.8-2.53,1.27-.91,2.21-.91Zm0,.91c-.58,0-1.04,.23-1.37,.68s-.5,1.07-.5,1.85,.17,1.4,.5,1.85,.79,.68,1.37,.68,1.03-.23,1.37-.68,.5-1.07,.5-1.85-.17-1.39-.5-1.85-.79-.68-1.37-.68Z"/><path class="cls-22" d="M281.83,55.01h1.08v1.37h-1.08v-1.37Zm0,2.55h1.08v6.56h-1.08v-6.56Z"/><path class="cls-22" d="M290.62,60.17v3.96h-1.08v-3.93c0-.62-.12-1.09-.36-1.39s-.61-.46-1.09-.46c-.58,0-1.04,.19-1.38,.56s-.5,.88-.5,1.52v3.71h-1.08v-6.56h1.08v1.02c.26-.39,.56-.69,.91-.88s.75-.29,1.21-.29c.75,0,1.32,.23,1.71,.7s.58,1.15,.58,2.06Z"/><path class="cls-22" d="M293.84,55.7v1.86h2.22v.84h-2.22v3.56c0,.54,.07,.88,.22,1.03s.44,.23,.89,.23h1.11v.9h-1.11c-.83,0-1.41-.16-1.72-.47s-.47-.88-.47-1.7v-3.56h-.79v-.84h.79v-1.86h1.08Z"/></g><g><path class="cls-22" d="M4.73,65.22c1.23,0,2.21,.41,2.94,1.23s1.1,1.92,1.1,3.31-.37,2.48-1.1,3.3-1.71,1.23-2.94,1.23-2.21-.41-2.95-1.23-1.1-1.92-1.1-3.3,.37-2.49,1.1-3.31,1.72-1.23,2.95-1.23Zm0,.96c-.86,0-1.54,.32-2.05,.96s-.76,1.51-.76,2.62,.25,1.97,.76,2.61,1.19,.96,2.05,.96,1.54-.32,2.04-.96,.75-1.51,.75-2.61-.25-1.98-.75-2.62-1.18-.96-2.04-.96Z"/><path class="cls-22" d="M11.26,73.31v2.9h-.9v-7.55h.9v.83c.19-.33,.43-.57,.72-.73s.63-.24,1.03-.24c.66,0,1.2,.26,1.62,.79s.62,1.22,.62,2.08-.21,1.55-.62,2.08-.95,.79-1.62,.79c-.4,0-.74-.08-1.03-.24s-.53-.4-.72-.73Zm3.06-1.91c0-.66-.14-1.18-.41-1.56s-.65-.56-1.12-.56-.85,.19-1.12,.56-.41,.89-.41,1.56,.14,1.18,.41,1.56,.65,.56,1.12,.56,.85-.19,1.12-.56,.41-.89,.41-1.56Z"/></g><g><path class="cls-22" d="M53.78,98.02c1.23,0,2.21,.41,2.94,1.23,.73,.82,1.1,1.92,1.1,3.31s-.37,2.48-1.1,3.3-1.71,1.23-2.94,1.23-2.21-.41-2.95-1.23-1.1-1.92-1.1-3.3,.37-2.49,1.1-3.31c.74-.82,1.72-1.23,2.95-1.23Zm0,.96c-.86,0-1.54,.32-2.05,.96s-.76,1.51-.76,2.62,.25,1.97,.76,2.61,1.19,.96,2.05,.96,1.54-.32,2.04-.96,.75-1.51,.75-2.61-.25-1.98-.75-2.62-1.18-.96-2.04-.96Z"/><path class="cls-22" d="M59.44,99.33h.9v1.14h-.9v-1.14Zm0,2.13h.9v5.47h-.9v-5.47Z"/></g><g><path class="cls-22" d="M132.43,102.73c1.23,0,2.21,.41,2.94,1.23s1.1,1.92,1.1,3.31-.37,2.48-1.1,3.3-1.71,1.23-2.94,1.23-2.21-.41-2.95-1.23-1.1-1.92-1.1-3.3,.37-2.49,1.1-3.31,1.72-1.23,2.95-1.23Zm0,.96c-.86,0-1.54,.32-2.05,.96s-.76,1.51-.76,2.62,.25,1.97,.76,2.61,1.19,.96,2.05,.96,1.54-.32,2.04-.96,.75-1.51,.75-2.61-.25-1.98-.75-2.62-1.18-.96-2.04-.96Z"/><path class="cls-22" d="M142.03,106.37v.84c-.25-.14-.51-.25-.76-.31-.26-.07-.51-.11-.77-.11-.58,0-1.04,.18-1.36,.55-.32,.37-.48,.89-.48,1.55s.16,1.19,.48,1.56c.32,.37,.77,.55,1.36,.55,.26,0,.52-.04,.77-.1,.26-.07,.51-.17,.76-.32v.83c-.25,.12-.51,.21-.78,.26s-.55,.09-.86,.09c-.82,0-1.48-.26-1.96-.78s-.73-1.22-.73-2.09,.25-1.59,.73-2.1c.49-.51,1.16-.77,2.01-.77,.28,0,.55,.03,.81,.09,.26,.06,.52,.14,.77,.26Z"/></g><g><path class="cls-22" d="M314.3,98.22c1.23,0,2.21,.41,2.94,1.23,.73,.82,1.1,1.92,1.1,3.31s-.37,2.48-1.1,3.3-1.71,1.23-2.94,1.23-2.21-.41-2.95-1.23-1.1-1.92-1.1-3.3,.37-2.49,1.1-3.31c.74-.82,1.72-1.23,2.95-1.23Zm0,.96c-.86,0-1.54,.32-2.05,.96s-.76,1.51-.76,2.62,.25,1.97,.76,2.61,1.19,.96,2.05,.96,1.54-.32,2.04-.96,.75-1.51,.75-2.61-.25-1.98-.75-2.62-1.18-.96-2.04-.96Z"/><path class="cls-22" d="M319.44,101.66h.9l1.12,4.27,1.12-4.27h1.06l1.12,4.27,1.12-4.27h.9l-1.43,5.47h-1.06l-1.18-4.48-1.18,4.48h-1.06l-1.43-5.47Z"/></g><g><path class="cls-2" d="M57.47,44.37h3.77v.75h-2.88v1.93h2.6v.75h-2.6v3.13h-.89v-6.56Z"/><path class="cls-2" d="M64.2,45.89c.7,0,1.26,.23,1.66,.69s.6,1.09,.6,1.9-.2,1.44-.6,1.9c-.4,.46-.95,.69-1.66,.69s-1.26-.23-1.66-.69c-.4-.46-.6-1.09-.6-1.9s.2-1.44,.6-1.9c.4-.46,.95-.69,1.66-.69Zm0,.69c-.43,0-.78,.17-1.03,.51-.25,.34-.38,.8-.38,1.39s.13,1.05,.38,1.39c.25,.34,.59,.51,1.03,.51s.77-.17,1.02-.51,.38-.8,.38-1.39-.13-1.04-.38-1.39-.59-.51-1.02-.51Z"/><path class="cls-2" d="M71.34,46.2v.76c-.23-.13-.46-.22-.69-.28-.23-.06-.46-.09-.7-.09-.52,0-.93,.17-1.22,.5-.29,.33-.44,.8-.44,1.4s.15,1.07,.44,1.4,.7,.5,1.22,.5c.23,0,.47-.03,.7-.09s.46-.16,.69-.28v.75c-.23,.11-.46,.18-.7,.24-.24,.05-.5,.08-.77,.08-.74,0-1.33-.23-1.77-.7s-.65-1.09-.65-1.89,.22-1.43,.66-1.89c.44-.46,1.04-.69,1.81-.69,.25,0,.49,.03,.73,.08,.24,.05,.47,.13,.69,.23Z"/><path class="cls-2" d="M76.59,48.12v2.81h-.81v-.75c-.18,.3-.41,.52-.69,.66-.28,.14-.61,.21-1.01,.21-.5,0-.9-.14-1.2-.42-.3-.28-.45-.66-.45-1.14,0-.55,.19-.97,.56-1.25,.37-.28,.92-.42,1.66-.42h1.13v-.08c0-.37-.12-.66-.37-.86-.25-.2-.59-.31-1.03-.31-.28,0-.56,.03-.82,.1s-.52,.17-.77,.3v-.75c.3-.11,.58-.2,.86-.26,.28-.06,.55-.09,.81-.09,.71,0,1.24,.18,1.6,.55s.53,.93,.53,1.68Zm-1.61,.33c-.65,0-1.11,.07-1.36,.22s-.38,.4-.38,.76c0,.29,.09,.52,.28,.68,.19,.17,.45,.25,.77,.25,.45,0,.81-.16,1.08-.48,.27-.32,.41-.74,.41-1.27v-.18h-.8Z"/><path class="cls-2" d="M78.26,44.09h.81v6.84h-.81v-6.84Z"/><path class="cls-2" d="M83.62,44.09h.81v6.84h-.81v-6.84Z"/><path class="cls-2" d="M90.33,48.27v.4h-3.72c.04,.56,.2,.98,.5,1.27,.3,.29,.72,.44,1.25,.44,.31,0,.61-.04,.9-.11s.58-.19,.87-.34v.76c-.29,.12-.59,.22-.89,.28s-.61,.1-.93,.1c-.79,0-1.41-.23-1.87-.69-.46-.46-.69-1.08-.69-1.85s.22-1.44,.65-1.92c.43-.47,1.02-.71,1.76-.71,.66,0,1.19,.21,1.57,.64,.38,.43,.58,1.01,.58,1.74Zm-.81-.24c0-.44-.13-.8-.37-1.06-.24-.26-.56-.4-.96-.4-.45,0-.81,.13-1.08,.38-.27,.25-.43,.61-.47,1.08h2.88Z"/><path class="cls-2" d="M95.75,47.96v2.97h-.81v-2.94c0-.47-.09-.81-.27-1.05s-.45-.35-.82-.35c-.44,0-.78,.14-1.03,.42s-.38,.66-.38,1.14v2.78h-.81v-4.92h.81v.76c.19-.3,.42-.52,.68-.66s.56-.22,.91-.22c.57,0,.99,.18,1.28,.52,.29,.35,.44,.87,.44,1.54Z"/><path class="cls-2" d="M101.41,50.32c0,.84-.19,1.46-.56,1.87-.37,.41-.94,.61-1.71,.61-.28,0-.55-.02-.8-.06-.25-.04-.5-.11-.73-.2v-.79c.24,.13,.47,.22,.7,.29s.47,.09,.71,.09c.53,0,.93-.14,1.19-.42,.26-.28,.4-.7,.4-1.25v-.4c-.17,.29-.38,.51-.64,.65s-.57,.22-.94,.22c-.6,0-1.09-.23-1.46-.69s-.55-1.07-.55-1.83,.18-1.37,.55-1.83,.86-.69,1.46-.69c.36,0,.68,.07,.94,.22s.47,.36,.64,.65v-.75h.81v4.31Zm-.81-1.91c0-.59-.12-1.04-.36-1.36-.24-.32-.58-.48-1.02-.48s-.77,.16-1.01,.48c-.24,.32-.36,.78-.36,1.36s.12,1.04,.36,1.36c.24,.32,.58,.48,1.01,.48s.78-.16,1.02-.48c.24-.32,.36-.77,.36-1.36Z"/><path class="cls-2" d="M103.88,44.61v1.4h1.67v.63h-1.67v2.67c0,.4,.06,.66,.16,.77,.11,.11,.33,.17,.67,.17h.83v.68h-.83c-.62,0-1.05-.12-1.29-.35-.24-.23-.36-.66-.36-1.27v-2.67h-.59v-.63h.59v-1.4h.81Z"/><path class="cls-2" d="M110.7,47.96v2.97h-.81v-2.94c0-.47-.09-.81-.27-1.05s-.45-.35-.82-.35c-.44,0-.78,.14-1.03,.42s-.38,.66-.38,1.14v2.78h-.81v-6.84h.81v2.68c.19-.3,.42-.52,.68-.66s.56-.22,.91-.22c.57,0,.99,.18,1.28,.52,.29,.35,.44,.87,.44,1.54Z"/></g><g><path class="cls-15" d="M18.14,1.63h1.18V10.37h-1.18V1.63Z"/><path class="cls-15" d="M26.74,5.07c.27-.48,.59-.84,.97-1.07s.82-.35,1.32-.35c.68,0,1.21,.24,1.58,.72s.56,1.16,.56,2.04v3.96h-1.08v-3.93c0-.63-.11-1.1-.33-1.4s-.56-.46-1.02-.46c-.56,0-1,.19-1.32,.56s-.49,.88-.49,1.52v3.71h-1.08v-3.93c0-.63-.11-1.1-.33-1.4s-.57-.45-1.03-.45c-.55,0-.99,.19-1.31,.56s-.49,.88-.49,1.51v3.71h-1.08V3.81h1.08v1.02c.25-.4,.54-.7,.88-.89s.75-.29,1.22-.29,.88,.12,1.22,.36,.58,.59,.74,1.05Z"/><path class="cls-15" d="M38.45,6.63v3.74h-1.08v-1c-.25,.4-.55,.69-.92,.88s-.82,.28-1.35,.28c-.67,0-1.21-.19-1.6-.57s-.59-.88-.59-1.51c0-.74,.25-1.29,.74-1.67s1.23-.56,2.21-.56h1.51v-.11c0-.5-.16-.88-.49-1.15s-.78-.41-1.37-.41c-.38,0-.74,.04-1.1,.13s-.7,.22-1.03,.4v-1c.39-.15,.78-.27,1.15-.34s.73-.11,1.08-.11c.95,0,1.66,.25,2.13,.74s.7,1.24,.7,2.24Zm-2.15,.45c-.87,0-1.47,.1-1.81,.3s-.5,.54-.5,1.02c0,.38,.13,.69,.38,.91s.59,.34,1.03,.34c.6,0,1.08-.21,1.44-.64s.54-.99,.54-1.69v-.24h-1.07Z"/><path class="cls-15" d="M46.07,9.56c0,1.12-.25,1.95-.74,2.49s-1.26,.82-2.28,.82c-.38,0-.74-.03-1.07-.08s-.66-.14-.98-.26v-1.05c.32,.17,.63,.3,.94,.38s.62,.12,.94,.12c.71,0,1.24-.18,1.59-.55s.53-.93,.53-1.67v-.53c-.22,.39-.51,.68-.86,.87s-.76,.29-1.25,.29c-.8,0-1.45-.31-1.95-.92s-.74-1.43-.74-2.44,.25-1.83,.74-2.44,1.14-.92,1.95-.92c.48,0,.9,.1,1.25,.29s.63,.48,.86,.87v-1h1.08v5.75Zm-1.08-2.54c0-.78-.16-1.39-.48-1.82s-.77-.64-1.36-.64-1.03,.21-1.35,.64-.48,1.04-.48,1.82,.16,1.38,.48,1.81,.77,.64,1.35,.64,1.03-.21,1.36-.64,.48-1.03,.48-1.81Z"/><path class="cls-15" d="M53.91,6.82v.53h-4.96c.05,.74,.27,1.31,.67,1.7s.96,.58,1.67,.58c.41,0,.82-.05,1.2-.15s.77-.25,1.16-.46v1.02c-.39,.16-.78,.29-1.19,.38s-.82,.13-1.24,.13c-1.05,0-1.88-.3-2.49-.91s-.92-1.43-.92-2.47,.29-1.93,.87-2.56,1.36-.95,2.35-.95c.88,0,1.58,.28,2.09,.85s.77,1.34,.77,2.32Zm-1.08-.32c0-.59-.17-1.06-.5-1.41s-.75-.53-1.28-.53c-.6,0-1.08,.17-1.44,.51s-.57,.82-.62,1.44h3.84Z"/><path class="cls-15" d="M10.09,15.67c-.52,.9-.91,1.79-1.17,2.67s-.38,1.77-.38,2.67,.13,1.8,.38,2.68,.64,1.77,1.16,2.67h-.94c-.59-.92-1.02-1.82-1.32-2.71s-.44-1.77-.44-2.64,.14-1.75,.43-2.63,.73-1.79,1.32-2.71h.94Z"/><path class="cls-15" d="M12.18,15.66h1.08v1.37h-1.08v-1.37Zm0,2.55h1.08v6.56h-1.08v-6.56Z"/><path class="cls-15" d="M20.97,20.81v3.96h-1.08v-3.93c0-.62-.12-1.09-.36-1.39s-.61-.46-1.09-.46c-.58,0-1.04,.19-1.38,.56s-.5,.88-.5,1.52v3.71h-1.08v-6.56h1.08v1.02c.26-.39,.56-.69,.91-.88s.75-.29,1.21-.29c.75,0,1.32,.23,1.71,.7s.58,1.15,.58,2.06Z"/><path class="cls-15" d="M27.98,23.79v3.48h-1.08v-9.06h1.08v1c.23-.39,.51-.68,.86-.87s.76-.28,1.24-.28c.8,0,1.44,.32,1.94,.95s.75,1.46,.75,2.5-.25,1.86-.75,2.5-1.15,.95-1.94,.95c-.48,0-.89-.09-1.24-.28s-.63-.48-.86-.87Zm3.67-2.29c0-.79-.16-1.42-.49-1.87s-.77-.68-1.34-.68-1.02,.23-1.34,.68-.49,1.07-.49,1.87,.16,1.42,.49,1.87,.77,.68,1.34,.68,1.02-.23,1.34-.68,.49-1.07,.49-1.87Z"/><path class="cls-15" d="M34.55,15.66h1.08v1.37h-1.08v-1.37Zm0,2.55h1.08v6.56h-1.08v-6.56Z"/><path class="cls-15" d="M43.34,18.21l-2.37,3.19,2.5,3.37h-1.27l-1.91-2.58-1.91,2.58h-1.27l2.55-3.43-2.33-3.13h1.27l1.74,2.34,1.74-2.34h1.27Z"/><path class="cls-15" d="M50.23,21.22v.53h-4.96c.05,.74,.27,1.31,.67,1.7s.96,.58,1.67,.58c.41,0,.82-.05,1.2-.15s.77-.25,1.16-.46v1.02c-.39,.16-.78,.29-1.19,.38s-.82,.13-1.24,.13c-1.05,0-1.88-.3-2.49-.91s-.92-1.43-.92-2.47,.29-1.93,.87-2.56,1.36-.95,2.35-.95c.88,0,1.58,.28,2.09,.85s.77,1.34,.77,2.32Zm-1.08-.32c0-.59-.17-1.06-.5-1.41s-.75-.53-1.28-.53c-.6,0-1.08,.17-1.44,.51s-.57,.82-.62,1.44h3.84Z"/><path class="cls-15" d="M52,15.66h1.08v9.12h-1.08V15.66Z"/><path class="cls-15" d="M59.52,18.4v1.02c-.3-.16-.62-.27-.95-.35s-.67-.12-1.02-.12c-.54,0-.94,.08-1.2,.25s-.4,.41-.4,.74c0,.25,.1,.45,.29,.59s.58,.28,1.15,.41l.37,.08c.77,.16,1.31,.4,1.63,.69s.48,.72,.48,1.25c0,.61-.24,1.09-.72,1.45s-1.15,.53-1.99,.53c-.35,0-.72-.03-1.1-.1s-.78-.17-1.2-.31v-1.11c.4,.21,.79,.36,1.18,.47s.77,.16,1.15,.16c.51,0,.9-.09,1.17-.26s.41-.42,.41-.74c0-.29-.1-.52-.3-.67s-.63-.31-1.3-.45l-.38-.09c-.67-.14-1.15-.36-1.45-.65s-.45-.69-.45-1.2c0-.62,.22-1.09,.66-1.43s1.06-.5,1.86-.5c.4,0,.77,.03,1.12,.09s.68,.15,.97,.26Z"/><path class="cls-15" d="M61.42,15.67h.94c.59,.92,1.02,1.82,1.32,2.71s.44,1.76,.44,2.63-.15,1.76-.44,2.64-.73,1.79-1.32,2.71h-.94c.52-.89,.91-1.78,1.16-2.67s.38-1.78,.38-2.68-.13-1.79-.38-2.67-.64-1.77-1.16-2.67Z"/></g><circle class="cls-22" cx="266.45" cy="50.93" r="2.32"/><g><path class="cls-15" d="M113.66,16.7v1.25c-.4-.37-.82-.65-1.27-.83s-.93-.28-1.44-.28c-1,0-1.77,.31-2.3,.92s-.8,1.5-.8,2.65,.27,2.03,.8,2.65,1.3,.92,2.3,.92c.51,0,.99-.09,1.44-.28s.88-.46,1.27-.83v1.24c-.41,.28-.85,.49-1.32,.63s-.95,.21-1.47,.21c-1.32,0-2.37-.41-3.13-1.22s-1.14-1.92-1.14-3.32,.38-2.51,1.14-3.33,1.8-1.22,3.13-1.22c.52,0,1.02,.07,1.48,.21s.9,.35,1.3,.62Z"/><path class="cls-15" d="M120.57,21.03v3.74h-1.08v-1c-.25,.4-.55,.69-.92,.88s-.82,.28-1.35,.28c-.67,0-1.21-.19-1.6-.57s-.59-.88-.59-1.51c0-.74,.25-1.29,.74-1.67s1.23-.56,2.21-.56h1.51v-.11c0-.5-.16-.88-.49-1.15s-.78-.41-1.37-.41c-.38,0-.74,.04-1.1,.13s-.7,.22-1.03,.4v-1c.39-.15,.78-.27,1.15-.34s.73-.11,1.08-.11c.95,0,1.66,.25,2.13,.74s.7,1.24,.7,2.24Zm-2.15,.45c-.87,0-1.47,.1-1.81,.3s-.5,.54-.5,1.02c0,.38,.13,.69,.38,.91s.59,.34,1.03,.34c.6,0,1.08-.21,1.44-.64s.54-.99,.54-1.69v-.24h-1.07Z"/><path class="cls-15" d="M127.9,19.47c.27-.48,.59-.84,.97-1.07s.82-.35,1.32-.35c.68,0,1.21,.24,1.58,.72s.56,1.16,.56,2.04v3.96h-1.08v-3.93c0-.63-.11-1.1-.33-1.4s-.56-.46-1.02-.46c-.56,0-1,.19-1.32,.56s-.49,.88-.49,1.52v3.71h-1.08v-3.93c0-.63-.11-1.1-.33-1.4s-.57-.45-1.03-.45c-.55,0-.99,.19-1.31,.56s-.49,.88-.49,1.51v3.71h-1.08v-6.56h1.08v1.02c.25-.4,.54-.7,.88-.89s.75-.29,1.22-.29,.88,.12,1.22,.36,.58,.59,.74,1.05Z"/><path class="cls-15" d="M140.09,21.22v.53h-4.96c.05,.74,.27,1.31,.67,1.7s.96,.58,1.67,.58c.41,0,.82-.05,1.2-.15s.77-.25,1.16-.46v1.02c-.39,.16-.78,.29-1.19,.38s-.82,.13-1.24,.13c-1.05,0-1.88-.3-2.49-.91s-.92-1.43-.92-2.47,.29-1.93,.87-2.56,1.36-.95,2.35-.95c.88,0,1.58,.28,2.09,.85s.77,1.34,.77,2.32Zm-1.08-.32c0-.59-.17-1.06-.5-1.41s-.75-.53-1.28-.53c-.6,0-1.08,.17-1.44,.51s-.57,.82-.62,1.44h3.84Z"/><path class="cls-15" d="M145.67,19.22c-.12-.07-.25-.12-.4-.16s-.3-.05-.47-.05c-.61,0-1.08,.2-1.4,.59s-.49,.97-.49,1.71v3.46h-1.08v-6.56h1.08v1.02c.23-.4,.52-.69,.88-.89s.8-.29,1.32-.29c.07,0,.16,0,.25,.01s.19,.02,.3,.04v1.11Z"/><path class="cls-15" d="M151.93,21.03v3.74h-1.08v-1c-.25,.4-.55,.69-.92,.88s-.82,.28-1.35,.28c-.67,0-1.21-.19-1.6-.57s-.59-.88-.59-1.51c0-.74,.25-1.29,.74-1.67s1.23-.56,2.21-.56h1.51v-.11c0-.5-.16-.88-.49-1.15s-.78-.41-1.37-.41c-.38,0-.74,.04-1.1,.13s-.7,.22-1.03,.4v-1c.39-.15,.78-.27,1.15-.34s.73-.11,1.08-.11c.95,0,1.66,.25,2.13,.74s.7,1.24,.7,2.24Zm-2.15,.45c-.87,0-1.47,.1-1.81,.3s-.5,.54-.5,1.02c0,.38,.13,.69,.38,.91s.59,.34,1.03,.34c.6,0,1.08-.21,1.44-.64s.54-.99,.54-1.69v-.24h-1.07Z"/></g><g><path class="cls-15" d="M261.22,16.03h1.2l1.84,7.39,1.83-7.39h1.33l1.84,7.39,1.83-7.39h1.2l-2.2,8.75h-1.49l-1.85-7.59-1.86,7.59h-1.49l-2.19-8.75Z"/><path class="cls-15" d="M275.66,18.05c.94,0,1.67,.3,2.21,.91s.8,1.45,.8,2.53-.27,1.92-.8,2.53-1.27,.92-2.21,.92-1.68-.31-2.21-.92-.8-1.45-.8-2.53,.27-1.92,.8-2.53,1.27-.91,2.21-.91Zm0,.91c-.58,0-1.04,.23-1.37,.68s-.5,1.07-.5,1.85,.17,1.4,.5,1.85,.79,.68,1.37,.68,1.03-.23,1.37-.68,.5-1.07,.5-1.85-.17-1.39-.5-1.85-.79-.68-1.37-.68Z"/><path class="cls-15" d="M284.26,19.22c-.12-.07-.25-.12-.4-.16s-.3-.05-.47-.05c-.61,0-1.08,.2-1.4,.59s-.49,.97-.49,1.71v3.46h-1.08v-6.56h1.08v1.02c.23-.4,.52-.69,.88-.89s.8-.29,1.32-.29c.07,0,.16,0,.25,.01s.19,.02,.3,.04v1.11Z"/><path class="cls-15" d="M285.39,15.66h1.08v9.12h-1.08V15.66Z"/><path class="cls-15" d="M293.04,19.21v-3.55h1.08v9.12h-1.08v-.98c-.23,.39-.51,.68-.86,.87s-.76,.28-1.25,.28c-.79,0-1.44-.32-1.94-.95s-.75-1.46-.75-2.5,.25-1.86,.75-2.5,1.14-.95,1.94-.95c.48,0,.9,.09,1.25,.28s.63,.48,.86,.87Zm-3.67,2.29c0,.79,.16,1.42,.49,1.87s.77,.68,1.34,.68,1.02-.23,1.35-.68,.49-1.07,.49-1.87-.16-1.42-.49-1.87-.78-.68-1.35-.68-1.02,.23-1.34,.68-.49,1.07-.49,1.87Z"/></g><g><path class="cls-17" d="M42.93,180.48h1.18v8.75h-1.18v-8.75Z"/><path class="cls-17" d="M51.88,185.27v3.96h-1.08v-3.93c0-.62-.12-1.09-.36-1.39s-.61-.46-1.09-.46c-.58,0-1.04,.19-1.38,.56s-.5,.88-.5,1.52v3.71h-1.08v-6.56h1.08v1.02c.26-.39,.56-.69,.91-.88s.75-.29,1.21-.29c.75,0,1.32,.23,1.71,.7s.58,1.15,.58,2.06Z"/><path class="cls-17" d="M55.09,180.81v1.86h2.22v.84h-2.22v3.56c0,.54,.07,.88,.22,1.03s.44,.23,.89,.23h1.11v.9h-1.11c-.83,0-1.41-.16-1.72-.47s-.47-.88-.47-1.7v-3.56h-.79v-.84h.79v-1.86h1.08Z"/><path class="cls-17" d="M62.54,183.68c-.12-.07-.25-.12-.4-.16s-.3-.05-.47-.05c-.61,0-1.08,.2-1.4,.59s-.49,.97-.49,1.71v3.46h-1.08v-6.56h1.08v1.02c.23-.4,.52-.69,.88-.89s.8-.29,1.32-.29c.07,0,.16,0,.25,.01s.19,.02,.3,.04v1.11Z"/><path class="cls-17" d="M63.67,180.12h1.08v1.37h-1.08v-1.37Zm0,2.55h1.08v6.56h-1.08v-6.56Z"/><path class="cls-17" d="M72.46,185.27v3.96h-1.08v-3.93c0-.62-.12-1.09-.36-1.39s-.61-.46-1.09-.46c-.58,0-1.04,.19-1.38,.56s-.5,.88-.5,1.52v3.71h-1.08v-6.56h1.08v1.02c.26-.39,.56-.69,.91-.88s.75-.29,1.21-.29c.75,0,1.32,.23,1.71,.7s.58,1.15,.58,2.06Z"/><path class="cls-17" d="M78.79,182.86v1.02c-.3-.16-.62-.27-.95-.35s-.67-.12-1.02-.12c-.54,0-.94,.08-1.2,.25s-.4,.41-.4,.74c0,.25,.1,.45,.29,.59s.58,.28,1.15,.41l.37,.08c.77,.16,1.31,.4,1.63,.69s.48,.72,.48,1.25c0,.61-.24,1.09-.72,1.45s-1.15,.53-1.99,.53c-.35,0-.72-.03-1.1-.1s-.78-.17-1.2-.31v-1.11c.4,.21,.79,.36,1.18,.47s.77,.16,1.15,.16c.51,0,.9-.09,1.17-.26s.41-.42,.41-.74c0-.29-.1-.52-.3-.67s-.63-.31-1.3-.45l-.38-.09c-.67-.14-1.15-.36-1.45-.65s-.45-.69-.45-1.2c0-.62,.22-1.09,.66-1.43s1.06-.5,1.86-.5c.4,0,.77,.03,1.12,.09s.68,.15,.97,.26Z"/><path class="cls-17" d="M80.86,180.12h1.08v1.37h-1.08v-1.37Zm0,2.55h1.08v6.56h-1.08v-6.56Z"/><path class="cls-17" d="M88.92,182.92v1.01c-.3-.17-.61-.29-.92-.38s-.62-.13-.93-.13c-.7,0-1.24,.22-1.63,.67s-.58,1.07-.58,1.87,.19,1.42,.58,1.87,.93,.67,1.63,.67c.31,0,.62-.04,.93-.13s.61-.21,.92-.38v1c-.3,.14-.61,.25-.93,.32s-.67,.11-1.03,.11c-.99,0-1.77-.31-2.36-.93s-.87-1.46-.87-2.51,.29-1.91,.88-2.53,1.39-.92,2.42-.92c.33,0,.66,.03,.97,.1s.62,.17,.92,.31Z"/><path class="cls-17" d="M94.97,182.86v1.02c-.3-.16-.62-.27-.95-.35s-.67-.12-1.02-.12c-.54,0-.94,.08-1.2,.25s-.4,.41-.4,.74c0,.25,.1,.45,.29,.59s.58,.28,1.15,.41l.37,.08c.77,.16,1.31,.4,1.63,.69s.48,.72,.48,1.25c0,.61-.24,1.09-.72,1.45s-1.15,.53-1.99,.53c-.35,0-.72-.03-1.1-.1s-.78-.17-1.2-.31v-1.11c.4,.21,.79,.36,1.18,.47s.77,.16,1.15,.16c.51,0,.9-.09,1.17-.26s.41-.42,.41-.74c0-.29-.1-.52-.3-.67s-.63-.31-1.3-.45l-.38-.09c-.67-.14-1.15-.36-1.45-.65s-.45-.69-.45-1.2c0-.62,.22-1.09,.66-1.43s1.06-.5,1.86-.5c.4,0,.77,.03,1.12,.09s.68,.15,.97,.26Z"/><path class="cls-17" d="M100.83,180.48h2.26v3.19l3.25-3.19h2.62l-4.21,4.14,4.65,4.61h-2.82l-3.48-3.45v3.45h-2.26v-8.75Z"/></g><g><path class="cls-17" d="M42.93,180.48h1.18v8.75h-1.18v-8.75Z"/><path class="cls-17" d="M51.88,185.27v3.96h-1.08v-3.93c0-.62-.12-1.09-.36-1.39s-.61-.46-1.09-.46c-.58,0-1.04,.19-1.38,.56s-.5,.88-.5,1.52v3.71h-1.08v-6.56h1.08v1.02c.26-.39,.56-.69,.91-.88s.75-.29,1.21-.29c.75,0,1.32,.23,1.71,.7s.58,1.15,.58,2.06Z"/><path class="cls-17" d="M55.09,180.81v1.86h2.22v.84h-2.22v3.56c0,.54,.07,.88,.22,1.03s.44,.23,.89,.23h1.11v.9h-1.11c-.83,0-1.41-.16-1.72-.47s-.47-.88-.47-1.7v-3.56h-.79v-.84h.79v-1.86h1.08Z"/><path class="cls-17" d="M62.54,183.68c-.12-.07-.25-.12-.4-.16s-.3-.05-.47-.05c-.61,0-1.08,.2-1.4,.59s-.49,.97-.49,1.71v3.46h-1.08v-6.56h1.08v1.02c.23-.4,.52-.69,.88-.89s.8-.29,1.32-.29c.07,0,.16,0,.25,.01s.19,.02,.3,.04v1.11Z"/><path class="cls-17" d="M63.67,180.12h1.08v1.37h-1.08v-1.37Zm0,2.55h1.08v6.56h-1.08v-6.56Z"/><path class="cls-17" d="M72.46,185.27v3.96h-1.08v-3.93c0-.62-.12-1.09-.36-1.39s-.61-.46-1.09-.46c-.58,0-1.04,.19-1.38,.56s-.5,.88-.5,1.52v3.71h-1.08v-6.56h1.08v1.02c.26-.39,.56-.69,.91-.88s.75-.29,1.21-.29c.75,0,1.32,.23,1.71,.7s.58,1.15,.58,2.06Z"/><path class="cls-17" d="M78.79,182.86v1.02c-.3-.16-.62-.27-.95-.35s-.67-.12-1.02-.12c-.54,0-.94,.08-1.2,.25s-.4,.41-.4,.74c0,.25,.1,.45,.29,.59s.58,.28,1.15,.41l.37,.08c.77,.16,1.31,.4,1.63,.69s.48,.72,.48,1.25c0,.61-.24,1.09-.72,1.45s-1.15,.53-1.99,.53c-.35,0-.72-.03-1.1-.1s-.78-.17-1.2-.31v-1.11c.4,.21,.79,.36,1.18,.47s.77,.16,1.15,.16c.51,0,.9-.09,1.17-.26s.41-.42,.41-.74c0-.29-.1-.52-.3-.67s-.63-.31-1.3-.45l-.38-.09c-.67-.14-1.15-.36-1.45-.65s-.45-.69-.45-1.2c0-.62,.22-1.09,.66-1.43s1.06-.5,1.86-.5c.4,0,.77,.03,1.12,.09s.68,.15,.97,.26Z"/><path class="cls-17" d="M80.86,180.12h1.08v1.37h-1.08v-1.37Zm0,2.55h1.08v6.56h-1.08v-6.56Z"/><path class="cls-17" d="M88.92,182.92v1.01c-.3-.17-.61-.29-.92-.38s-.62-.13-.93-.13c-.7,0-1.24,.22-1.63,.67s-.58,1.07-.58,1.87,.19,1.42,.58,1.87,.93,.67,1.63,.67c.31,0,.62-.04,.93-.13s.61-.21,.92-.38v1c-.3,.14-.61,.25-.93,.32s-.67,.11-1.03,.11c-.99,0-1.77-.31-2.36-.93s-.87-1.46-.87-2.51,.29-1.91,.88-2.53,1.39-.92,2.42-.92c.33,0,.66,.03,.97,.1s.62,.17,.92,.31Z"/><path class="cls-17" d="M94.97,182.86v1.02c-.3-.16-.62-.27-.95-.35s-.67-.12-1.02-.12c-.54,0-.94,.08-1.2,.25s-.4,.41-.4,.74c0,.25,.1,.45,.29,.59s.58,.28,1.15,.41l.37,.08c.77,.16,1.31,.4,1.63,.69s.48,.72,.48,1.25c0,.61-.24,1.09-.72,1.45s-1.15,.53-1.99,.53c-.35,0-.72-.03-1.1-.1s-.78-.17-1.2-.31v-1.11c.4,.21,.79,.36,1.18,.47s.77,.16,1.15,.16c.51,0,.9-.09,1.17-.26s.41-.42,.41-.74c0-.29-.1-.52-.3-.67s-.63-.31-1.3-.45l-.38-.09c-.67-.14-1.15-.36-1.45-.65s-.45-.69-.45-1.2c0-.62,.22-1.09,.66-1.43s1.06-.5,1.86-.5c.4,0,.77,.03,1.12,.09s.68,.15,.97,.26Z"/><path class="cls-17" d="M100.83,180.48h2.26v3.19l3.25-3.19h2.62l-4.21,4.14,4.65,4.61h-2.82l-3.48-3.45v3.45h-2.26v-8.75Z"/></g><g><path class="cls-17" d="M42.93,180.57h1.18v8.75h-1.18v-8.75Z"/><path class="cls-17" d="M51.88,185.36v3.96h-1.08v-3.93c0-.62-.12-1.09-.36-1.39s-.61-.46-1.09-.46c-.58,0-1.04,.19-1.38,.56s-.5,.88-.5,1.52v3.71h-1.08v-6.56h1.08v1.02c.26-.39,.56-.69,.91-.88s.75-.29,1.21-.29c.75,0,1.32,.23,1.71,.7s.58,1.15,.58,2.06Z"/><path class="cls-17" d="M55.09,180.89v1.86h2.22v.84h-2.22v3.56c0,.54,.07,.88,.22,1.03s.44,.23,.89,.23h1.11v.9h-1.11c-.83,0-1.41-.16-1.72-.47s-.47-.88-.47-1.7v-3.56h-.79v-.84h.79v-1.86h1.08Z"/><path class="cls-17" d="M62.54,183.76c-.12-.07-.25-.12-.4-.16s-.3-.05-.47-.05c-.61,0-1.08,.2-1.4,.59s-.49,.97-.49,1.71v3.46h-1.08v-6.56h1.08v1.02c.23-.4,.52-.69,.88-.89s.8-.29,1.32-.29c.07,0,.16,0,.25,.01s.19,.02,.3,.04v1.11Z"/><path class="cls-17" d="M63.67,180.2h1.08v1.37h-1.08v-1.37Zm0,2.55h1.08v6.56h-1.08v-6.56Z"/><path class="cls-17" d="M72.46,185.36v3.96h-1.08v-3.93c0-.62-.12-1.09-.36-1.39s-.61-.46-1.09-.46c-.58,0-1.04,.19-1.38,.56s-.5,.88-.5,1.52v3.71h-1.08v-6.56h1.08v1.02c.26-.39,.56-.69,.91-.88s.75-.29,1.21-.29c.75,0,1.32,.23,1.71,.7s.58,1.15,.58,2.06Z"/><path class="cls-17" d="M78.79,182.95v1.02c-.3-.16-.62-.27-.95-.35s-.67-.12-1.02-.12c-.54,0-.94,.08-1.2,.25s-.4,.41-.4,.74c0,.25,.1,.45,.29,.59s.58,.28,1.15,.41l.37,.08c.77,.16,1.31,.4,1.63,.69s.48,.72,.48,1.25c0,.61-.24,1.09-.72,1.45s-1.15,.53-1.99,.53c-.35,0-.72-.03-1.1-.1s-.78-.17-1.2-.31v-1.11c.4,.21,.79,.36,1.18,.47s.77,.16,1.15,.16c.51,0,.9-.09,1.17-.26s.41-.42,.41-.74c0-.29-.1-.52-.3-.67s-.63-.31-1.3-.45l-.38-.09c-.67-.14-1.15-.36-1.45-.65s-.45-.69-.45-1.2c0-.62,.22-1.09,.66-1.43s1.06-.5,1.86-.5c.4,0,.77,.03,1.12,.09s.68,.15,.97,.26Z"/><path class="cls-17" d="M80.86,180.2h1.08v1.37h-1.08v-1.37Zm0,2.55h1.08v6.56h-1.08v-6.56Z"/><path class="cls-17" d="M88.92,183.01v1.01c-.3-.17-.61-.29-.92-.38s-.62-.13-.93-.13c-.7,0-1.24,.22-1.63,.67s-.58,1.07-.58,1.87,.19,1.42,.58,1.87,.93,.67,1.63,.67c.31,0,.62-.04,.93-.13s.61-.21,.92-.38v1c-.3,.14-.61,.25-.93,.32s-.67,.11-1.03,.11c-.99,0-1.77-.31-2.36-.93s-.87-1.46-.87-2.51,.29-1.91,.88-2.53,1.39-.92,2.42-.92c.33,0,.66,.03,.97,.1s.62,.17,.92,.31Z"/><path class="cls-17" d="M94.97,182.95v1.02c-.3-.16-.62-.27-.95-.35s-.67-.12-1.02-.12c-.54,0-.94,.08-1.2,.25s-.4,.41-.4,.74c0,.25,.1,.45,.29,.59s.58,.28,1.15,.41l.37,.08c.77,.16,1.31,.4,1.63,.69s.48,.72,.48,1.25c0,.61-.24,1.09-.72,1.45s-1.15,.53-1.99,.53c-.35,0-.72-.03-1.1-.1s-.78-.17-1.2-.31v-1.11c.4,.21,.79,.36,1.18,.47s.77,.16,1.15,.16c.51,0,.9-.09,1.17-.26s.41-.42,.41-.74c0-.29-.1-.52-.3-.67s-.63-.31-1.3-.45l-.38-.09c-.67-.14-1.15-.36-1.45-.65s-.45-.69-.45-1.2c0-.62,.22-1.09,.66-1.43s1.06-.5,1.86-.5c.4,0,.77,.03,1.12,.09s.68,.15,.97,.26Z"/><path class="cls-17" d="M100.83,180.57h2.26v3.19l3.25-3.19h2.62l-4.21,4.14,4.65,4.61h-2.82l-3.48-3.45v3.45h-2.26v-8.75Z"/></g><g><path class="cls-17" d="M261.63,180.57h5.53v1h-4.35v2.59h4.17v1h-4.17v3.17h4.45v1h-5.64v-8.75Z"/><path class="cls-17" d="M274.62,182.75l-2.37,3.19,2.5,3.37h-1.27l-1.91-2.58-1.91,2.58h-1.27l2.55-3.43-2.33-3.13h1.27l1.74,2.34,1.74-2.34h1.27Z"/><path class="cls-17" d="M277.33,180.89v1.86h2.22v.84h-2.22v3.56c0,.54,.07,.88,.22,1.03s.44,.23,.89,.23h1.11v.9h-1.11c-.83,0-1.41-.16-1.72-.47s-.47-.88-.47-1.7v-3.56h-.79v-.84h.79v-1.86h1.08Z"/><path class="cls-17" d="M284.78,183.76c-.12-.07-.25-.12-.4-.16s-.3-.05-.47-.05c-.61,0-1.08,.2-1.4,.59s-.49,.97-.49,1.71v3.46h-1.08v-6.56h1.08v1.02c.23-.4,.52-.69,.88-.89s.8-.29,1.32-.29c.07,0,.16,0,.25,.01s.19,.02,.3,.04v1.11Z"/><path class="cls-17" d="M285.91,180.2h1.08v1.37h-1.08v-1.37Zm0,2.55h1.08v6.56h-1.08v-6.56Z"/><path class="cls-17" d="M294.7,185.36v3.96h-1.08v-3.93c0-.62-.12-1.09-.36-1.39s-.61-.46-1.09-.46c-.58,0-1.04,.19-1.38,.56s-.5,.88-.5,1.52v3.71h-1.08v-6.56h1.08v1.02c.26-.39,.56-.69,.91-.88s.75-.29,1.21-.29c.75,0,1.32,.23,1.71,.7s.58,1.15,.58,2.06Z"/><path class="cls-17" d="M301.03,182.95v1.02c-.3-.16-.62-.27-.95-.35s-.67-.12-1.02-.12c-.54,0-.94,.08-1.2,.25s-.4,.41-.4,.74c0,.25,.1,.45,.29,.59s.58,.28,1.15,.41l.37,.08c.77,.16,1.31,.4,1.63,.69s.48,.72,.48,1.25c0,.61-.24,1.09-.72,1.45s-1.15,.53-1.99,.53c-.35,0-.72-.03-1.1-.1s-.78-.17-1.2-.31v-1.11c.4,.21,.79,.36,1.18,.47s.77,.16,1.15,.16c.51,0,.9-.09,1.17-.26s.41-.42,.41-.74c0-.29-.1-.52-.3-.67s-.63-.31-1.3-.45l-.38-.09c-.67-.14-1.15-.36-1.45-.65s-.45-.69-.45-1.2c0-.62,.22-1.09,.66-1.43s1.06-.5,1.86-.5c.4,0,.77,.03,1.12,.09s.68,.15,.97,.26Z"/><path class="cls-17" d="M303.1,180.2h1.08v1.37h-1.08v-1.37Zm0,2.55h1.08v6.56h-1.08v-6.56Z"/><path class="cls-17" d="M311.15,183.01v1.01c-.3-.17-.61-.29-.92-.38s-.62-.13-.93-.13c-.7,0-1.24,.22-1.63,.67s-.58,1.07-.58,1.87,.19,1.42,.58,1.87,.93,.67,1.63,.67c.31,0,.62-.04,.93-.13s.61-.21,.92-.38v1c-.3,.14-.61,.25-.93,.32s-.67,.11-1.03,.11c-.99,0-1.77-.31-2.36-.93s-.87-1.46-.87-2.51,.29-1.91,.88-2.53,1.39-.92,2.42-.92c.33,0,.66,.03,.97,.1s.62,.17,.92,.31Z"/><path class="cls-17" d="M317.21,182.95v1.02c-.3-.16-.62-.27-.95-.35s-.67-.12-1.02-.12c-.54,0-.94,.08-1.2,.25s-.4,.41-.4,.74c0,.25,.1,.45,.29,.59s.58,.28,1.15,.41l.37,.08c.77,.16,1.31,.4,1.63,.69s.48,.72,.48,1.25c0,.61-.24,1.09-.72,1.45s-1.15,.53-1.99,.53c-.35,0-.72-.03-1.1-.1s-.78-.17-1.2-.31v-1.11c.4,.21,.79,.36,1.18,.47s.77,.16,1.15,.16c.51,0,.9-.09,1.17-.26s.41-.42,.41-.74c0-.29-.1-.52-.3-.67s-.63-.31-1.3-.45l-.38-.09c-.67-.14-1.15-.36-1.45-.65s-.45-.69-.45-1.2c0-.62,.22-1.09,.66-1.43s1.06-.5,1.86-.5c.4,0,.77,.03,1.12,.09s.68,.15,.97,.26Z"/><path class="cls-17" d="M323,180.2h2.48v.84h-1.41v9.02h1.41v.84h-2.48v-10.7Z"/><path class="cls-17" d="M330,186.01v3.31h-2.26v-8.75h3.45c1.15,0,2,.19,2.53,.58s.81,1,.81,1.83c0,.58-.14,1.05-.42,1.42s-.7,.64-1.26,.82c.31,.07,.58,.23,.83,.48s.49,.62,.74,1.13l1.22,2.48h-2.4l-1.07-2.17c-.21-.44-.43-.74-.65-.9s-.51-.24-.88-.24h-.64Zm.95-1.56c.47,0,.81-.09,1.02-.26s.31-.46,.31-.87-.1-.68-.31-.86-.54-.26-1.02-.26h-.95v2.24h.95Z"/><path class="cls-17" d="M343.36,180.89v1.86h2.16v1.5h-2.16v2.78c0,.3,.06,.51,.18,.62s.36,.16,.72,.16h1.08v1.5h-1.8c-.83,0-1.42-.17-1.76-.52s-.52-.93-.52-1.76v-2.78h-1.04v-1.5h1.04v-1.86h2.1Z"/><path class="cls-17" d="M349.45,180.2v10.7h-2.48v-.84h1.4v-9.02h-1.4v-.84h2.48Z"/></g></svg>