<?xml version="1.0" encoding="UTF-8" standalone="no"?><svg xmlns="http://www.w3.org/2000/svg" id="Layer_1" viewBox="0 0 410 225"><style>text[font-family="'DejaVuSans'"] {font-family: 'DejaVu Sans', Ariel, Helvetica, sans-serif; font-style: normal; font-weight: normal;}
</style><defs><style>.cls-1{stroke:#595a5c;}.cls-1,.cls-2,.cls-3,.cls-4,.cls-5,.cls-6,.cls-7{fill:none;}.cls-1,.cls-5{stroke-width:4px;}.cls-8{fill:#a7a9ac;}.cls-9{fill:#019547;}.cls-2,.cls-10,.cls-4,.cls-6,.cls-11{stroke-width:2px;}.cls-2,.cls-11{stroke:#764d2a;}.cls-12{isolation:isolate;opacity:.6;}.cls-12,.cls-10{fill:#f2f2f2;}.cls-13{fill:#2a3c90;}.cls-14,.cls-11{fill:#764d2a;}.cls-10,.cls-4{stroke:#2075bc;}.cls-3{stroke:#a7a9ac;stroke-miterlimit:10;}.cls-15{opacity:.48;}.cls-5{stroke:#bdbec0;}.cls-6{stroke:#2a3c90;}.cls-7{stroke:#f89521;}.cls-16{fill:#231f20;}.cls-17{opacity:.23;}</style></defs><g><path class="cls-16" d="M24.59,143.53h4.13v1h-5.55v-1c.45-.46,1.06-1.09,1.84-1.87s1.26-1.29,1.46-1.51c.38-.43,.64-.79,.79-1.08s.23-.58,.23-.87c0-.46-.16-.84-.49-1.14s-.75-.44-1.27-.44c-.37,0-.76,.06-1.17,.19s-.85,.32-1.32,.59v-1.2c.48-.19,.92-.34,1.34-.43s.79-.15,1.14-.15c.91,0,1.63,.23,2.17,.68s.81,1.06,.81,1.82c0,.36-.07,.7-.2,1.02s-.38,.7-.74,1.14c-.1,.11-.41,.44-.93,.98s-1.26,1.3-2.21,2.27Z"/><path class="cls-16" d="M30.51,140.76h3.16v.96h-3.16v-.96Z"/><path class="cls-16" d="M35.43,135.78h2.43c1.7,0,2.94,.35,3.73,1.06s1.19,1.81,1.19,3.31-.4,2.62-1.2,3.32-2.04,1.06-3.73,1.06h-2.43v-8.75Zm1.18,.97v6.8h1.43c1.21,0,2.09-.27,2.65-.82s.84-1.41,.84-2.59-.28-2.03-.84-2.58-1.44-.82-2.65-.82h-1.43Z"/><path class="cls-16" d="M48.44,135.41h1.08v1.37h-1.08v-1.37Zm0,2.55h1.08v6.56h-1.08v-6.56Z"/><path class="cls-16" d="M56.88,139.22c.27-.48,.59-.84,.97-1.07s.82-.35,1.32-.35c.68,0,1.21,.24,1.58,.72s.56,1.16,.56,2.04v3.96h-1.08v-3.93c0-.63-.11-1.1-.33-1.4s-.56-.46-1.02-.46c-.56,0-1,.19-1.32,.56s-.49,.88-.49,1.52v3.71h-1.08v-3.93c0-.63-.11-1.1-.33-1.4s-.57-.45-1.03-.45c-.55,0-.99,.19-1.31,.56s-.49,.88-.49,1.51v3.71h-1.08v-6.56h1.08v1.02c.25-.4,.54-.7,.88-.89s.75-.29,1.22-.29,.88,.12,1.22,.36,.58,.59,.74,1.05Z"/><path class="cls-16" d="M68.6,140.78v3.74h-1.08v-1c-.25,.4-.55,.69-.92,.88s-.82,.28-1.35,.28c-.67,0-1.21-.19-1.6-.57s-.59-.88-.59-1.51c0-.74,.25-1.29,.74-1.67s1.23-.56,2.21-.56h1.51v-.11c0-.5-.16-.88-.49-1.15s-.78-.41-1.37-.41c-.38,0-.74,.04-1.1,.13s-.7,.22-1.03,.4v-1c.39-.15,.78-.27,1.15-.34s.73-.11,1.08-.11c.95,0,1.66,.25,2.13,.74s.7,1.24,.7,2.24Zm-2.15,.45c-.87,0-1.47,.1-1.81,.3s-.5,.54-.5,1.02c0,.38,.13,.69,.38,.91s.59,.34,1.03,.34c.6,0,1.08-.21,1.44-.64s.54-.99,.54-1.69v-.24h-1.07Z"/><path class="cls-16" d="M76.21,143.71c0,1.12-.25,1.95-.74,2.49s-1.26,.82-2.28,.82c-.38,0-.74-.03-1.07-.08s-.66-.14-.98-.26v-1.05c.32,.17,.63,.3,.94,.38s.62,.12,.94,.12c.71,0,1.24-.18,1.59-.55s.53-.93,.53-1.67v-.53c-.22,.39-.51,.68-.86,.87s-.76,.29-1.25,.29c-.8,0-1.45-.31-1.95-.92s-.74-1.43-.74-2.44,.25-1.83,.74-2.44,1.14-.92,1.95-.92c.48,0,.9,.1,1.25,.29s.63,.48,.86,.87v-1h1.08v5.75Zm-1.08-2.54c0-.78-.16-1.39-.48-1.82s-.77-.64-1.36-.64-1.03,.21-1.35,.64-.48,1.04-.48,1.82,.16,1.38,.48,1.81,.77,.64,1.35,.64,1.03-.21,1.36-.64,.48-1.03,.48-1.81Z"/><path class="cls-16" d="M84.05,140.98v.53h-4.96c.05,.74,.27,1.31,.67,1.7s.96,.58,1.67,.58c.41,0,.82-.05,1.2-.15s.77-.25,1.16-.46v1.02c-.39,.16-.78,.29-1.19,.38s-.82,.13-1.24,.13c-1.05,0-1.88-.3-2.49-.91s-.92-1.43-.92-2.47,.29-1.93,.87-2.56,1.36-.95,2.35-.95c.88,0,1.58,.28,2.09,.85s.77,1.34,.77,2.32Zm-1.08-.32c0-.59-.17-1.06-.5-1.41s-.75-.53-1.28-.53c-.6,0-1.08,.17-1.44,.51s-.57,.82-.62,1.44h3.84Z"/></g><polyline class="cls-4" points="102.22 159.98 102.22 105.88 155.72 85.08 155.72 139.38"/><line class="cls-4" x1="155.72" x2="207.12" y1="139.18" y2="167.68"/><path class="cls-6" d="M184.32,131.68c0,2.3-1.9,4.2-4.2,4.2s-4.2-1.9-4.2-4.2,1.9-4.2,4.2-4.2,4.2,1.9,4.2,4.2Z"/><g><path class="cls-9" d="M347.12,82.28c0,9.2-9.6,16.7-21.4,16.7s-21.4-7.5-21.4-16.7,9.6-16.7,21.4-16.7,21.4,7.5,21.4,16.7Z"/><path class="cls-9" d="M344.72,72.38c0,9.7-8.5,17.5-19.1,17.5s-19.1-7.8-19.1-17.5,8.5-17.5,19.1-17.5,19.1,7.8,19.1,17.5Z"/><path class="cls-9" d="M350.92,66.98c0,7.7-7.8,14-17.5,14s-17.5-6.3-17.5-14,7.8-14,17.5-14c9.6,0,17.5,6.3,17.5,14Z"/><path class="cls-9" d="M357.92,72.38c0,8.2-5.9,14.9-13.2,14.9s-13.2-6.7-13.2-14.9,5.9-14.9,13.2-14.9c7.3,0,13.2,6.7,13.2,14.9Z"/><path class="cls-9" d="M360.92,82.28c0,7.5-10.1,13.6-22.6,13.6s-22.6-6.1-22.6-13.6,10.1-13.6,22.6-13.6c12.5,0,22.6,6.1,22.6,13.6Z"/><path class="cls-9" d="M335.12,90.78c0,7.7-6,13.9-13.5,13.9s-13.5-6.2-13.5-13.9,6-13.9,13.5-13.9c7.5-.1,13.5,6.2,13.5,13.9Z"/><path class="cls-9" d="M359.82,87.28c0,7.5-6.1,13.6-13.7,13.6s-13.7-6.1-13.7-13.6,6.1-13.6,13.7-13.6c7.6,.1,13.7,6.1,13.7,13.6Z"/><g><path class="cls-2" d="M329.12,106.58c0,18.5-4.2,33.4-9.3,33.4"/><rect class="cls-11" height="33.4" width="7.9" x="329.12" y="106.58"/><path class="cls-2" d="M336.12,105.98c0,18.5,4.2,33.4,9.3,33.4"/><rect class="cls-14" height="5.6" width="15.7" x="325.02" y="134.38"/><rect class="cls-14" height="5.6" width="13.2" x="326.62" y="129.88"/><rect class="cls-14" height="1.2" width="20.4" x="322.82" y="138.28"/><rect class="cls-14" height="1.2" width="19" x="323.12" y="137.08"/><rect class="cls-14" height="1.2" width="14.8" x="324.12" y="136.18"/><rect class="cls-14" height="2.2" width="1.5" x="339.82" y="135.38"/><rect class="cls-14" height="3.7" width=".6" x="326.02" y="131.68"/><g><rect class="cls-14" height="1.9" width=".9" x="325.72" y="133.58"/><path class="cls-14" d="M326.62,133.88h-.9l1.5,1.5v-1.8l-1.5,1.5h.9l-1.5-1.5v1.8c0,.4,.2,.8,.4,1.1,.1,.1,.3,.2,.5,.3,.2,.1,.4,.1,.6,.1,.4,0,.8-.1,1.1-.4,.3-.3,.4-.7,.4-1.1v-1.8c0-.8-.7-1.5-1.5-1.5h-.9c-.8,0-1.5,.7-1.5,1.5v1.8c0,.8,.7,1.5,1.5,1.5h.9c.4,0,.8-.2,1.1-.4,.1-.1,.2-.3,.3-.5,.1-.2,.1-.4,.1-.6,0-.4-.1-.8-.4-1.1-.4-.2-.7-.4-1.1-.4Z"/></g><path class="cls-14" d="M326.62,123.78v.5c0,.2,.1-.3,0-.2,0,.3-.1,.5-.1,.8-.1,.6-.2,1.1-.3,1.7-.2,1.3-.4,2.7,.3,4,.3,.5,.9,.8,1.5,.7,.6-.1,1-.5,1.2-1.1,.1-.2-.2,.4-.1,.1,0-.1,.1-.1,.1-.2,.1-.1,.1-.2,.2-.4,.2-.4,.4-.8,.4-1.2,.1-.8-.7-1.5-1.5-1.5-.9,0-1.4,.7-1.5,1.5,0-.4,.1-.4,0-.3,0,.2,.2-.4,.1-.2-.1,.1-.1,.2-.2,.3-.2,.3-.3,.6-.4,.9,.9-.1,1.8-.2,2.7-.4-.2-.3,.1,.3,0,0l-.1-.3s0,.5,0,.2v-1.2c0-.1,0-.3,0,0s0,0,0,0v-.2c0-.1,0-.3,.1-.4,.2-1.1,.5-2.2,.5-3.3,0-.8-.7-1.5-1.5-1.5-.7,.3-1.3,.9-1.4,1.7h0Z"/><path class="cls-14" d="M336.22,128.88l.1,.1c-.1-.1-.2-.2-.2-.3,.1,.2,.3,.4,.3,.6-.1-.1-.1-.2-.2-.4,.3,.6,.4,1.3,.5,1.9,.1,.4,.4,.7,.7,.9,.3,.2,.8,.3,1.2,.2s.7-.3,.9-.7c.2-.4,.3-.8,.2-1.2-.1-.5-.2-.9-.3-1.4-.1-.3-.2-.6-.4-1-.2-.3-.4-.6-.6-.9s-.7-.4-1.1-.4-.8,.2-1.1,.4c-.3,.3-.5,.7-.4,1.1,0,.1,0,.3,.1,.4,0,.3,.1,.5,.3,.7h0Z"/><path class="cls-14" d="M325.32,136.28c-.1,0-.2,.1-.4,.1,.2,0,.3-.1,.4-.1-.2,.1-.5,.1-.7,.1s-.4,0-.6,.1-.3,.2-.5,.3c-.1,.1-.2,.3-.3,.5-.1,.2-.1,.4-.1,.6,0,.1,0,.3,.1,.4,.1,.3,.2,.5,.4,.7,.1,.1,.2,.2,.3,.2,.2,.1,.5,.2,.8,.2h.6c.2,0,.4,0,.7-.1,.1,0,.2,0,.3-.1,.2,0,.4-.1,.5-.3,.2-.1,.3-.2,.4-.4,.1-.2,.2-.4,.2-.6v-.6c-.1-.1-.1-.2-.2-.4-.1-.2-.3-.4-.5-.5-.1-.1-.2-.1-.4-.2-.5,0-.8,0-1,.1h0Z"/><path class="cls-14" d="M322.02,141.08c7,0,14,.1,21,.1,1.9,0,1.9-3,0-3-7,0-14-.1-21-.1-2,0-2,3,0,3h0Z"/><path class="cls-14" d="M339.02,137.38c.3,.7,.9,1.2,1.2,1.9,.1,.2,.2,.3,.4,.4,.1,.1,.3,.2,.5,.3,.2,.1,.4,.1,.6,0,.2,0,.4-.1,.6-.2,.3-.2,.6-.5,.7-.9,0-.1,0-.3,.1-.4,0-.3-.1-.5-.2-.8-.3-.7-.9-1.2-1.2-1.9-.1-.2-.2-.3-.4-.4-.1-.1-.3-.2-.5-.3-.2-.1-.4-.1-.6,0-.2,0-.4,.1-.6,.2-.3,.2-.6,.5-.7,.9,0,.1,0,.3-.1,.4,0,.3,0,.5,.2,.8h0Z"/><path class="cls-14" d="M342.62,141.48h1.5c.2,0,.4,0,.6-.1s.3-.2,.5-.3c.1-.1,.2-.3,.3-.5,.1-.2,.1-.4,.1-.6,0-.1,0-.3-.1-.4-.1-.3-.2-.5-.4-.7-.3-.3-.7-.4-1.1-.4h-1.5c-.2,0-.4,0-.6,.1s-.3,.2-.5,.3c-.1,.1-.2,.3-.3,.5-.1,.2-.1,.4-.1,.6,0,.1,0,.3,.1,.4,.1,.3,.2,.5,.4,.7,.4,.2,.7,.4,1.1,.4h0Z"/></g><ellipse class="cls-9" cx="335.12" cy="94.58" rx="16.2" ry="13.6"/></g><polygon class="cls-10" points="268.22 100.78 214.82 80.08 214.82 134.28 268.22 154.98 268.22 100.78"/><g class="cls-17"><path class="cls-9" d="M231.82,112.78c0,3.2,3.3,5.8,7.4,5.8s7.4-2.6,7.4-5.8-3.3-5.8-7.4-5.8c-4.1,0-7.4,2.6-7.4,5.8Z"/><path class="cls-9" d="M232.62,109.38c0,3.4,2.9,6.1,6.6,6.1s6.6-2.7,6.6-6.1-2.9-6.1-6.6-6.1c-3.6,0-6.6,2.7-6.6,6.1Z"/><path class="cls-9" d="M230.52,107.48c0,2.7,2.7,4.9,6,4.9s6-2.2,6-4.9-2.7-4.9-6-4.9-6,2.2-6,4.9Z"/><path class="cls-9" d="M228.12,109.38c0,2.9,2,5.2,4.5,5.2s4.5-2.3,4.5-5.2-2-5.2-4.5-5.2c-2.5,0-4.5,2.3-4.5,5.2Z"/><path class="cls-9" d="M227.12,112.78c0,2.6,3.5,4.7,7.7,4.7s7.7-2.1,7.7-4.7-3.5-4.7-7.7-4.7-7.7,2.1-7.7,4.7Z"/><path class="cls-9" d="M235.92,115.78c0,2.7,2.1,4.8,4.6,4.8s4.6-2.2,4.6-4.8-2.1-4.8-4.6-4.8c-2.5-.1-4.6,2.1-4.6,4.8Z"/><path class="cls-9" d="M227.42,114.58c0,2.6,2.1,4.7,4.7,4.7s4.7-2.1,4.7-4.7-2.1-4.7-4.7-4.7-4.7,2.1-4.7,4.7Z"/><g><path class="cls-2" d="M238.02,121.28c0,6.4,1.4,11.6,3.2,11.6"/><rect class="cls-11" height="11.6" width="2.7" x="235.32" y="121.28"/><path class="cls-2" d="M235.62,121.08c0,6.4-1.4,11.6-3.2,11.6"/><rect class="cls-14" height="1.9" width="5.4" x="234.02" y="130.98"/><rect class="cls-14" height="1.9" width="4.5" x="234.32" y="129.38"/><rect class="cls-14" height=".4" width="7" x="233.22" y="132.28"/><rect class="cls-14" height=".4" width="6.5" x="233.52" y="131.88"/><rect class="cls-14" height=".4" width="5.1" x="234.62" y="131.58"/><rect class="cls-14" height=".8" width=".5" x="233.82" y="131.28"/><rect class="cls-14" height="1.3" width=".2" x="238.92" y="129.98"/><g><rect class="cls-14" height=".7" width=".3" x="238.92" y="130.68"/><path class="cls-14" d="M238.92,132.78h.3c.2,0,.4,0,.6-.1,.2-.1,.3-.2,.5-.3,.1-.1,.2-.2,.2-.3,.1-.2,.2-.5,.2-.8v-.7c0-.2,0-.4-.1-.6s-.2-.3-.3-.5c-.1-.1-.2-.2-.3-.2-.2-.1-.5-.2-.8-.2h-.3c-.2,0-.4,0-.6,.1-.2,.1-.3,.2-.5,.3-.1,.1-.2,.2-.2,.3-.1,.2-.2,.5-.2,.8v.7c0,.2,0,.4,.1,.6s.2,.3,.3,.5c.1,.1,.3,.2,.5,.3,.2,.1,.3,.1,.6,.1,.1,0,.3,0,.4-.1,.3-.1,.5-.2,.7-.4,.1-.1,.2-.2,.2-.3,.1-.2,.2-.5,.2-.8v-.7l-1.5,1.5h.3l-1.5-1.5v.7l1.5-1.5h-.3c-.2,0-.4,0-.6,.1-.2,.1-.3,.2-.5,.3-.1,.1-.2,.3-.3,.5s-.1,.4-.1,.6c0,.1,0,.3,.1,.4,.1,.3,.2,.5,.4,.7,.1,.1,.2,.2,.3,.2,.1,.3,.4,.3,.7,.3Z"/></g><path class="cls-14" d="M236.82,127.28c0,.6,.2,1.1,.3,1.7,0-.1,0-.3-.1-.4v.5c0-.1,0-.3,.1-.4q0,.1-.1,.2c.1-.1,.1-.2,.2-.4h0c.9,.1,1.8,.2,2.7,.4-.1-.3-.2-.5-.3-.7,.1,.1,.1,.2,.2,.4v-.1c0,.1,0,.3,.1,.4h0c0-.2,0-.4-.1-.6s-.2-.3-.3-.5c-.1-.1-.3-.2-.5-.3-.2-.1-.4-.1-.6-.1-.4,0-.8,.1-1.1,.4s-.5,.7-.4,1.1c0,.1,0,.3,.1,.5s.1,.3,.2,.4c0,.1,.1,.2,.1,.2-.1-.1-.1-.2-.2-.4h0c.1,.2,.2,.5,.4,.7,.1,.1,.2,.2,.3,.2,.2,.1,.4,.2,.6,.2h.4c.1,0,.3,0,.4-.1,.1,0,.2-.1,.3-.2,.2-.1,.3-.2,.4-.4,.2-.4,.3-.7,.3-1.1,0-.3,0-.6-.1-.9s-.1-.7-.2-1c0,.1,0,.3,.1,.4v-.2c0-.4-.2-.8-.4-1.1-.1-.1-.3-.2-.5-.3-.2-.1-.4-.1-.6-.1-.4,0-.8,.1-1.1,.4-.4,.4-.6,.8-.6,1.2h0Z"/><path class="cls-14" d="M234.12,127.58c-.1,.1-.2,.2-.3,.3v.1s0,.1-.1,.1c-.1,.1-.1,.3-.2,.4v.2c0,.2-.1,.3-.1,.5-.1,.2-.1,.4,0,.6,0,.2,.1,.4,.2,.6,.1,.2,.2,.3,.4,.4,.1,.1,.3,.2,.5,.3,.1,0,.3,0,.4,.1,.3,0,.5-.1,.8-.2,.1-.1,.2-.2,.3-.2,.2-.2,.3-.4,.4-.7,.1-.2,.1-.4,.2-.7-.1,.1-.1,.2-.2,.4,0-.1,.1-.1,.1-.2-.1,.1-.2,.2-.2,.3h0c.1-.1,.2-.3,.3-.5s.1-.4,.1-.6,0-.4-.1-.6-.2-.3-.3-.5c-.1-.1-.2-.2-.3-.2-.2-.1-.5-.2-.8-.2-.1,0-.3,0-.4,.1-.3-.1-.5,0-.7,.2h0Z"/><path class="cls-14" d="M238.82,133.58h0c.3,.1,.4,.1,.6,.1h.2c.2,0,.4,0,.6-.1,.2-.1,.3-.2,.5-.3,.1-.1,.2-.3,.3-.5s.1-.4,.1-.6c0-.1,0-.3-.1-.4-.1-.3-.2-.5-.4-.7-.1-.1-.2-.2-.3-.2-.2-.1-.5-.2-.8-.2h-.3c.1,0,.3,0,.4,.1h-.1c-.2-.1-.4-.1-.6,0-.2,0-.4,.1-.6,.2-.2,.1-.3,.2-.4,.4-.1,.1-.2,.3-.3,.5,0,.1,0,.3-.1,.4,0,.3,.1,.5,.2,.8,.1,.1,.2,.2,.2,.3,.4,0,.6,.1,.9,.2h0Z"/><path class="cls-14" d="M240.42,131.28h-7.2c-.8,0-1.5,.7-1.5,1.5s.7,1.5,1.5,1.5h7.2c.8,0,1.5-.7,1.5-1.5s-.6-1.5-1.5-1.5h0Z"/><path class="cls-14" d="M232.92,130.98c-.1,.2-.3,.4-.4,.7-.1,.2-.2,.4-.2,.6v.6c0,.2,.1,.4,.3,.5,.1,.2,.2,.3,.4,.4,.1,.1,.2,.1,.4,.2,.3,.1,.5,.1,.8,0,.1-.1,.2-.1,.4-.2s.4-.3,.5-.5,.3-.4,.4-.7c.1-.2,.2-.4,.2-.6v-.6c0-.2-.1-.4-.3-.5-.1-.2-.2-.3-.4-.4-.1-.1-.2-.1-.4-.2-.3-.1-.5-.1-.8,0-.1,.1-.2,.1-.4,.2-.2,.1-.4,.3-.5,.5h0Z"/><path class="cls-14" d="M233.32,131.38h-.5c-.2,0-.4,0-.6,.1-.2,.1-.3,.2-.5,.3-.1,.1-.2,.3-.3,.5s-.1,.4-.1,.6c0,.1,0,.3,.1,.4,.1,.3,.2,.5,.4,.7,.1,.1,.2,.2,.3,.2,.2,.1,.5,.2,.8,.2h.5c.2,0,.4,0,.6-.1,.2-.1,.3-.2,.5-.3,.1-.1,.2-.3,.3-.5s.1-.4,.1-.6c0-.1,0-.3-.1-.4-.1-.3-.2-.5-.4-.7-.1-.1-.2-.2-.3-.2-.2-.1-.5-.2-.8-.2h0Z"/></g><path class="cls-9" d="M230.42,117.08c0,2.6,2.5,4.7,5.5,4.7s5.6-2.1,5.6-4.7-2.5-4.7-5.6-4.7-5.5,2.1-5.5,4.7Z"/></g><line class="cls-7" x1="324.92" x2="127.12" y1="52.98" y2="159.98"/><line class="cls-7" x1="124.22" x2="322.22" y1="127.18" y2="142.08"/><line class="cls-4" x1="241.52" x2="255.02" y1="90.48" y2="95.78"/><line class="cls-4" x1="268.22" x2="268.22" y1="130.78" y2="143.48"/><polygon class="cls-4" points="206.32 167.28 152.82 187.98 152.82 133.88 206.32 113.08 206.32 167.28"/><line class="cls-4" x1="101.52" x2="152.82" y1="159.98" y2="188.38"/><line class="cls-4" x1="101.52" x2="152.82" y1="105.98" y2="134.48"/><line class="cls-4" x1="156.02" x2="207.42" y1="84.58" y2="113.08"/><path class="cls-13" d="M182.62,129.48c.1,.1,.2,.2,.2,.3,0,0,0-.1-.1-.1,.1,.2,.2,.5,.3,.7,0,.2,.2,.2,.4,.2h.3c.1,0,.3,0,.4-.1,.2-.1,.5-.2,.6-.3,.1-.1,.3-.2,.2-.4-.1-.4-.3-.8-.6-1.1q-.1-.1-.2-.1h-.7c-.1,0-.3,.1-.4,.1s-.1,.1-.2,.1c-.1,.1-.2,.1-.3,.2,0,0,0,.1-.1,.1,.1,.3,.1,.4,.2,.4h0Z"/><path class="cls-13" d="M183.22,131.68c.1,.2,.1,.5,.1,.7v-.1c0,.2,0,.5-.1,.7,0,0,0-.1,.1-.1,0,.1-.1,.2-.1,.2-.1,.1-.1,.3,0,.4s.4,.2,.5,.2c.3,0,.5,0,.8-.1,.2-.1,.4-.2,.5-.4,.4-.6,.4-1.4,.2-2-.1-.2-.2-.2-.4-.3-.2-.1-.5,0-.7,0-.2,.1-.5,.2-.6,.3-.2,.2-.3,.3-.3,.5h0Z"/><polygon class="cls-12" points="153.22 135.08 104.42 108.88 103.82 160.58 151.42 186.18 153.22 135.08"/><g class="cls-15"><path class="cls-9" d="M130.82,150.58c0-3.4-3.5-6.1-7.8-6.1s-7.8,2.7-7.8,6.1,3.5,6.1,7.8,6.1,7.8-2.7,7.8-6.1Z"/><path class="cls-9" d="M129.92,154.18c0-3.5-3.1-6.4-7-6.4s-7,2.9-7,6.4,3.1,6.4,7,6.4,7-2.8,7-6.4Z"/><path class="cls-9" d="M132.12,156.18c0-2.8-2.9-5.1-6.4-5.1s-6.4,2.3-6.4,5.1,2.9,5.1,6.4,5.1,6.4-2.3,6.4-5.1Z"/><path class="cls-9" d="M134.72,154.18c0-3-2.2-5.4-4.8-5.4s-4.8,2.4-4.8,5.4,2.2,5.4,4.8,5.4c2.7,.1,4.8-2.4,4.8-5.4Z"/><path class="cls-9" d="M135.82,150.58c0-2.7-3.7-5-8.2-5s-8.2,2.2-8.2,5,3.7,5,8.2,5,8.2-2.2,8.2-5Z"/><path class="cls-9" d="M126.42,147.58c0-2.8-2.2-5.1-4.9-5.1s-4.9,2.3-4.9,5.1,2.2,5.1,4.9,5.1c2.7-.1,4.9-2.3,4.9-5.1Z"/><path class="cls-9" d="M135.42,148.78c0-2.7-2.2-5-5-5s-5,2.2-5,5,2.2,5,5,5c2.8-.1,5-2.3,5-5Z"/><g><path class="cls-2" d="M124.22,141.78c0-6.7-1.5-12.2-3.4-12.2"/><rect class="cls-11" height="12.2" width="2.9" x="124.22" y="129.58"/><path class="cls-2" d="M126.82,141.98c0-6.7,1.5-12.2,3.4-12.2"/><rect class="cls-14" height="2" width="5.7" x="122.72" y="129.58"/><rect class="cls-14" height="2" width="4.8" x="123.32" y="131.28"/><rect class="cls-14" height=".4" width="7.4" x="121.92" y="129.78"/><rect class="cls-14" height=".4" width="6.9" x="122.02" y="130.28"/><rect class="cls-14" height=".4" width="5.4" x="122.42" y="130.48"/><rect class="cls-14" height=".8" width=".6" x="128.12" y="130.48"/><rect class="cls-14" height="1.4" width=".2" x="123.12" y="131.28"/><g><rect class="cls-14" height=".7" width=".3" x="123.02" y="131.28"/><path class="cls-14" d="M123.32,129.78h-.3c-.2,0-.4,0-.6,.1s-.3,.2-.5,.3c-.1,.1-.2,.2-.2,.3-.1,.2-.2,.5-.2,.8v.7c0,.2,0,.4,.1,.6s.2,.3,.3,.5c.1,.1,.2,.2,.3,.2,.2,.1,.5,.2,.8,.2h.3c.2,0,.4,0,.6-.1s.3-.2,.5-.3c.1-.1,.2-.2,.2-.3,.1-.2,.2-.5,.2-.8v-.7c0-.2,0-.4-.1-.6s-.2-.3-.3-.5c-.1-.1-.3-.2-.5-.3-.2-.1-.4-.1-.6-.1-.1,0-.3,0-.4,.1-.3,.1-.5,.2-.7,.4-.1,.1-.2,.2-.2,.3-.1,.2-.2,.5-.2,.8v.7l1.5-1.5h-.3l1.5,1.5v-.7l-1.5,1.5h.3c.2,0,.4,0,.6-.1s.3-.2,.5-.3c.1-.1,.2-.3,.3-.5,.1-.2,.1-.4,.1-.6,0-.1,0-.3-.1-.4-.1-.3-.2-.5-.4-.7-.1-.1-.2-.2-.3-.2-.2-.3-.4-.3-.7-.3Z"/></g><path class="cls-14" d="M125.42,135.48c0-.6-.2-1.2-.3-1.8,0,.1,0,.3,.1,.4v-.6c0,.1,0,.3-.1,.4q0-.1,.1-.2c-.1,.1-.1,.2-.2,.4v-.1c-.9-.1-1.8-.2-2.7-.4,.1,.3,.2,.5,.3,.7-.1-.1-.1-.2-.2-.4v.1c0-.1,0-.3-.1-.4h0c0,.2,0,.4,.1,.6s.2,.3,.3,.5c.3,.3,.7,.5,1.1,.4,.4,0,.8-.1,1.1-.4,.3-.3,.5-.7,.4-1.1,0-.2,0-.3-.1-.5s-.1-.3-.2-.5c0-.1-.1-.2-.1-.3,.1,.1,.1,.2,.2,.4h0c-.1-.2-.2-.5-.4-.7-.1-.1-.2-.2-.3-.2-.2-.1-.4-.2-.6-.2h-.4c-.1,0-.3,0-.4,.1-.1,0-.2,.1-.3,.2-.2,.1-.3,.2-.4,.4-.2,.4-.3,.7-.3,1.1,0,.3,0,.6,.1,.9,.1,.4,.2,.7,.2,1.1,0-.1,0-.3-.1-.4v.2c0,.4,.2,.8,.4,1.1,.3,.3,.7,.5,1.1,.4,.4,0,.8-.1,1.1-.4,.4,0,.6-.4,.6-.8h0Z"/><path class="cls-14" d="M128.22,135.08l.3-.3v-.1s0-.1,.1-.1c.1-.1,.1-.3,.2-.4v-.2c0-.2,.1-.3,.1-.5,.1-.2,.1-.4,0-.6,0-.2-.1-.4-.2-.6s-.2-.3-.4-.4c-.1-.1-.3-.2-.5-.3-.1,0-.3,0-.4-.1-.3,0-.5,.1-.8,.2-.1,.1-.2,.2-.3,.2-.2,.2-.3,.4-.4,.7-.1,.2-.1,.5-.2,.7,.1-.1,.1-.2,.2-.4,0,.1-.1,.1-.1,.2,.1-.1,.2-.2,.2-.3h0c-.1,.1-.2,.3-.3,.5-.1,.2-.1,.4-.1,.6s0,.4,.1,.6,.2,.3,.3,.5c.1,.1,.2,.2,.3,.2,.2,.1,.5,.2,.8,.2,.1,0,.3,0,.4-.1,.3,.1,.6,0,.7-.2h0Z"/><path class="cls-14" d="M123.42,128.98h-.1c-.2,0-.3-.1-.5-.1h-.2c-.2,0-.4,0-.6,.1s-.3,.2-.5,.3c-.1,.1-.2,.3-.3,.5-.1,.2-.1,.4-.1,.6,0,.1,0,.3,.1,.4,.1,.3,.2,.5,.4,.7,.1,.1,.2,.2,.3,.2,.2,.1,.5,.2,.8,.2h.3c-.1,0-.3,0-.4-.1h.1c.2,.1,.4,.1,.6,0,.2,0,.4-.1,.6-.2s.3-.2,.4-.4c.1-.1,.2-.3,.3-.5,0-.1,0-.3,.1-.4,0-.3-.1-.5-.2-.8-.1-.1-.2-.2-.2-.3-.5,0-.7-.2-.9-.2h0Z"/><path class="cls-14" d="M121.62,131.18h7.7c.8,0,1.5-.7,1.5-1.5s-.7-1.5-1.5-1.5h-7.7c-.8,0-1.5,.7-1.5,1.5s.7,1.5,1.5,1.5h0Z"/><path class="cls-14" d="M129.62,131.58c.1-.2,.3-.4,.4-.7,.1-.2,.2-.4,.2-.6v-.6c0-.2-.1-.4-.3-.5-.1-.2-.2-.3-.4-.4-.1-.1-.2-.1-.4-.2-.3-.1-.5-.1-.8,0-.1,.1-.2,.1-.4,.2-.2,.1-.4,.3-.5,.5s-.3,.4-.4,.7c-.1,.2-.2,.4-.2,.6v.6c0,.2,.1,.4,.3,.5,.1,.2,.2,.3,.4,.4,.1,.1,.2,.1,.4,.2,.3,.1,.5,.1,.8,0,.1-.1,.2-.1,.4-.2,.2-.1,.3-.3,.5-.5h0Z"/><path class="cls-14" d="M129.12,131.08h.5c.2,0,.4,0,.6-.1s.3-.2,.5-.3c.1-.1,.2-.3,.3-.5,.1-.2,.1-.4,.1-.6,0-.1,0-.3-.1-.4-.1-.3-.2-.5-.4-.7-.1-.1-.2-.2-.3-.2-.2-.1-.5-.2-.8-.2h-.5c-.2,0-.4,0-.6,.1s-.3,.2-.5,.3c-.1,.1-.2,.3-.3,.5-.1,.2-.1,.4-.1,.6,0,.1,0,.3,.1,.4,.1,.3,.2,.5,.4,.7,.1,.1,.2,.2,.3,.2,.3,.1,.6,.2,.8,.2h0Z"/></g><path class="cls-9" d="M132.32,146.08c0-2.7-2.6-5-5.9-5s-5.9,2.2-5.9,5,2.6,5,5.9,5,5.9-2.2,5.9-5Z"/></g><g><line class="cls-5" x1="210.13" x2="257.09" y1="174.17" y2="153.77"/><line class="cls-5" x1="208.7" x2="212.24" y1="170.3" y2="178.27"/><line class="cls-5" x1="255.28" x2="258.73" y1="149.58" y2="157.55"/></g><g><line class="cls-1" x1="163.16" x2="210.22" y1="194.68" y2="174.38"/><line class="cls-1" x1="161.83" x2="165.37" y1="190.81" y2="198.88"/><line class="cls-1" x1="208.31" x2="211.85" y1="170.09" y2="178.15"/></g><g><line class="cls-3" x1="71.89" x2="106.86" y1="152.58" y2="152.58"/><polygon class="cls-8" points="104.05 156.28 105.63 152.58 104.05 148.87 112.83 152.58 104.05 156.28"/></g><g><line class="cls-3" x1="102.91" x2="102.91" y1="60.41" y2="95.38"/><polygon class="cls-8" points="99.21 92.57 102.91 94.15 106.62 92.57 102.91 101.35 99.21 92.57"/></g><g><path class="cls-16" d="M53.67,46.13h1.18v8.75h-1.18v-8.75Z"/><path class="cls-16" d="M62.27,49.58c.27-.48,.59-.84,.97-1.07s.82-.35,1.32-.35c.68,0,1.21,.24,1.58,.72s.56,1.16,.56,2.04v3.96h-1.08v-3.93c0-.63-.11-1.1-.33-1.4s-.56-.46-1.02-.46c-.56,0-1,.19-1.32,.56s-.49,.88-.49,1.52v3.71h-1.08v-3.93c0-.63-.11-1.1-.33-1.4s-.57-.45-1.03-.45c-.55,0-.99,.19-1.31,.56s-.49,.88-.49,1.51v3.71h-1.08v-6.56h1.08v1.02c.25-.4,.54-.7,.88-.89s.75-.29,1.22-.29,.88,.12,1.22,.36,.58,.59,.74,1.05Z"/><path class="cls-16" d="M73.99,51.14v3.74h-1.08v-1c-.25,.4-.55,.69-.92,.88s-.82,.28-1.35,.28c-.67,0-1.21-.19-1.6-.57s-.59-.88-.59-1.51c0-.74,.25-1.29,.74-1.67s1.23-.56,2.21-.56h1.51v-.11c0-.5-.16-.88-.49-1.15s-.78-.41-1.37-.41c-.38,0-.74,.04-1.1,.13s-.7,.22-1.03,.4v-1c.39-.15,.78-.27,1.15-.34s.73-.11,1.08-.11c.95,0,1.66,.25,2.13,.74s.7,1.24,.7,2.24Zm-2.15,.45c-.87,0-1.47,.1-1.81,.3s-.5,.54-.5,1.02c0,.38,.13,.69,.38,.91s.59,.34,1.03,.34c.6,0,1.08-.21,1.44-.64s.54-.99,.54-1.69v-.24h-1.07Z"/><path class="cls-16" d="M81.6,54.07c0,1.12-.25,1.95-.74,2.49s-1.26,.82-2.28,.82c-.38,0-.74-.03-1.07-.08s-.66-.14-.98-.26v-1.05c.32,.17,.63,.3,.94,.38s.62,.12,.94,.12c.71,0,1.24-.18,1.59-.55s.53-.93,.53-1.67v-.53c-.22,.39-.51,.68-.86,.87s-.76,.29-1.25,.29c-.8,0-1.45-.31-1.95-.92s-.74-1.43-.74-2.44,.25-1.83,.74-2.44,1.14-.92,1.95-.92c.48,0,.9,.1,1.25,.29s.63,.48,.86,.87v-1h1.08v5.75Zm-1.08-2.54c0-.78-.16-1.39-.48-1.82s-.77-.64-1.36-.64-1.03,.21-1.35,.64-.48,1.04-.48,1.82,.16,1.38,.48,1.81,.77,.64,1.35,.64,1.03-.21,1.36-.64,.48-1.03,.48-1.81Z"/><path class="cls-16" d="M89.44,51.33v.53h-4.96c.05,.74,.27,1.31,.67,1.7s.96,.58,1.67,.58c.41,0,.82-.05,1.2-.15s.77-.25,1.16-.46v1.02c-.39,.16-.78,.29-1.19,.38s-.82,.13-1.24,.13c-1.05,0-1.88-.3-2.49-.91s-.92-1.43-.92-2.47,.29-1.93,.87-2.56,1.36-.95,2.35-.95c.88,0,1.58,.28,2.09,.85s.77,1.34,.77,2.32Zm-1.08-.32c0-.59-.17-1.06-.5-1.41s-.75-.53-1.28-.53c-.6,0-1.08,.17-1.44,.51s-.57,.82-.62,1.44h3.84Z"/><path class="cls-16" d="M96.07,53.9v3.48h-1.08v-9.06h1.08v1c.23-.39,.51-.68,.86-.87s.76-.28,1.24-.28c.8,0,1.44,.32,1.94,.95s.75,1.46,.75,2.5-.25,1.86-.75,2.5-1.15,.95-1.94,.95c-.48,0-.89-.09-1.24-.28s-.63-.48-.86-.87Zm3.67-2.29c0-.79-.16-1.42-.49-1.87s-.77-.68-1.34-.68-1.02,.23-1.34,.68-.49,1.07-.49,1.87,.16,1.42,.49,1.87,.77,.68,1.34,.68,1.02-.23,1.34-.68,.49-1.07,.49-1.87Z"/><path class="cls-16" d="M102.64,45.76h1.08v9.12h-1.08v-9.12Z"/><path class="cls-16" d="M111.11,51.14v3.74h-1.08v-1c-.25,.4-.55,.69-.92,.88s-.82,.28-1.35,.28c-.67,0-1.21-.19-1.6-.57s-.59-.88-.59-1.51c0-.74,.25-1.29,.74-1.67s1.23-.56,2.21-.56h1.51v-.11c0-.5-.16-.88-.49-1.15s-.78-.41-1.37-.41c-.38,0-.74,.04-1.1,.13s-.7,.22-1.03,.4v-1c.39-.15,.78-.27,1.15-.34s.73-.11,1.08-.11c.95,0,1.66,.25,2.13,.74s.7,1.24,.7,2.24Zm-2.15,.45c-.87,0-1.47,.1-1.81,.3s-.5,.54-.5,1.02c0,.38,.13,.69,.38,.91s.59,.34,1.03,.34c.6,0,1.08-.21,1.44-.64s.54-.99,.54-1.69v-.24h-1.07Z"/><path class="cls-16" d="M118.78,50.92v3.96h-1.08v-3.93c0-.62-.12-1.09-.36-1.39s-.61-.46-1.09-.46c-.58,0-1.04,.19-1.38,.56s-.5,.88-.5,1.52v3.71h-1.08v-6.56h1.08v1.02c.26-.39,.56-.69,.91-.88s.75-.29,1.21-.29c.75,0,1.32,.23,1.71,.7s.58,1.15,.58,2.06Z"/><path class="cls-16" d="M126.55,51.33v.53h-4.96c.05,.74,.27,1.31,.67,1.7s.96,.58,1.67,.58c.41,0,.82-.05,1.2-.15s.77-.25,1.16-.46v1.02c-.39,.16-.78,.29-1.19,.38s-.82,.13-1.24,.13c-1.05,0-1.88-.3-2.49-.91s-.92-1.43-.92-2.47,.29-1.93,.87-2.56,1.36-.95,2.35-.95c.88,0,1.58,.28,2.09,.85s.77,1.34,.77,2.32Zm-1.08-.32c0-.59-.17-1.06-.5-1.41s-.75-.53-1.28-.53c-.6,0-1.08,.17-1.44,.51s-.57,.82-.62,1.44h3.84Z"/></g><g><line class="cls-3" x1="180.66" x2="180.66" y1="59.38" y2="113.48"/><polygon class="cls-8" points="176.96 110.67 180.66 112.25 184.36 110.67 180.66 119.45 176.96 110.67"/></g><g><path class="cls-16" d="M147.24,46.13h5.03v1h-3.84v2.58h3.47v1h-3.47v4.18h-1.18v-8.75Z"/><path class="cls-16" d="M156.21,48.16c.94,0,1.67,.3,2.21,.91s.8,1.45,.8,2.53-.27,1.92-.8,2.53-1.27,.92-2.21,.92-1.68-.31-2.21-.92-.8-1.45-.8-2.53,.27-1.92,.8-2.53,1.27-.91,2.21-.91Zm0,.91c-.58,0-1.04,.23-1.37,.68s-.5,1.07-.5,1.85,.17,1.4,.5,1.85,.79,.68,1.37,.68,1.03-.23,1.37-.68,.5-1.07,.5-1.85-.17-1.39-.5-1.85-.79-.68-1.37-.68Z"/><path class="cls-16" d="M165.74,48.57v1.01c-.3-.17-.61-.29-.92-.38s-.62-.13-.93-.13c-.7,0-1.24,.22-1.63,.67s-.58,1.07-.58,1.87,.19,1.42,.58,1.87,.93,.67,1.63,.67c.31,0,.62-.04,.93-.13s.61-.21,.92-.38v1c-.3,.14-.61,.25-.93,.32s-.67,.11-1.03,.11c-.99,0-1.77-.31-2.36-.93s-.87-1.46-.87-2.51,.29-1.91,.88-2.53,1.39-.92,2.42-.92c.33,0,.66,.03,.97,.1s.62,.17,.92,.31Z"/><path class="cls-16" d="M172.74,51.14v3.74h-1.08v-1c-.25,.4-.55,.69-.92,.88s-.82,.28-1.35,.28c-.67,0-1.21-.19-1.6-.57s-.59-.88-.59-1.51c0-.74,.25-1.29,.74-1.67s1.23-.56,2.21-.56h1.51v-.11c0-.5-.16-.88-.49-1.15s-.78-.41-1.37-.41c-.38,0-.74,.04-1.1,.13s-.7,.22-1.03,.4v-1c.39-.15,.78-.27,1.15-.34s.73-.11,1.08-.11c.95,0,1.66,.25,2.13,.74s.7,1.24,.7,2.24Zm-2.15,.45c-.87,0-1.47,.1-1.81,.3s-.5,.54-.5,1.02c0,.38,.13,.69,.38,.91s.59,.34,1.03,.34c.6,0,1.08-.21,1.44-.64s.54-.99,.54-1.69v-.24h-1.07Z"/><path class="cls-16" d="M174.96,45.76h1.08v9.12h-1.08v-9.12Z"/><path class="cls-16" d="M183.16,53.9v3.48h-1.08v-9.06h1.08v1c.23-.39,.51-.68,.86-.87s.76-.28,1.24-.28c.8,0,1.44,.32,1.94,.95s.75,1.46,.75,2.5-.25,1.86-.75,2.5-1.15,.95-1.94,.95c-.48,0-.89-.09-1.24-.28s-.63-.48-.86-.87Zm3.67-2.29c0-.79-.16-1.42-.49-1.87s-.77-.68-1.34-.68-1.02,.23-1.34,.68-.49,1.07-.49,1.87,.16,1.42,.49,1.87,.77,.68,1.34,.68,1.02-.23,1.34-.68,.49-1.07,.49-1.87Z"/><path class="cls-16" d="M192.27,48.16c.94,0,1.67,.3,2.21,.91s.8,1.45,.8,2.53-.27,1.92-.8,2.53-1.27,.92-2.21,.92-1.68-.31-2.21-.92-.8-1.45-.8-2.53,.27-1.92,.8-2.53,1.27-.91,2.21-.91Zm0,.91c-.58,0-1.04,.23-1.37,.68s-.5,1.07-.5,1.85,.17,1.4,.5,1.85,.79,.68,1.37,.68,1.03-.23,1.37-.68,.5-1.07,.5-1.85-.17-1.39-.5-1.85-.79-.68-1.37-.68Z"/><path class="cls-16" d="M197.07,45.76h1.08v1.37h-1.08v-1.37Zm0,2.55h1.08v6.56h-1.08v-6.56Z"/><path class="cls-16" d="M205.86,50.92v3.96h-1.08v-3.93c0-.62-.12-1.09-.36-1.39s-.61-.46-1.09-.46c-.58,0-1.04,.19-1.38,.56s-.5,.88-.5,1.52v3.71h-1.08v-6.56h1.08v1.02c.26-.39,.56-.69,.91-.88s.75-.29,1.21-.29c.75,0,1.32,.23,1.71,.7s.58,1.15,.58,2.06Z"/><path class="cls-16" d="M209.08,46.45v1.86h2.22v.84h-2.22v3.56c0,.54,.07,.88,.22,1.03s.44,.23,.89,.23h1.11v.9h-1.11c-.83,0-1.41-.16-1.72-.47s-.47-.88-.47-1.7v-3.56h-.79v-.84h.79v-1.86h1.08Z"/></g><g><line class="cls-3" x1="231.23" x2="231.23" y1="23.85" y2="77.95"/><polygon class="cls-8" points="227.53 75.14 231.23 76.71 234.93 75.14 231.23 83.92 227.53 75.14"/></g><g><path class="cls-16" d="M187.49,15l-3.34-8.75h1.24l2.77,7.37,2.78-7.37h1.23l-3.33,8.75h-1.34Z"/><path class="cls-16" d="M193.13,5.88h1.08v1.37h-1.08v-1.37Zm0,2.55h1.08v6.56h-1.08v-6.56Z"/><path class="cls-16" d="M200.27,9.44c-.12-.07-.25-.12-.4-.16s-.3-.05-.47-.05c-.61,0-1.08,.2-1.4,.59s-.49,.97-.49,1.71v3.46h-1.08v-6.56h1.08v1.02c.23-.4,.52-.69,.88-.89s.8-.29,1.32-.29c.07,0,.16,0,.25,.01s.19,.02,.3,.04v1.11Z"/><path class="cls-16" d="M202.46,6.57v1.86h2.22v.84h-2.22v3.56c0,.54,.07,.88,.22,1.03s.44,.23,.89,.23h1.11v.9h-1.11c-.83,0-1.41-.16-1.72-.47s-.47-.88-.47-1.7v-3.56h-.79v-.84h.79v-1.86h1.08Z"/><path class="cls-16" d="M205.99,12.41v-3.97h1.08v3.93c0,.62,.12,1.09,.36,1.4s.61,.47,1.09,.47c.58,0,1.04-.19,1.38-.56s.51-.88,.51-1.52v-3.72h1.08v6.56h-1.08v-1.01c-.26,.4-.57,.69-.91,.89s-.75,.29-1.2,.29c-.75,0-1.33-.23-1.72-.7s-.59-1.15-.59-2.06Z"/><path class="cls-16" d="M218.84,11.25v3.74h-1.08v-1c-.25,.4-.55,.69-.92,.88s-.82,.28-1.35,.28c-.67,0-1.21-.19-1.6-.57s-.59-.88-.59-1.51c0-.74,.25-1.29,.74-1.67s1.23-.56,2.21-.56h1.51v-.11c0-.5-.16-.88-.49-1.15s-.78-.41-1.37-.41c-.38,0-.74,.04-1.1,.13s-.7,.22-1.03,.4v-1c.39-.15,.78-.27,1.15-.34s.73-.11,1.08-.11c.95,0,1.66,.25,2.13,.74s.7,1.24,.7,2.24Zm-2.15,.45c-.87,0-1.47,.1-1.81,.3s-.5,.54-.5,1.02c0,.38,.13,.69,.38,.91s.59,.34,1.03,.34c.6,0,1.08-.21,1.44-.64s.54-.99,.54-1.69v-.24h-1.07Z"/><path class="cls-16" d="M221.06,5.88h1.08V15h-1.08V5.88Z"/><path class="cls-16" d="M228.21,5.88h1.08v1.37h-1.08v-1.37Zm0,2.55h1.08v6.56h-1.08v-6.56Z"/><path class="cls-16" d="M236.65,9.69c.27-.48,.59-.84,.97-1.07s.82-.35,1.32-.35c.68,0,1.21,.24,1.58,.72s.56,1.16,.56,2.04v3.96h-1.08v-3.93c0-.63-.11-1.1-.33-1.4s-.56-.46-1.02-.46c-.56,0-1,.19-1.32,.56s-.49,.88-.49,1.52v3.71h-1.08v-3.93c0-.63-.11-1.1-.33-1.4s-.57-.45-1.03-.45c-.55,0-.99,.19-1.31,.56s-.49,.88-.49,1.51v3.71h-1.08v-6.56h1.08v1.02c.25-.4,.54-.7,.88-.89s.75-.29,1.22-.29,.88,.12,1.22,.36,.58,.59,.74,1.05Z"/><path class="cls-16" d="M248.37,11.25v3.74h-1.08v-1c-.25,.4-.55,.69-.92,.88s-.82,.28-1.35,.28c-.67,0-1.21-.19-1.6-.57s-.59-.88-.59-1.51c0-.74,.25-1.29,.74-1.67s1.23-.56,2.21-.56h1.51v-.11c0-.5-.16-.88-.49-1.15s-.78-.41-1.37-.41c-.38,0-.74,.04-1.1,.13s-.7,.22-1.03,.4v-1c.39-.15,.78-.27,1.15-.34s.73-.11,1.08-.11c.95,0,1.66,.25,2.13,.74s.7,1.24,.7,2.24Zm-2.15,.45c-.87,0-1.47,.1-1.81,.3s-.5,.54-.5,1.02c0,.38,.13,.69,.38,.91s.59,.34,1.03,.34c.6,0,1.08-.21,1.44-.64s.54-.99,.54-1.69v-.24h-1.07Z"/><path class="cls-16" d="M255.98,14.18c0,1.12-.25,1.95-.74,2.49s-1.26,.82-2.28,.82c-.38,0-.74-.03-1.07-.08s-.66-.14-.98-.26v-1.05c.32,.17,.63,.3,.94,.38s.62,.12,.94,.12c.71,0,1.24-.18,1.59-.55s.53-.93,.53-1.67v-.53c-.22,.39-.51,.68-.86,.87s-.76,.29-1.25,.29c-.8,0-1.45-.31-1.95-.92s-.74-1.43-.74-2.44,.25-1.83,.74-2.44,1.14-.92,1.95-.92c.48,0,.9,.1,1.25,.29s.63,.48,.86,.87v-1h1.08v5.75Zm-1.08-2.54c0-.78-.16-1.39-.48-1.82s-.77-.64-1.36-.64-1.03,.21-1.35,.64-.48,1.04-.48,1.82,.16,1.38,.48,1.81,.77,.64,1.35,.64,1.03-.21,1.36-.64,.48-1.03,.48-1.81Z"/><path class="cls-16" d="M263.82,11.45v.53h-4.96c.05,.74,.27,1.31,.67,1.7s.96,.58,1.67,.58c.41,0,.82-.05,1.2-.15s.77-.25,1.16-.46v1.02c-.39,.16-.78,.29-1.19,.38s-.82,.13-1.24,.13c-1.05,0-1.88-.3-2.49-.91s-.92-1.43-.92-2.47,.29-1.93,.87-2.56,1.36-.95,2.35-.95c.88,0,1.58,.28,2.09,.85s.77,1.34,.77,2.32Zm-1.08-.32c0-.59-.17-1.06-.5-1.41s-.75-.53-1.28-.53c-.6,0-1.08,.17-1.44,.51s-.57,.82-.62,1.44h3.84Z"/><path class="cls-16" d="M270.44,14.01v3.48h-1.08V8.44h1.08v1c.23-.39,.51-.68,.86-.87s.76-.28,1.24-.28c.8,0,1.44,.32,1.94,.95s.75,1.46,.75,2.5-.25,1.86-.75,2.5-1.15,.95-1.94,.95c-.48,0-.89-.09-1.24-.28s-.63-.48-.86-.87Zm3.67-2.29c0-.79-.16-1.42-.49-1.87s-.77-.68-1.34-.68-1.02,.23-1.34,.68-.49,1.07-.49,1.87,.16,1.42,.49,1.87,.77,.68,1.34,.68,1.02-.23,1.34-.68,.49-1.07,.49-1.87Z"/><path class="cls-16" d="M277.02,5.88h1.08V15h-1.08V5.88Z"/><path class="cls-16" d="M285.49,11.25v3.74h-1.08v-1c-.25,.4-.55,.69-.92,.88s-.82,.28-1.35,.28c-.67,0-1.21-.19-1.6-.57s-.59-.88-.59-1.51c0-.74,.25-1.29,.74-1.67s1.23-.56,2.21-.56h1.51v-.11c0-.5-.16-.88-.49-1.15s-.78-.41-1.37-.41c-.38,0-.74,.04-1.1,.13s-.7,.22-1.03,.4v-1c.39-.15,.78-.27,1.15-.34s.73-.11,1.08-.11c.95,0,1.66,.25,2.13,.74s.7,1.24,.7,2.24Zm-2.15,.45c-.87,0-1.47,.1-1.81,.3s-.5,.54-.5,1.02c0,.38,.13,.69,.38,.91s.59,.34,1.03,.34c.6,0,1.08-.21,1.44-.64s.54-.99,.54-1.69v-.24h-1.07Z"/><path class="cls-16" d="M293.16,11.04v3.96h-1.08v-3.93c0-.62-.12-1.09-.36-1.39s-.61-.46-1.09-.46c-.58,0-1.04,.19-1.38,.56s-.5,.88-.5,1.52v3.71h-1.08v-6.56h1.08v1.02c.26-.39,.56-.69,.91-.88s.75-.29,1.21-.29c.75,0,1.32,.23,1.71,.7s.58,1.15,.58,2.06Z"/><path class="cls-16" d="M300.92,11.45v.53h-4.96c.05,.74,.27,1.31,.67,1.7s.96,.58,1.67,.58c.41,0,.82-.05,1.2-.15s.77-.25,1.16-.46v1.02c-.39,.16-.78,.29-1.19,.38s-.82,.13-1.24,.13c-1.05,0-1.88-.3-2.49-.91s-.92-1.43-.92-2.47,.29-1.93,.87-2.56,1.36-.95,2.35-.95c.88,0,1.58,.28,2.09,.85s.77,1.34,.77,2.32Zm-1.08-.32c0-.59-.17-1.06-.5-1.41s-.75-.53-1.28-.53c-.6,0-1.08,.17-1.44,.51s-.57,.82-.62,1.44h3.84Z"/></g><g><path class="cls-16" d="M348.19,116.36c.57,.12,1.01,.37,1.33,.76s.48,.86,.48,1.42c0,.86-.3,1.53-.89,2s-1.44,.71-2.53,.71c-.37,0-.75-.04-1.13-.11s-.79-.18-1.2-.33v-1.14c.33,.19,.69,.34,1.08,.43s.8,.15,1.22,.15c.74,0,1.31-.15,1.7-.44s.58-.72,.58-1.28c0-.52-.18-.92-.54-1.21s-.86-.44-1.51-.44h-1.02v-.97h1.07c.58,0,1.03-.12,1.34-.35s.46-.57,.46-1-.16-.79-.48-1.03-.77-.36-1.37-.36c-.32,0-.67,.04-1.04,.11s-.78,.18-1.22,.33v-1.05c.45-.12,.87-.22,1.26-.28s.76-.09,1.11-.09c.9,0,1.61,.2,2.13,.61s.79,.96,.79,1.66c0,.48-.14,.89-.42,1.23s-.67,.57-1.18,.69Z"/><path class="cls-16" d="M351.54,117.31h3.16v.96h-3.16v-.96Z"/><path class="cls-16" d="M356.46,112.33h2.43c1.7,0,2.94,.35,3.73,1.06s1.19,1.81,1.19,3.31-.4,2.62-1.2,3.32-2.04,1.06-3.73,1.06h-2.43v-8.75Zm1.18,.97v6.8h1.43c1.21,0,2.09-.27,2.65-.82s.84-1.41,.84-2.59-.28-2.03-.84-2.58-1.44-.82-2.65-.82h-1.43Z"/><path class="cls-16" d="M372.01,114.36c.94,0,1.67,.3,2.21,.91s.8,1.45,.8,2.53-.27,1.92-.8,2.53-1.27,.92-2.21,.92-1.68-.31-2.21-.92-.8-1.45-.8-2.53,.27-1.92,.8-2.53,1.27-.91,2.21-.91Zm0,.91c-.58,0-1.04,.23-1.37,.68s-.5,1.07-.5,1.85,.17,1.4,.5,1.85,.79,.68,1.37,.68,1.03-.23,1.37-.68,.5-1.07,.5-1.85-.17-1.39-.5-1.85-.79-.68-1.37-.68Z"/><path class="cls-16" d="M377.85,115.51c.23-.39,.51-.68,.86-.87s.76-.28,1.24-.28c.8,0,1.44,.32,1.94,.95s.75,1.46,.75,2.5-.25,1.86-.75,2.5-1.15,.95-1.94,.95c-.48,0-.89-.09-1.24-.28s-.63-.48-.86-.87v.98h-1.08v-9.12h1.08v3.55Zm3.67,2.29c0-.79-.16-1.42-.49-1.87s-.77-.68-1.34-.68-1.02,.23-1.34,.68-.49,1.07-.49,1.87,.16,1.42,.49,1.87,.77,.68,1.34,.68,1.02-.23,1.34-.68,.49-1.07,.49-1.87Z"/><path class="cls-16" d="M384.43,114.52h1.08v6.68c0,.84-.16,1.44-.48,1.82s-.83,.56-1.54,.56h-.41v-.91h.29c.41,0,.69-.09,.84-.28s.22-.58,.22-1.18v-6.68Zm0-2.55h1.08v1.37h-1.08v-1.37Z"/><path class="cls-16" d="M393.38,117.53v.53h-4.96c.05,.74,.27,1.31,.67,1.7s.96,.58,1.67,.58c.41,0,.82-.05,1.2-.15s.77-.25,1.16-.46v1.02c-.39,.16-.78,.29-1.19,.38s-.82,.13-1.24,.13c-1.05,0-1.88-.3-2.49-.91s-.92-1.43-.92-2.47,.29-1.93,.87-2.56,1.36-.95,2.35-.95c.88,0,1.58,.28,2.09,.85s.77,1.34,.77,2.32Zm-1.08-.32c0-.59-.17-1.06-.5-1.41s-.75-.53-1.28-.53c-.6,0-1.08,.17-1.44,.51s-.57,.82-.62,1.44h3.84Z"/><path class="cls-16" d="M399.87,114.77v1.01c-.3-.17-.61-.29-.92-.38s-.62-.13-.93-.13c-.7,0-1.24,.22-1.63,.67s-.58,1.07-.58,1.87,.19,1.42,.58,1.87,.93,.67,1.63,.67c.31,0,.62-.04,.93-.13s.61-.21,.92-.38v1c-.3,.14-.61,.25-.93,.32s-.67,.11-1.03,.11c-.99,0-1.77-.31-2.36-.93s-.87-1.46-.87-2.51,.29-1.91,.88-2.53,1.39-.92,2.42-.92c.33,0,.66,.03,.97,.1s.62,.17,.92,.31Z"/><path class="cls-16" d="M402.81,112.65v1.86h2.22v.84h-2.22v3.56c0,.54,.07,.88,.22,1.03s.44,.23,.89,.23h1.11v.9h-1.11c-.83,0-1.41-.16-1.72-.47s-.47-.88-.47-1.7v-3.56h-.79v-.84h.79v-1.86h1.08Z"/></g><g><path class="cls-16" d="M180.27,196.19l4.54-2.17,.43,.9-3.47,1.66,1.11,2.33,3.13-1.49,.43,.9-3.13,1.49,1.8,3.77-1.07,.51-3.77-7.9Z"/><path class="cls-16" d="M189.24,194.16c.85-.4,1.64-.45,2.39-.13s1.35,.97,1.82,1.94c.46,.97,.58,1.85,.36,2.63s-.75,1.38-1.6,1.78c-.85,.41-1.65,.45-2.39,.12-.75-.32-1.35-.97-1.81-1.94-.46-.97-.59-1.85-.37-2.63,.22-.78,.75-1.37,1.6-1.78Zm.39,.83c-.52,.25-.84,.65-.95,1.2-.11,.55,0,1.18,.34,1.89,.34,.71,.75,1.19,1.25,1.46,.5,.26,1.01,.27,1.53,.02,.52-.25,.83-.65,.94-1.2,.11-.55,0-1.18-.34-1.89-.33-.7-.75-1.19-1.25-1.45-.5-.27-1.01-.28-1.53-.03Z"/><path class="cls-16" d="M198.01,190.42l.43,.91c-.35-.02-.68,0-.99,.05-.31,.06-.61,.15-.89,.29-.63,.3-1.03,.73-1.18,1.3-.16,.57-.06,1.21,.28,1.93,.35,.72,.79,1.2,1.33,1.43,.54,.23,1.12,.2,1.76-.1,.28-.13,.54-.31,.78-.51s.46-.45,.67-.74l.43,.9c-.21,.26-.45,.49-.71,.69-.26,.2-.55,.38-.88,.54-.89,.43-1.73,.48-2.53,.17-.79-.31-1.42-.94-1.87-1.89-.46-.97-.56-1.85-.29-2.66s.86-1.43,1.78-1.87c.3-.14,.61-.25,.92-.33,.32-.08,.64-.11,.96-.12Z"/><path class="cls-16" d="M205.44,189.72l1.61,3.38-.97,.46-.43-.9c-.05,.46-.2,.86-.45,1.19-.25,.33-.61,.61-1.09,.84-.61,.29-1.17,.35-1.69,.18-.52-.17-.92-.54-1.19-1.11-.32-.67-.34-1.27-.05-1.83,.28-.55,.87-1.04,1.75-1.46l1.36-.65-.05-.1c-.21-.45-.53-.72-.94-.83s-.88-.03-1.42,.22c-.34,.16-.65,.36-.93,.59-.28,.23-.53,.5-.75,.81l-.43-.9c.29-.31,.59-.58,.89-.8s.61-.42,.93-.57c.86-.41,1.6-.49,2.24-.25,.63,.24,1.17,.81,1.6,1.72Zm-1.75,1.33c-.79,.38-1.29,.73-1.51,1.05-.22,.33-.22,.7-.02,1.14,.17,.35,.41,.56,.73,.66,.32,.09,.68,.05,1.07-.14,.54-.26,.88-.66,1.03-1.19,.14-.54,.06-1.12-.24-1.76l-.1-.22-.97,.46Z"/><path class="cls-16" d="M205.13,183.92l.97-.46,3.93,8.23-.97,.46-3.93-8.23Z"/><path class="cls-16" d="M184.77,209.59l.97-.46,3.93,8.23-.97,.46-3.93-8.23Z"/><path class="cls-16" d="M195.24,210.76l.23,.48-4.47,2.14c.36,.65,.81,1.06,1.34,1.24,.53,.18,1.12,.11,1.76-.19,.37-.18,.71-.4,1.02-.66,.31-.26,.59-.56,.85-.91l.44,.92c-.28,.31-.58,.6-.91,.85-.33,.25-.68,.47-1.06,.65-.95,.45-1.82,.53-2.64,.25-.81-.29-1.45-.9-1.89-1.84-.46-.97-.57-1.86-.32-2.68s.82-1.44,1.71-1.87c.8-.38,1.55-.42,2.26-.13,.71,.29,1.27,.88,1.69,1.76Zm-1.11,.18c-.26-.53-.61-.88-1.06-1.06-.44-.18-.9-.15-1.38,.08-.54,.26-.9,.62-1.08,1.08-.18,.46-.16,.98,.05,1.56l3.47-1.66Z"/><path class="cls-16" d="M201.59,207.28l1.71,3.57-.97,.46-1.69-3.54c-.27-.56-.58-.93-.93-1.1s-.75-.16-1.18,.05c-.53,.25-.86,.62-1,1.1-.14,.48-.08,1.01,.2,1.59l1.6,3.35-.98,.47-2.83-5.92,.98-.47,.44,.92c.06-.47,.21-.86,.44-1.19,.23-.33,.55-.59,.97-.79,.68-.32,1.3-.36,1.85-.1,.55,.25,1.02,.79,1.41,1.61Z"/><path class="cls-16" d="M209.75,206.87c.48,1.01,.62,1.87,.4,2.57s-.78,1.28-1.71,1.72c-.34,.16-.68,.29-1,.38s-.66,.16-1,.19l-.45-.95c.36,.02,.7,0,1.01-.06,.31-.06,.61-.16,.9-.29,.64-.3,1.04-.7,1.19-1.18s.08-1.06-.24-1.74l-.23-.48c-.03,.45-.17,.83-.4,1.15s-.57,.59-1,.8c-.73,.35-1.44,.35-2.15,0-.71-.34-1.28-.97-1.72-1.88-.44-.92-.57-1.76-.39-2.52,.18-.77,.63-1.32,1.36-1.67,.44-.21,.85-.3,1.25-.28,.4,.02,.78,.16,1.14,.41l-.43-.9,.97-.46,2.48,5.19Zm-2.07-1.83c-.34-.71-.74-1.18-1.22-1.43s-.98-.25-1.5,0c-.52,.25-.83,.64-.94,1.16-.11,.53,0,1.14,.35,1.85,.33,.7,.74,1.18,1.22,1.43,.48,.25,.98,.25,1.5,0,.53-.25,.84-.64,.95-1.17,.11-.53,0-1.14-.34-1.84Z"/><path class="cls-16" d="M209.44,198.58l.8,1.68,2-.96,.36,.76-2,.96,1.53,3.21c.23,.48,.45,.76,.64,.84,.2,.07,.5,.01,.9-.18l1-.48,.39,.81-1,.48c-.75,.36-1.34,.47-1.75,.32-.42-.14-.81-.59-1.16-1.33l-1.53-3.21-.71,.34-.36-.76,.71-.34-.8-1.68,.98-.47Z"/><path class="cls-16" d="M219.57,198.69l1.71,3.57-.97,.46-1.69-3.54c-.27-.56-.58-.93-.93-1.1-.35-.17-.75-.16-1.18,.05-.53,.25-.86,.62-1,1.1-.14,.48-.08,1.01,.2,1.59l1.6,3.35-.98,.47-3.93-8.23,.98-.47,1.54,3.23c.06-.47,.21-.86,.44-1.19,.23-.33,.55-.59,.97-.79,.68-.32,1.29-.36,1.85-.11,.55,.25,1.02,.79,1.41,1.61Z"/></g></svg>