<?xml version="1.0" encoding="UTF-8" standalone="no"?><svg xmlns="http://www.w3.org/2000/svg" id="Layer_1" viewBox="0 0 635 240"><style>text[font-family="'DejaVuSans'"] {font-family: 'DejaVu Sans', Ariel, Helvetica, sans-serif; font-style: normal; font-weight: normal;}
</style><defs><style>.cls-1{stroke:#818285;}.cls-1,.cls-2,.cls-3,.cls-4,.cls-5,.cls-6,.cls-7,.cls-8,.cls-9,.cls-10,.cls-11,.cls-12{fill:none;}.cls-1,.cls-13,.cls-3,.cls-4,.cls-5,.cls-6,.cls-7,.cls-9,.cls-12{stroke-miterlimit:10;}.cls-14{fill:#019547;}.cls-2,.cls-3,.cls-15,.cls-8,.cls-10,.cls-16{stroke-width:2px;}.cls-2,.cls-16{stroke:#764d2a;}.cls-17{isolation:isolate;opacity:.6;}.cls-17,.cls-15{fill:#f2f2f2;}.cls-13{fill:#fff;stroke:#fff;}.cls-13,.cls-4,.cls-6{stroke-width:3px;}.cls-18{fill:#2a3c90;}.cls-19,.cls-16{fill:#764d2a;}.cls-3,.cls-15,.cls-6,.cls-8{stroke:#2075bc;}.cls-20{fill:#6d6e71;}.cls-4,.cls-10{stroke:#2a3c90;}.cls-5{stroke:#939598;}.cls-7{stroke:#424143;}.cls-9{stroke:#a8aaad;}.cls-21{opacity:.48;}.cls-11{stroke:#f89521;}.cls-12{stroke:#595a5c;}.cls-22{opacity:.23;}</style></defs><g><path class="cls-20" d="M69.23,203.5h5.34c1.96,0,3.44,.44,4.45,1.33s1.51,2.19,1.51,3.9-.5,3.03-1.51,3.91-2.49,1.32-4.45,1.32h-2.98v7.03h-2.37v-17.5Zm2.37,1.95v6.57h2.98c1.1,0,1.95-.29,2.55-.86s.9-1.38,.9-2.44-.3-1.86-.9-2.43-1.45-.86-2.55-.86h-2.98Z"/><path class="cls-20" d="M83.08,202.76h2.16v2.73h-2.16v-2.73Zm0,5.11h2.16v13.12h-2.16v-13.12Z"/><path class="cls-20" d="M100.66,213.08v7.92h-2.16v-7.85c0-1.24-.24-2.17-.73-2.79s-1.21-.93-2.18-.93c-1.16,0-2.08,.37-2.75,1.11s-1.01,1.75-1.01,3.04v7.42h-2.17v-13.12h2.17v2.04c.52-.79,1.12-1.38,1.82-1.77s1.51-.59,2.42-.59c1.51,0,2.65,.47,3.42,1.4s1.16,2.31,1.16,4.12Z"/><path class="cls-20" d="M115.87,213.08v7.92h-2.16v-7.85c0-1.24-.24-2.17-.73-2.79s-1.21-.93-2.18-.93c-1.16,0-2.08,.37-2.75,1.11s-1.01,1.75-1.01,3.04v7.42h-2.17v-18.23h2.17v7.15c.52-.79,1.12-1.38,1.82-1.77s1.51-.59,2.42-.59c1.51,0,2.65,.47,3.42,1.4s1.16,2.31,1.16,4.12Z"/><path class="cls-20" d="M125.26,207.56c1.88,0,3.35,.61,4.42,1.83s1.61,2.91,1.61,5.06-.54,3.83-1.61,5.06-2.54,1.83-4.42,1.83-3.36-.61-4.42-1.83-1.6-2.91-1.6-5.06,.53-3.84,1.6-5.06,2.54-1.83,4.42-1.83Zm0,1.83c-1.16,0-2.07,.45-2.74,1.35s-1.01,2.14-1.01,3.71,.33,2.81,1,3.71,1.58,1.35,2.75,1.35,2.06-.45,2.73-1.36,1.01-2.14,1.01-3.7-.34-2.79-1.01-3.7-1.58-1.37-2.73-1.37Z"/><path class="cls-20" d="M134.86,202.76h2.16v18.23h-2.16v-18.23Z"/><path class="cls-20" d="M152.75,213.9v1.05h-9.91c.09,1.48,.54,2.62,1.34,3.39s1.92,1.17,3.35,1.17c.83,0,1.63-.1,2.41-.3s1.55-.51,2.31-.91v2.04c-.77,.33-1.57,.58-2.38,.75s-1.64,.26-2.47,.26c-2.09,0-3.75-.61-4.97-1.83s-1.83-2.87-1.83-4.95,.58-3.85,1.74-5.12,2.72-1.89,4.69-1.89c1.77,0,3.16,.57,4.19,1.71s1.54,2.68,1.54,4.63Zm-2.16-.63c-.02-1.18-.35-2.12-.99-2.82s-1.5-1.05-2.56-1.05c-1.2,0-2.17,.34-2.89,1.02s-1.14,1.64-1.25,2.87h7.69Z"/></g><g id="g1617"><polyline class="cls-8" id="polyline1319" points="5.58 153.55 5.58 108.55 50.08 91.25 50.08 136.35"/><line class="cls-8" id="line1321" x1="50.08" x2="92.78" y1="136.25" y2="159.95"/><path class="cls-10" d="M73.88,130.05c0,1.9-1.6,3.5-3.5,3.5s-3.5-1.6-3.5-3.5,1.6-3.5,3.5-3.5,3.5,1.5,3.5,3.5Z" id="path1323"/><g id="g1407"><path class="cls-14" d="M209.28,88.95c0,7.7-8,13.9-17.8,13.9s-17.8-6.2-17.8-13.9,8-13.9,17.8-13.9,17.8,6.2,17.8,13.9Z" id="path1325"/><path class="cls-14" d="M207.28,80.65c0,8-7.1,14.6-15.9,14.6s-15.9-6.5-15.9-14.6,7.1-14.6,15.9-14.6c8.8,.1,15.9,6.6,15.9,14.6Z" id="path1327"/><path class="cls-14" d="M212.38,76.25c0,6.4-6.5,11.7-14.6,11.7s-14.6-5.2-14.6-11.7,6.5-11.7,14.6-11.7c8.1,0,14.6,5.2,14.6,11.7Z" id="path1329"/><path class="cls-14" d="M218.28,80.65c0,6.9-4.9,12.4-11,12.4s-11-5.6-11-12.4,4.9-12.4,11-12.4c6.1,0,11,5.6,11,12.4Z" id="path1331"/><path class="cls-14" d="M220.78,88.95c0,6.2-8.4,11.3-18.8,11.3s-18.8-5.1-18.8-11.3,8.4-11.3,18.8-11.3,18.8,5,18.8,11.3Z" id="path1333"/><path class="cls-14" d="M199.28,95.95c0,6.4-5,11.6-11.2,11.6s-11.2-5.2-11.2-11.6,5-11.6,11.2-11.6,11.2,5.2,11.2,11.6Z" id="path1335"/><path class="cls-14" d="M219.78,93.15c0,6.2-5.1,11.3-11.4,11.3s-11.4-5.1-11.4-11.3,5.1-11.3,11.4-11.3c6.3,0,11.4,5,11.4,11.3Z" id="path1337"/><g id="g1403"><path class="cls-2" d="M194.28,109.05c0,15.4-3.5,27.8-7.7,27.8" id="path1339"/><rect class="cls-16" height="27.8" id="rect1341" width="6.5" x="194.28" y="109.05"/><path class="cls-2" d="M200.08,108.55c0,15.4,3.5,27.8,7.7,27.8" id="path1343"/><rect class="cls-19" height="4.6" id="rect1345" width="13.1" x="190.88" y="132.25"/><rect class="cls-19" height="4.6" id="rect1347" width="11" x="192.18" y="128.45"/><rect class="cls-19" height="1" id="rect1349" width="16.9" x="189.08" y="135.45"/><rect class="cls-19" height="1" id="rect1351" width="15.8" x="189.28" y="134.45"/><rect class="cls-19" height="1" id="rect1353" width="12.3" x="190.18" y="133.75"/><rect class="cls-19" height="1.8" id="rect1355" width="1.3" x="203.18" y="133.15"/><rect class="cls-19" height="3.1" id="rect1357" width=".5" x="191.68" y="129.95"/><g id="g1365"><rect class="cls-19" height="1.6" id="rect1359" width=".8" x="191.38" y="131.55"/><g id="g1363"><path class="cls-19" d="M192.18,131.65h-.8l1.5,1.5v-1.6l-1.5,1.5h.8l-1.5-1.5v1.6c0,.8,.7,1.5,1.5,1.5s1.5-.7,1.5-1.5v-1.6c0-.8-.7-1.5-1.5-1.5h-.8c-.8,0-1.5,.7-1.5,1.5v1.6c0,.8,.7,1.5,1.5,1.5h.8c.8,0,1.5-.7,1.5-1.5-.1-.9-.7-1.5-1.5-1.5Z" id="path1361"/></g></g><g id="g1371"><g id="g1369"><path class="cls-19" d="M191.98,123.45c-.1,2-1.1,3.8-.2,5.8,.6,1.3,2.3,.7,2.7-.4,.1-.3,.4-.7,.5-1,.4-1.9-2.5-2.7-2.9-.8,0-.2-.1,.3-.2,.3-.1,.2-.2,.5-.3,.7,.9-.1,1.8-.2,2.7-.4-.2-.5,.1-1.4,.2-1.9,.2-.8,.4-1.6,.4-2.4,.2-1.8-2.8-1.8-2.9,.1h0Z" id="path1367"/></g></g><g id="g1377"><g id="g1375"><path class="cls-19" d="M199.98,127.85c-.1-.1,.1,.2,0,0,.1,.2,.1,.4,.2,.5,.1,.3,.1,.6,.2,1,.2,.8,1.1,1.3,1.8,1,.8-.2,1.2-1.1,1-1.8-.1-.4-.2-.8-.3-1.3-.2-.6-.5-1.1-.9-1.6-.5-.6-1.6-.5-2.1,0-.5,.7-.4,1.6,.1,2.2h0Z" id="path1373"/></g></g><g id="g1383"><g id="g1381"><path class="cls-19" d="M190.98,133.55c-.2,.1,0,0-.1,0h-.4c-.8,0-1.5,.7-1.5,1.5s.7,1.5,1.5,1.5c.4,0,.9,0,1.3-.1,.8-.2,1.3-1.1,1-1.8-.1-.8-1-1.3-1.8-1.1h0Z" id="path1379"/></g></g><g id="g1389"><g id="g1387"><path class="cls-19" d="M188.38,138.15c5.8,0,11.6,.1,17.5,.1,1.9,0,1.9-3,0-3-5.8,0-11.6-.1-17.5-.1-2,0-2,3,0,3h0Z" id="path1385"/></g></g><g id="g1395"><g id="g1393"><path class="cls-19" d="M202.28,134.85c.3,.6,.7,1,1,1.6,.4,.7,1.4,.9,2.1,.5,.7-.4,.9-1.3,.5-2.1-.3-.6-.7-1-1-1.6-.4-.7-1.4-.9-2.1-.5-.7,.5-.9,1.4-.5,2.1h0Z" id="path1391"/></g></g><g id="g1401"><g id="g1399"><path class="cls-19" d="M205.48,138.35h1.2c.8,0,1.5-.7,1.5-1.5s-.7-1.5-1.5-1.5h-1.2c-.8,0-1.5,.7-1.5,1.5,.1,.8,.7,1.5,1.5,1.5h0Z" id="path1397"/></g></g></g><ellipse class="cls-14" cx="199.28" cy="99.15" id="ellipse1405" rx="13.4" ry="11.3"/></g><polygon class="cls-15" id="polygon1417" points="143.68 104.25 99.18 87.05 99.18 132.15 143.68 149.35 143.68 104.25"/><g class="cls-22" id="g1501"><path class="cls-14" d="M113.38,114.35c0,2.7,2.7,4.8,6.1,4.8s6.1-2.2,6.1-4.8-2.7-4.8-6.1-4.8c-3.4-.1-6.1,2.1-6.1,4.8Z" id="path1419"/><path class="cls-14" d="M113.98,111.45c0,2.8,2.4,5.1,5.4,5.1s5.5-2.3,5.5-5.1-2.4-5.1-5.5-5.1c-2.9,0-5.4,2.3-5.4,5.1Z" id="path1421"/><path class="cls-14" d="M112.28,109.85c0,2.2,2.2,4.1,5,4.1s5-1.8,5-4.1-2.2-4.1-5-4.1c-2.8,.1-5,1.9-5,4.1Z" id="path1423"/><path class="cls-14" d="M110.28,111.45c0,2.4,1.7,4.3,3.8,4.3s3.8-1.9,3.8-4.3-1.7-4.3-3.8-4.3-3.8,1.9-3.8,4.3Z" id="path1425"/><path class="cls-14" d="M109.38,114.35c0,2.2,2.9,3.9,6.4,3.9s6.4-1.8,6.4-3.9-2.9-3.9-6.4-3.9c-3.5-.1-6.4,1.7-6.4,3.9Z" id="path1427"/><path class="cls-14" d="M116.78,116.75c0,2.2,1.7,4,3.8,4s3.8-1.8,3.8-4-1.7-4-3.8-4-3.8,1.8-3.8,4Z" id="path1429"/><path class="cls-14" d="M109.68,115.75c0,2.2,1.8,3.9,3.9,3.9s3.9-1.8,3.9-3.9-1.8-3.9-3.9-3.9c-2.1,0-3.9,1.7-3.9,3.9Z" id="path1431"/><g id="g1497"><path class="cls-2" d="M118.48,121.35c0,5.4,1.2,9.7,2.7,9.7" id="path1433"/><rect class="cls-16" height="9.7" id="rect1435" width="2.2" x="116.18" y="121.35"/><path class="cls-2" d="M116.48,121.15c0,5.3-1.2,9.7-2.7,9.7" id="path1437"/><rect class="cls-19" height="1.6" id="rect1439" width="4.5" x="115.18" y="129.35"/><rect class="cls-19" height="1.6" id="rect1441" width="3.8" x="115.48" y="128.05"/><rect class="cls-19" height=".3" id="rect1443" width="5.8" x="114.48" y="130.55"/><rect class="cls-19" height=".3" id="rect1445" width="5.4" x="114.78" y="130.15"/><rect class="cls-19" height=".3" id="rect1447" width="4.2" x="115.68" y="129.95"/><rect class="cls-19" height=".6" id="rect1449" width=".4" x="114.98" y="129.65"/><rect class="cls-19" height="1.1" id="rect1451" width=".2" x="119.18" y="128.65"/><g id="g1459"><rect class="cls-19" height=".5" id="rect1453" width=".3" x="119.18" y="129.15"/><g id="g1457"><path class="cls-19" d="M119.18,131.15h.3c.8,0,1.5-.7,1.5-1.5v-.5c0-.8-.7-1.5-1.5-1.5h-.3c-.8,0-1.5,.7-1.5,1.5v.5c0,.8,.7,1.6,1.5,1.5,.8,0,1.5-.7,1.5-1.5v-.5l-1.5,1.5h.3l-1.5-1.5v.5l1.5-1.5h-.3c-.8,0-1.5,.7-1.5,1.5,.1,.9,.7,1.5,1.5,1.5Z" id="path1455"/></g></g><g id="g1465"><g id="g1463"><path class="cls-19" d="M117.28,126.35c0,.4,.1,.7,.2,1.1,0,.1,0,.4,0,.1v.2q0-.2,0-.1c.9-.1,1.8-.2,2.7-.4,0-.1-.1-.4,0,0-.2-.8-1.1-1.3-1.8-1-.8,.2-1.3,1.1-1,1.8,.1,.3,.2,.5,.3,.7,.2,.5,1,.8,1.5,.7,.6-.1,1-.5,1.2-1.1,.2-.5,.1-1,.1-1.5,0-.2-.1-.3-.1-.5v-.2q0,.2,0,.1c0-.8-.7-1.5-1.5-1.5-.9,.1-1.7,.7-1.6,1.6h0Z" id="path1461"/></g></g><g id="g1471"><g id="g1469"><path class="cls-19" d="M114.88,126.75c-.2,.3-.3,.7-.4,1.1-.2,.8,.2,1.7,1,1.8,.8,.2,1.7-.2,1.8-1,0-.1,0-.2,.1-.3q0-.2,0-.1c.5-.7,.1-1.7-.5-2.1-.7-.4-1.6-.1-2,.6h0Z" id="path1467"/></g></g><g id="g1477"><g id="g1475"><path class="cls-19" d="M119.08,131.75c.2,0,.5,.1,.7,.1,.8,0,1.5-.7,1.5-1.5s-.7-1.5-1.5-1.5h.1c-.8-.1-1.7,.2-1.8,1-.2,.8,.2,1.8,1,1.9h0Z" id="path1473"/></g></g><g id="g1483"><g id="g1481"><path class="cls-19" d="M120.48,129.45h-6c-1.9,0-1.9,3,0,3h6c2,0,2-3,0-3h0Z" id="path1479"/></g></g><g id="g1489"><g id="g1487"><path class="cls-19" d="M113.98,129.25c-.1,.2-.2,.4-.4,.6-.4,.7-.2,1.6,.5,2.1,.7,.4,1.6,.2,2.1-.5,.1-.2,.2-.4,.4-.6,.4-.7,.2-1.6-.5-2.1-.7-.4-1.7-.2-2.1,.5h0Z" id="path1485"/></g></g><g id="g1495"><g id="g1493"><path class="cls-19" d="M114.58,129.55h-.4c-.8,0-1.5,.7-1.5,1.5s.7,1.5,1.5,1.5h.4c.8,0,1.5-.7,1.5-1.5,0-.9-.6-1.5-1.5-1.5h0Z" id="path1491"/></g></g></g><path class="cls-14" d="M112.18,117.85c0,2.2,2.1,3.9,4.6,3.9s4.6-1.8,4.6-3.9-2.1-3.9-4.6-3.9-4.6,1.8-4.6,3.9Z" id="path1499"/></g><line class="cls-11" id="line1503" x1="190.78" x2="26.28" y1="64.55" y2="153.55"/><line class="cls-11" id="line1505" x1="23.88" x2="188.48" y1="126.25" y2="138.65"/><line class="cls-8" id="line1507" x1="121.38" x2="132.68" y1="95.75" y2="100.15"/><line class="cls-8" id="line1509" x1="143.68" x2="143.68" y1="129.25" y2="139.85"/><polygon class="cls-8" id="polygon1511" points="92.08 159.65 47.68 176.85 47.68 131.75 92.08 114.55 92.08 159.65"/><line class="cls-8" id="line1513" x1="4.98" x2="47.68" y1="153.55" y2="177.15"/><line class="cls-8" id="line1515" x1="4.98" x2="47.68" y1="108.65" y2="132.25"/><line class="cls-8" id="line1517" x1="50.28" x2="93.08" y1="90.85" y2="114.55"/><g id="g1523"><g id="g1521"><path class="cls-18" d="M72.28,128.25c.2,.2,.3,.5,.4,.7,.2,.6,2.1,.1,1.9-.5-.1-.4-.3-.7-.5-1-.4-.4-2.3,.3-1.8,.8h0Z" id="path1519"/></g></g><g id="g1529"><g id="g1527"><path class="cls-18" d="M72.78,130.05c.1,.4,.2,.8,0,1.1-.2,.4,.2,.6,.5,.6,.4,0,1-.1,1.3-.5,.3-.5,.4-1.1,.2-1.7-.3-.7-2.2-.2-2,.5h0Z" id="path1525"/></g></g><polygon class="cls-17" id="polygon1531" points="47.98 132.85 7.38 111.05 6.88 154.05 46.48 175.35 47.98 132.85"/><g class="cls-21" id="g1615"><path class="cls-14" d="M29.28,145.75c0-2.8-2.9-5.1-6.5-5.1s-6.5,2.3-6.5,5.1,2.9,5.1,6.5,5.1c3.6,0,6.5-2.3,6.5-5.1Z" id="path1533"/><path class="cls-14" d="M28.58,148.75c0-2.9-2.6-5.3-5.8-5.3s-5.8,2.4-5.8,5.3,2.6,5.3,5.8,5.3,5.8-2.4,5.8-5.3Z" id="path1535"/><path class="cls-14" d="M30.48,150.35c0-2.3-2.4-4.3-5.3-4.3s-5.3,1.9-5.3,4.3,2.4,4.3,5.3,4.3,5.3-1.9,5.3-4.3Z" id="path1537"/><path class="cls-14" d="M32.58,148.75c0-2.5-1.8-4.5-4-4.5s-4,2-4,4.5,1.8,4.5,4,4.5,4-2,4-4.5Z" id="path1539"/><path class="cls-14" d="M33.48,145.75c0-2.3-3.1-4.1-6.8-4.1s-6.8,1.8-6.8,4.1,3.1,4.1,6.8,4.1c3.8,0,6.8-1.8,6.8-4.1Z" id="path1541"/><path class="cls-14" d="M25.68,143.15c0-2.3-1.8-4.2-4.1-4.2s-4.1,1.9-4.1,4.2,1.8,4.2,4.1,4.2,4.1-1.8,4.1-4.2Z" id="path1543"/><path class="cls-14" d="M33.18,144.25c0-2.3-1.9-4.1-4.2-4.1s-4.2,1.8-4.2,4.1,1.9,4.1,4.2,4.1c2.3,0,4.2-1.9,4.2-4.1Z" id="path1545"/><g id="g1611"><path class="cls-2" d="M23.88,138.35c0-5.6-1.3-10.1-2.8-10.1" id="path1547"/><rect class="cls-16" height="10.1" id="rect1549" width="2.4" x="23.88" y="128.25"/><path class="cls-2" d="M25.98,138.55c0-5.6,1.3-10.1,2.8-10.1" id="path1551"/><rect class="cls-19" height="1.7" id="rect1553" width="4.8" x="22.58" y="128.25"/><rect class="cls-19" height="1.7" id="rect1555" width="4" x="23.08" y="129.65"/><rect class="cls-19" height=".4" id="rect1557" width="6.2" x="21.98" y="128.45"/><rect class="cls-19" height=".4" id="rect1559" width="5.8" x="22.08" y="128.75"/><rect class="cls-19" height=".4" id="rect1561" width="4.5" x="22.38" y="129.05"/><rect class="cls-19" height=".7" id="rect1563" width=".5" x="27.08" y="128.95"/><rect class="cls-19" height="1.1" id="rect1565" width=".2" x="22.88" y="129.65"/><g id="g1573"><rect class="cls-19" height=".6" id="rect1567" width=".3" x="22.78" y="129.65"/><g id="g1571"><path class="cls-19" d="M23.08,128.15h-.3c-.8,0-1.5,.7-1.5,1.5v.6c0,.8,.7,1.5,1.5,1.5h.3c.8,0,1.5-.7,1.5-1.5v-.6c0-.8-.7-1.6-1.5-1.5-.8,0-1.5,.7-1.5,1.5v.6l1.5-1.5h-.3l1.5,1.5v-.6l-1.5,1.5h.3c.8,0,1.5-.7,1.5-1.5s-.6-1.5-1.5-1.5Z" id="path1569"/></g></g><g id="g1579"><g id="g1577"><path class="cls-19" d="M25.08,133.15c0-.4-.1-.8-.2-1.1,0,0-.1-.5,0-.1v-.3q0,.2,0,.1c-.9,.1-1.8,.2-2.7,.4,0,.1,.1,.4,0,0,.2,.8,1.1,1.3,1.8,1,.8-.2,1.3-1.1,1-1.8-.1-.3-.2-.5-.3-.7-.2-.5-1-.8-1.5-.7-.6,.1-1,.5-1.2,1.1-.2,.5-.1,1-.1,1.5,0,.2,.1,.4,.1,.5s0,.2,.1,.3q0-.2,0-.1c0,.8,.7,1.5,1.5,1.5,.8-.1,1.5-.8,1.5-1.6h0Z" id="path1575"/></g></g><g id="g1585"><g id="g1583"><path class="cls-19" d="M27.58,132.65c.2-.3,.3-.7,.4-1.1,.2-.8-.2-1.7-1-1.8-.8-.2-1.7,.2-1.8,1,0,.1,0,.2-.1,.3,0,.2,.2-.2,0,.1-.5,.7-.1,1.7,.5,2.1,.7,.4,1.6,.1,2-.6h0Z" id="path1581"/></g></g><g id="g1591"><g id="g1589"><path class="cls-19" d="M23.18,127.45c-.2-.1-.5-.1-.7-.1-.8,0-1.5,.7-1.5,1.5s.7,1.5,1.5,1.5c.2,0,.1,0-.1,0,.8,.2,1.7-.2,1.8-1,.3-.8-.1-1.7-1-1.9h0Z" id="path1587"/></g></g><g id="g1597"><g id="g1595"><path class="cls-19" d="M21.68,129.85h6.4c1.9,0,1.9-3,0-3h-6.4c-1.9,0-1.9,3,0,3h0Z" id="path1593"/></g></g><g id="g1603"><g id="g1601"><path class="cls-19" d="M28.58,130.05c.1-.2,.3-.4,.4-.6,.4-.7,.2-1.6-.5-2.1-.7-.4-1.6-.2-2.1,.5-.1,.2-.3,.4-.4,.6-.4,.7-.2,1.6,.5,2.1,.7,.4,1.6,.2,2.1-.5h0Z" id="path1599"/></g></g><g id="g1609"><g id="g1607"><path class="cls-19" d="M27.98,129.75h.4c.8,0,1.5-.7,1.5-1.5s-.7-1.5-1.5-1.5h-.4c-.8,0-1.5,.7-1.5,1.5s.6,1.5,1.5,1.5h0Z" id="path1605"/></g></g></g><path class="cls-14" d="M30.58,142.05c0-2.3-2.2-4.1-4.9-4.1s-4.9,1.8-4.9,4.1,2.2,4.1,4.9,4.1c2.7,0,4.9-1.9,4.9-4.1Z" id="path1613"/></g></g><g id="g1797"><path class="cls-6" d="M440.98,137.85c-15.6-12.5-15.2-32.8,.9-45.4" id="path1619"/><line class="cls-6" id="line1621" x1="449.78" x2="440.38" y1="137.55" y2="137.55"/><line class="cls-6" id="line1623" x1="449.98" x2="441.18" y1="92.55" y2="92.55"/><line class="cls-6" id="line1625" x1="439.78" x2="423.98" y1="136.75" y2="136.75"/><line class="cls-6" id="line1627" x1="439.78" x2="423.98" y1="94.45" y2="94.45"/><line class="cls-6" id="line1629" x1="423.98" x2="423.98" y1="137.95" y2="93.35"/><line class="cls-6" id="line1631" x1="449.58" x2="449.38" y1="138.65" y2="91.55"/><ellipse class="cls-6" cx="345.18" cy="118.25" id="ellipse1633" rx="41.8" ry="50"/><rect class="cls-13" height="110.1" id="rect1635" width="50.8" x="348.28" y="65.75"/><line class="cls-6" id="line1637" x1="369.78" x2="369.88" y1="147.75" y2="86.25"/><path class="cls-6" d="M356.58,164.85c-18.3-26.1-18.1-68.2,.3-94.1" id="path1639"/><line class="cls-6" id="line1641" x1="355.18" x2="367.98" y1="71.45" y2="71.45"/><line class="cls-6" id="line1643" x1="355.48" x2="366.58" y1="164.15" y2="164.15"/><g id="g1665"><path class="cls-6" d="M387.98,115.65c0,16.2-9.2,29.2-20.6,29.2s-20.6-13.1-20.6-29.2,9.2-29.2,20.6-29.2c11.4-.1,20.6,13,20.6,29.2Z" id="path1645"/><rect class="cls-13" height="75.8" id="rect1647" width="24.6" x="368.88" y="77.75"/><path class="cls-6" d="M377.08,86.45c14.4,16.4,14.2,42.8-.4,59" id="path1649"/><line class="cls-6" id="line1651" x1="369.48" x2="377.98" y1="86.55" y2="86.55"/><line class="cls-6" id="line1653" x1="369.28" x2="377.28" y1="145.35" y2="145.35"/><line class="cls-6" id="line1655" x1="378.48" x2="396.28" y1="88.45" y2="88.45"/><line class="cls-6" id="line1657" x1="378.48" x2="396.28" y1="142.95" y2="142.95"/><path class="cls-6" d="M396.98,97.45c-7.3,10.3-7.3,27.1,0,37.4" id="path1659"/><line class="cls-6" id="line1661" x1="396.78" x2="396.78" y1="87.05" y2="98.65"/><line class="cls-6" id="line1663" x1="396.78" x2="396.78" y1="133.45" y2="144.55"/></g><line class="cls-6" id="line1667" x1="370.08" x2="370.08" y1="87.25" y2="145.75"/><g id="g1677"><path class="cls-3" d="M489.88,129.25c-10.4-8.4-10.4-21.8,.1-30" id="path1669"/><line class="cls-3" id="line1671" x1="489.18" x2="478.18" y1="129.15" y2="129.15"/><line class="cls-3" id="line1673" x1="489.18" x2="478.18" y1="99.55" y2="99.55"/><line class="cls-3" id="line1675" x1="478.18" x2="478.18" y1="129.95" y2="98.85"/></g><g id="g1687"><path class="cls-3" d="M492.88,99.55c10.4,8.4,10.4,21.8-.1,30" id="path1679"/><line class="cls-3" id="line1681" x1="493.58" x2="504.58" y1="99.65" y2="99.65"/><line class="cls-3" id="line1683" x1="493.58" x2="504.58" y1="129.25" y2="129.25"/><line class="cls-3" id="line1685" x1="504.58" x2="504.58" y1="98.85" y2="129.95"/></g><rect class="cls-3" height="29.4" id="rect1689" width="4.5" x="508.38" y="99.75"/><path class="cls-3" d="M519.48,114.55c0,8.4-1,15.2-2.3,15.2s-2.3-6.8-2.3-15.2,1-15.2,2.3-15.2,2.3,6.8,2.3,15.2Z" id="path1691"/><line class="cls-4" id="line1693" x1="616.68" x2="616.68" y1="94.45" y2="144.85"/><line class="cls-6" id="line1695" x1="344.88" x2="344.88" y1="166.65" y2="234.25"/><line class="cls-6" id="line1697" x1="344.88" x2="344.88" y1="7.45" y2="68.25"/><line class="cls-6" id="line1699" x1="333.88" x2="345.48" y1="8.65" y2="8.65"/><line class="cls-6" id="line1701" x1="334.88" x2="346.48" y1="232.65" y2="232.65"/><g id="g1709"><line class="cls-7" id="line1703" x1="346.78" x2="288.18" y1="118.85" y2="118.85"/><line class="cls-7" id="line1705" x1="288.18" x2="346.78" y1="120.75" y2="120.75"/><line class="cls-7" id="line1707" x1="346.78" x2="288.18" y1="122.65" y2="122.65"/></g><path class="cls-9" d="M320.38,216.05c1.2-2.3,2.8-5.2,4-7.6,14.3-27.3,16-30.8,18.4-35,4.4-7.9,11.1-18.2,20.5-27.4" id="path1713"/><path class="cls-9" d="M318.48,214.05c1.2-2.2,2.8-5.2,4-7.5,14.3-26.9,16-30.4,18.4-34.5,4.4-7.7,11.1-17.9,20.5-27.1" id="path1715"/><path class="cls-9" d="M317.38,210.65c1.2-2.2,2.7-5.1,4-7.4,14.3-26.4,15.9-29.7,18.3-33.8,4.4-7.6,11-17.6,20.4-26.5" id="path1717"/><path class="cls-5" d="M305.68,188.85c1.3-1.8,3-4.2,4.4-6.2,15.7-22.1,17.5-24.9,20.1-28.3,4.8-6.3,12.1-14.7,22.4-22.2" id="path1719"/><path class="cls-5" d="M303.48,187.25c1.3-1.8,3-4.2,4.4-6.1,15.7-21.8,17.5-24.5,20.1-27.9,4.8-6.3,12.1-14.5,22.4-21.9" id="path1721"/><path class="cls-5" d="M302.28,184.55c1.3-1.8,3-4.1,4.4-6,15.6-21.3,17.4-24,20-27.3,4.8-6.1,12-14.2,22.3-21.4" id="path1723"/><path class="cls-12" d="M294.38,157.25c1.5-1.1,3.5-2.5,5-3.6,18-12.8,20.1-14.5,23.1-16.5,5.5-3.7,13.9-8.5,25.8-12.9" id="path1725"/><path class="cls-12" d="M291.88,156.25c1.5-1.1,3.5-2.4,5-3.5,18-12.7,20.1-14.3,23.1-16.3,5.5-3.6,13.9-8.4,25.8-12.7" id="path1727"/><path class="cls-12" d="M290.58,154.75c1.5-1,3.4-2.4,5-3.5,17.9-12.4,20-14,23-15.9,5.5-3.6,13.8-8.3,25.6-12.5" id="path1729"/><path class="cls-6" d="M334.98,232.85c-62.3-62.9-62.5-163.5-.4-225" id="path1731"/><line class="cls-7" id="line1733" x1="503.48" x2="344.38" y1="100.65" y2="118.85"/><line class="cls-7" id="line1735" x1="344.38" x2="503.28" y1="120.75" y2="112.35"/><line class="cls-7" id="line1737" x1="504.58" x2="344.38" y1="128.15" y2="122.65"/><line class="cls-12" id="line1739" x1="503.28" x2="343.88" y1="101.85" y2="122.65"/><line class="cls-12" id="line1741" x1="345.78" x2="500.48" y1="123.75" y2="112.55"/><line class="cls-12" id="line1743" x1="504.58" x2="347.38" y1="127.65" y2="124.75"/><line class="cls-5" id="line1745" x1="503.28" x2="349.18" y1="101.85" y2="129.85"/><line class="cls-5" id="line1747" x1="350.18" x2="504.58" y1="131.05" y2="112.25"/><line class="cls-5" id="line1749" x1="501.38" x2="352.88" y1="127.55" y2="132.35"/><line class="cls-9" id="line1751" x1="503.48" x2="359.78" y1="100.65" y2="142.95"/><line class="cls-9" id="line1753" x1="361.18" x2="504.58" y1="145.15" y2="112.25"/><line class="cls-9" id="line1755" x1="616.68" x2="508.38" y1="96.45" y2="99.75"/><line class="cls-1" id="line1757" x1="510.68" x2="615.78" y1="99.75" y2="108.95"/><line class="cls-7" id="line1759" x1="616.58" x2="508.38" y1="120.05" y2="99.75"/><line class="cls-9" id="line1761" x1="616.58" x2="506.28" y1="97.35" y2="112.35"/><line class="cls-7" id="line1763" x1="616.58" x2="508.38" y1="119.55" y2="112.85"/><line class="cls-1" id="line1765" x1="508.38" x2="616.68" y1="112.85" y2="108.85"/><line class="cls-7" id="line1767" x1="614.38" x2="508.38" y1="119.45" y2="129.25"/><line class="cls-9" id="line1769" x1="616.68" x2="508.38" y1="96.45" y2="129.25"/><line class="cls-1" id="line1771" x1="510.68" x2="616.68" y1="127.25" y2="108.85"/><line class="cls-7" id="line1773" x1="501.58" x2="506.28" y1="112.25" y2="112.35"/><line class="cls-9" id="line1775" x1="501.58" x2="508.38" y1="129.25" y2="129.25"/><line class="cls-9" id="line1777" x1="501.58" x2="506.28" y1="112.25" y2="112.35"/><line class="cls-9" id="line1779" x1="501.58" x2="506.98" y1="127.65" y2="128.75"/><line class="cls-9" id="line1781" x1="503.48" x2="509.18" y1="100.65" y2="99.95"/><line class="cls-9" id="line1783" x1="504.58" x2="508.38" y1="112.25" y2="112.85"/><line class="cls-9" id="line1785" x1="505.28" x2="509.28" y1="128.15" y2="128.15"/><line class="cls-1" id="line1787" x1="503.28" x2="508.38" y1="101.85" y2="101.75"/><line class="cls-1" id="line1789" x1="504.58" x2="508.38" y1="127.65" y2="126.85"/><line class="cls-6" id="line1791" x1="366.78" x2="366.78" y1="71.05" y2="87.75"/><line class="cls-6" id="line1793" x1="366.98" x2="366.98" y1="145.45" y2="165.35"/><line class="cls-9" id="line1795" x1="504.58" x2="363.18" y1="127.65" y2="145.85"/></g><g><path class="cls-20" d="M425.48,203.5h10.05v1.99h-7.69v5.16h6.94v1.99h-6.94v8.36h-2.37v-17.5Z"/><path class="cls-20" d="M437.45,202.76h2.16v2.73h-2.16v-2.73Zm0,5.11h2.16v13.12h-2.16v-13.12Z"/><path class="cls-20" d="M452.48,208.26v2.04c-.61-.31-1.24-.55-1.9-.7s-1.34-.23-2.04-.23c-1.07,0-1.87,.16-2.41,.49s-.8,.82-.8,1.48c0,.5,.19,.89,.57,1.18s1.15,.56,2.31,.81l.74,.16c1.53,.33,2.62,.79,3.26,1.39s.97,1.43,.97,2.5c0,1.22-.48,2.18-1.45,2.89s-2.29,1.07-3.98,1.07c-.7,0-1.44-.07-2.2-.21s-1.56-.34-2.41-.62v-2.23c.8,.41,1.58,.72,2.36,.93s1.54,.31,2.3,.31c1.02,0,1.8-.17,2.34-.52s.82-.84,.82-1.47c0-.59-.2-1.04-.59-1.35s-1.26-.61-2.6-.9l-.75-.18c-1.34-.28-2.3-.71-2.89-1.29s-.89-1.38-.89-2.4c0-1.23,.44-2.19,1.31-2.86s2.12-1.01,3.73-1.01c.8,0,1.55,.06,2.25,.18s1.35,.29,1.95,.53Z"/><path class="cls-20" d="M467.53,213.08v7.92h-2.16v-7.85c0-1.24-.24-2.17-.73-2.79s-1.21-.93-2.18-.93c-1.16,0-2.08,.37-2.75,1.11s-1.01,1.75-1.01,3.04v7.42h-2.17v-18.23h2.17v7.15c.52-.79,1.12-1.38,1.82-1.77s1.51-.59,2.42-.59c1.51,0,2.65,.47,3.42,1.4s1.16,2.31,1.16,4.12Z"/><path class="cls-20" d="M483.05,213.9v1.05h-9.91c.09,1.48,.54,2.62,1.34,3.39s1.92,1.17,3.35,1.17c.83,0,1.63-.1,2.41-.3s1.55-.51,2.31-.91v2.04c-.77,.33-1.57,.58-2.38,.75s-1.64,.26-2.47,.26c-2.09,0-3.75-.61-4.97-1.83s-1.83-2.87-1.83-4.95,.58-3.85,1.74-5.12,2.72-1.89,4.69-1.89c1.77,0,3.16,.57,4.19,1.71s1.54,2.68,1.54,4.63Zm-2.16-.63c-.02-1.18-.35-2.12-.99-2.82s-1.5-1.05-2.56-1.05c-1.2,0-2.17,.34-2.89,1.02s-1.14,1.64-1.25,2.87h7.69Z"/><path class="cls-20" d="M492.05,222.22c-.61,1.56-1.2,2.58-1.78,3.06s-1.35,.71-2.32,.71h-1.72v-1.8h1.27c.59,0,1.05-.14,1.38-.42s.69-.95,1.09-1.99l.39-.98-5.31-12.91h2.29l4.1,10.27,4.1-10.27h2.29l-5.77,14.34Z"/><path class="cls-20" d="M512.02,213.9v1.05h-9.91c.09,1.48,.54,2.62,1.34,3.39s1.92,1.17,3.35,1.17c.83,0,1.63-.1,2.41-.3s1.55-.51,2.31-.91v2.04c-.77,.33-1.57,.58-2.38,.75s-1.64,.26-2.47,.26c-2.09,0-3.75-.61-4.97-1.83s-1.83-2.87-1.83-4.95,.58-3.85,1.74-5.12,2.72-1.89,4.69-1.89c1.77,0,3.16,.57,4.19,1.71s1.54,2.68,1.54,4.63Zm-2.16-.63c-.02-1.18-.35-2.12-.99-2.82s-1.5-1.05-2.56-1.05c-1.2,0-2.17,.34-2.89,1.02s-1.14,1.64-1.25,2.87h7.69Z"/></g></svg>