<?xml version="1.0" encoding="utf-8" standalone="no"?>
<!DOCTYPE svg PUBLIC "-//W3C//DTD SVG 1.1//EN"
  "http://www.w3.org/Graphics/SVG/1.1/DTD/svg11.dtd">
<!-- Created with matplotlib (https://matplotlib.org/) -->
<svg height="288pt" version="1.1" viewBox="0 0 432 288" width="432pt" xmlns="http://www.w3.org/2000/svg" xmlns:xlink="http://www.w3.org/1999/xlink">
 <defs>
  <style type="text/css">
*{stroke-linecap:butt;stroke-linejoin:round;}
  </style>
 </defs>
 <g id="figure_1">
  <g id="patch_1">
   <path d="M 0 288 
L 432 288 
L 432 0 
L 0 0 
z
" style="fill:#ffffff;"/>
  </g>
  <g id="axes_1">
   <g id="patch_2">
    <path d="M 54 252 
L 388.8 252 
L 388.8 34.56 
L 54 34.56 
z
" style="fill:#ffffff;"/>
   </g>
   <g id="matplotlib.axis_1">
    <g id="xtick_1">
     <g id="line2d_1">
      <defs>
       <path d="M 0 0 
L 0 3.5 
" id="mda5cb270e2" style="stroke:#000000;stroke-width:0.8;"/>
      </defs>
      <g>
       <use style="stroke:#000000;stroke-width:0.8;" x="69.218182" xlink:href="#mda5cb270e2" y="252"/>
      </g>
     </g>
     <g id="text_1">
      <!-- 0 -->
      <defs>
       <path d="M 31.78125 66.40625 
Q 24.171875 66.40625 20.328125 58.90625 
Q 16.5 51.421875 16.5 36.375 
Q 16.5 21.390625 20.328125 13.890625 
Q 24.171875 6.390625 31.78125 6.390625 
Q 39.453125 6.390625 43.28125 13.890625 
Q 47.125 21.390625 47.125 36.375 
Q 47.125 51.421875 43.28125 58.90625 
Q 39.453125 66.40625 31.78125 66.40625 
z
M 31.78125 74.21875 
Q 44.046875 74.21875 50.515625 64.515625 
Q 56.984375 54.828125 56.984375 36.375 
Q 56.984375 17.96875 50.515625 8.265625 
Q 44.046875 -1.421875 31.78125 -1.421875 
Q 19.53125 -1.421875 13.0625 8.265625 
Q 6.59375 17.96875 6.59375 36.375 
Q 6.59375 54.828125 13.0625 64.515625 
Q 19.53125 74.21875 31.78125 74.21875 
z
" id="DejaVuSans-48"/>
      </defs>
      <g transform="translate(65.082557 268.877969)scale(0.13 -0.13)">
       <use xlink:href="#DejaVuSans-48"/>
      </g>
     </g>
    </g>
    <g id="xtick_2">
     <g id="line2d_2">
      <g>
       <use style="stroke:#000000;stroke-width:0.8;" x="130.090909" xlink:href="#mda5cb270e2" y="252"/>
      </g>
     </g>
     <g id="text_2">
      <!-- 2 -->
      <defs>
       <path d="M 19.1875 8.296875 
L 53.609375 8.296875 
L 53.609375 0 
L 7.328125 0 
L 7.328125 8.296875 
Q 12.9375 14.109375 22.625 23.890625 
Q 32.328125 33.6875 34.8125 36.53125 
Q 39.546875 41.84375 41.421875 45.53125 
Q 43.3125 49.21875 43.3125 52.78125 
Q 43.3125 58.59375 39.234375 62.25 
Q 35.15625 65.921875 28.609375 65.921875 
Q 23.96875 65.921875 18.8125 64.3125 
Q 13.671875 62.703125 7.8125 59.421875 
L 7.8125 69.390625 
Q 13.765625 71.78125 18.9375 73 
Q 24.125 74.21875 28.421875 74.21875 
Q 39.75 74.21875 46.484375 68.546875 
Q 53.21875 62.890625 53.21875 53.421875 
Q 53.21875 48.921875 51.53125 44.890625 
Q 49.859375 40.875 45.40625 35.40625 
Q 44.1875 33.984375 37.640625 27.21875 
Q 31.109375 20.453125 19.1875 8.296875 
z
" id="DejaVuSans-50"/>
      </defs>
      <g transform="translate(125.955284 268.877969)scale(0.13 -0.13)">
       <use xlink:href="#DejaVuSans-50"/>
      </g>
     </g>
    </g>
    <g id="xtick_3">
     <g id="line2d_3">
      <g>
       <use style="stroke:#000000;stroke-width:0.8;" x="190.963636" xlink:href="#mda5cb270e2" y="252"/>
      </g>
     </g>
     <g id="text_3">
      <!-- 4 -->
      <defs>
       <path d="M 37.796875 64.3125 
L 12.890625 25.390625 
L 37.796875 25.390625 
z
M 35.203125 72.90625 
L 47.609375 72.90625 
L 47.609375 25.390625 
L 58.015625 25.390625 
L 58.015625 17.1875 
L 47.609375 17.1875 
L 47.609375 0 
L 37.796875 0 
L 37.796875 17.1875 
L 4.890625 17.1875 
L 4.890625 26.703125 
z
" id="DejaVuSans-52"/>
      </defs>
      <g transform="translate(186.828011 268.877969)scale(0.13 -0.13)">
       <use xlink:href="#DejaVuSans-52"/>
      </g>
     </g>
    </g>
    <g id="xtick_4">
     <g id="line2d_4">
      <g>
       <use style="stroke:#000000;stroke-width:0.8;" x="251.836364" xlink:href="#mda5cb270e2" y="252"/>
      </g>
     </g>
     <g id="text_4">
      <!-- 6 -->
      <defs>
       <path d="M 33.015625 40.375 
Q 26.375 40.375 22.484375 35.828125 
Q 18.609375 31.296875 18.609375 23.390625 
Q 18.609375 15.53125 22.484375 10.953125 
Q 26.375 6.390625 33.015625 6.390625 
Q 39.65625 6.390625 43.53125 10.953125 
Q 47.40625 15.53125 47.40625 23.390625 
Q 47.40625 31.296875 43.53125 35.828125 
Q 39.65625 40.375 33.015625 40.375 
z
M 52.59375 71.296875 
L 52.59375 62.3125 
Q 48.875 64.0625 45.09375 64.984375 
Q 41.3125 65.921875 37.59375 65.921875 
Q 27.828125 65.921875 22.671875 59.328125 
Q 17.53125 52.734375 16.796875 39.40625 
Q 19.671875 43.65625 24.015625 45.921875 
Q 28.375 48.1875 33.59375 48.1875 
Q 44.578125 48.1875 50.953125 41.515625 
Q 57.328125 34.859375 57.328125 23.390625 
Q 57.328125 12.15625 50.6875 5.359375 
Q 44.046875 -1.421875 33.015625 -1.421875 
Q 20.359375 -1.421875 13.671875 8.265625 
Q 6.984375 17.96875 6.984375 36.375 
Q 6.984375 53.65625 15.1875 63.9375 
Q 23.390625 74.21875 37.203125 74.21875 
Q 40.921875 74.21875 44.703125 73.484375 
Q 48.484375 72.75 52.59375 71.296875 
z
" id="DejaVuSans-54"/>
      </defs>
      <g transform="translate(247.700739 268.877969)scale(0.13 -0.13)">
       <use xlink:href="#DejaVuSans-54"/>
      </g>
     </g>
    </g>
    <g id="xtick_5">
     <g id="line2d_5">
      <g>
       <use style="stroke:#000000;stroke-width:0.8;" x="312.709091" xlink:href="#mda5cb270e2" y="252"/>
      </g>
     </g>
     <g id="text_5">
      <!-- 8 -->
      <defs>
       <path d="M 31.78125 34.625 
Q 24.75 34.625 20.71875 30.859375 
Q 16.703125 27.09375 16.703125 20.515625 
Q 16.703125 13.921875 20.71875 10.15625 
Q 24.75 6.390625 31.78125 6.390625 
Q 38.8125 6.390625 42.859375 10.171875 
Q 46.921875 13.96875 46.921875 20.515625 
Q 46.921875 27.09375 42.890625 30.859375 
Q 38.875 34.625 31.78125 34.625 
z
M 21.921875 38.8125 
Q 15.578125 40.375 12.03125 44.71875 
Q 8.5 49.078125 8.5 55.328125 
Q 8.5 64.0625 14.71875 69.140625 
Q 20.953125 74.21875 31.78125 74.21875 
Q 42.671875 74.21875 48.875 69.140625 
Q 55.078125 64.0625 55.078125 55.328125 
Q 55.078125 49.078125 51.53125 44.71875 
Q 48 40.375 41.703125 38.8125 
Q 48.828125 37.15625 52.796875 32.3125 
Q 56.78125 27.484375 56.78125 20.515625 
Q 56.78125 9.90625 50.3125 4.234375 
Q 43.84375 -1.421875 31.78125 -1.421875 
Q 19.734375 -1.421875 13.25 4.234375 
Q 6.78125 9.90625 6.78125 20.515625 
Q 6.78125 27.484375 10.78125 32.3125 
Q 14.796875 37.15625 21.921875 38.8125 
z
M 18.3125 54.390625 
Q 18.3125 48.734375 21.84375 45.5625 
Q 25.390625 42.390625 31.78125 42.390625 
Q 38.140625 42.390625 41.71875 45.5625 
Q 45.3125 48.734375 45.3125 54.390625 
Q 45.3125 60.0625 41.71875 63.234375 
Q 38.140625 66.40625 31.78125 66.40625 
Q 25.390625 66.40625 21.84375 63.234375 
Q 18.3125 60.0625 18.3125 54.390625 
z
" id="DejaVuSans-56"/>
      </defs>
      <g transform="translate(308.573466 268.877969)scale(0.13 -0.13)">
       <use xlink:href="#DejaVuSans-56"/>
      </g>
     </g>
    </g>
    <g id="xtick_6">
     <g id="line2d_6">
      <g>
       <use style="stroke:#000000;stroke-width:0.8;" x="373.581818" xlink:href="#mda5cb270e2" y="252"/>
      </g>
     </g>
     <g id="text_6">
      <!-- 10 -->
      <defs>
       <path d="M 12.40625 8.296875 
L 28.515625 8.296875 
L 28.515625 63.921875 
L 10.984375 60.40625 
L 10.984375 69.390625 
L 28.421875 72.90625 
L 38.28125 72.90625 
L 38.28125 8.296875 
L 54.390625 8.296875 
L 54.390625 0 
L 12.40625 0 
z
" id="DejaVuSans-49"/>
      </defs>
      <g transform="translate(365.310568 268.877969)scale(0.13 -0.13)">
       <use xlink:href="#DejaVuSans-49"/>
       <use x="63.623047" xlink:href="#DejaVuSans-48"/>
      </g>
     </g>
    </g>
    <g id="text_7">
     <!-- $x$ -->
     <defs>
      <path d="M 60.015625 54.6875 
L 34.90625 27.875 
L 50.296875 0 
L 39.984375 0 
L 28.421875 21.6875 
L 8.296875 0 
L -2.59375 0 
L 24.3125 28.8125 
L 10.015625 54.6875 
L 20.3125 54.6875 
L 30.8125 34.90625 
L 49.125 54.6875 
z
" id="DejaVuSans-Oblique-120"/>
     </defs>
     <g transform="translate(217.5 285.459531)scale(0.13 -0.13)">
      <use transform="translate(0 0.3125)" xlink:href="#DejaVuSans-Oblique-120"/>
     </g>
    </g>
   </g>
   <g id="matplotlib.axis_2">
    <g id="ytick_1">
     <g id="line2d_7">
      <defs>
       <path d="M 0 0 
L -3.5 0 
" id="mac70bf8331" style="stroke:#000000;stroke-width:0.8;"/>
      </defs>
      <g>
       <use style="stroke:#000000;stroke-width:0.8;" x="54" xlink:href="#mac70bf8331" y="242.116364"/>
      </g>
     </g>
     <g id="text_8">
      <!-- 0.0 -->
      <defs>
       <path d="M 10.6875 12.40625 
L 21 12.40625 
L 21 0 
L 10.6875 0 
z
" id="DejaVuSans-46"/>
      </defs>
      <g transform="translate(26.325937 247.055348)scale(0.13 -0.13)">
       <use xlink:href="#DejaVuSans-48"/>
       <use x="63.623047" xlink:href="#DejaVuSans-46"/>
       <use x="95.410156" xlink:href="#DejaVuSans-48"/>
      </g>
     </g>
    </g>
    <g id="ytick_2">
     <g id="line2d_8">
      <g>
       <use style="stroke:#000000;stroke-width:0.8;" x="54" xlink:href="#mac70bf8331" y="196.386894"/>
      </g>
     </g>
     <g id="text_9">
      <!-- 0.1 -->
      <g transform="translate(26.325937 201.325878)scale(0.13 -0.13)">
       <use xlink:href="#DejaVuSans-48"/>
       <use x="63.623047" xlink:href="#DejaVuSans-46"/>
       <use x="95.410156" xlink:href="#DejaVuSans-49"/>
      </g>
     </g>
    </g>
    <g id="ytick_3">
     <g id="line2d_9">
      <g>
       <use style="stroke:#000000;stroke-width:0.8;" x="54" xlink:href="#mac70bf8331" y="150.657424"/>
      </g>
     </g>
     <g id="text_10">
      <!-- 0.2 -->
      <g transform="translate(26.325937 155.596408)scale(0.13 -0.13)">
       <use xlink:href="#DejaVuSans-48"/>
       <use x="63.623047" xlink:href="#DejaVuSans-46"/>
       <use x="95.410156" xlink:href="#DejaVuSans-50"/>
      </g>
     </g>
    </g>
    <g id="ytick_4">
     <g id="line2d_10">
      <g>
       <use style="stroke:#000000;stroke-width:0.8;" x="54" xlink:href="#mac70bf8331" y="104.927953"/>
      </g>
     </g>
     <g id="text_11">
      <!-- 0.3 -->
      <defs>
       <path d="M 40.578125 39.3125 
Q 47.65625 37.796875 51.625 33 
Q 55.609375 28.21875 55.609375 21.1875 
Q 55.609375 10.40625 48.1875 4.484375 
Q 40.765625 -1.421875 27.09375 -1.421875 
Q 22.515625 -1.421875 17.65625 -0.515625 
Q 12.796875 0.390625 7.625 2.203125 
L 7.625 11.71875 
Q 11.71875 9.328125 16.59375 8.109375 
Q 21.484375 6.890625 26.8125 6.890625 
Q 36.078125 6.890625 40.9375 10.546875 
Q 45.796875 14.203125 45.796875 21.1875 
Q 45.796875 27.640625 41.28125 31.265625 
Q 36.765625 34.90625 28.71875 34.90625 
L 20.21875 34.90625 
L 20.21875 43.015625 
L 29.109375 43.015625 
Q 36.375 43.015625 40.234375 45.921875 
Q 44.09375 48.828125 44.09375 54.296875 
Q 44.09375 59.90625 40.109375 62.90625 
Q 36.140625 65.921875 28.71875 65.921875 
Q 24.65625 65.921875 20.015625 65.03125 
Q 15.375 64.15625 9.8125 62.3125 
L 9.8125 71.09375 
Q 15.4375 72.65625 20.34375 73.4375 
Q 25.25 74.21875 29.59375 74.21875 
Q 40.828125 74.21875 47.359375 69.109375 
Q 53.90625 64.015625 53.90625 55.328125 
Q 53.90625 49.265625 50.4375 45.09375 
Q 46.96875 40.921875 40.578125 39.3125 
z
" id="DejaVuSans-51"/>
      </defs>
      <g transform="translate(26.325937 109.866938)scale(0.13 -0.13)">
       <use xlink:href="#DejaVuSans-48"/>
       <use x="63.623047" xlink:href="#DejaVuSans-46"/>
       <use x="95.410156" xlink:href="#DejaVuSans-51"/>
      </g>
     </g>
    </g>
    <g id="ytick_5">
     <g id="line2d_11">
      <g>
       <use style="stroke:#000000;stroke-width:0.8;" x="54" xlink:href="#mac70bf8331" y="59.198483"/>
      </g>
     </g>
     <g id="text_12">
      <!-- 0.4 -->
      <g transform="translate(26.325937 64.137468)scale(0.13 -0.13)">
       <use xlink:href="#DejaVuSans-48"/>
       <use x="63.623047" xlink:href="#DejaVuSans-46"/>
       <use x="95.410156" xlink:href="#DejaVuSans-52"/>
      </g>
     </g>
    </g>
    <g id="text_13">
     <!-- $p(x)$ -->
     <defs>
      <path d="M 49.609375 33.6875 
Q 49.609375 40.875 46.484375 44.671875 
Q 43.359375 48.484375 37.5 48.484375 
Q 33.5 48.484375 29.859375 46.4375 
Q 26.21875 44.390625 23.390625 40.484375 
Q 20.609375 36.625 18.9375 31.15625 
Q 17.28125 25.6875 17.28125 20.3125 
Q 17.28125 13.484375 20.40625 9.796875 
Q 23.53125 6.109375 29.296875 6.109375 
Q 33.546875 6.109375 37.1875 8.109375 
Q 40.828125 10.109375 43.40625 13.921875 
Q 46.1875 17.921875 47.890625 23.34375 
Q 49.609375 28.765625 49.609375 33.6875 
z
M 21.78125 46.390625 
Q 25.390625 51.125 30.296875 53.5625 
Q 35.203125 56 41.21875 56 
Q 49.609375 56 54.25 50.5 
Q 58.890625 45.015625 58.890625 35.109375 
Q 58.890625 27 56 19.65625 
Q 53.125 12.3125 47.703125 6.5 
Q 44.09375 2.640625 39.546875 0.609375 
Q 35.015625 -1.421875 29.984375 -1.421875 
Q 24.171875 -1.421875 20.21875 1 
Q 16.265625 3.421875 14.3125 8.203125 
L 8.6875 -20.796875 
L -0.296875 -20.796875 
L 14.40625 54.6875 
L 23.390625 54.6875 
z
" id="DejaVuSans-Oblique-112"/>
      <path d="M 31 75.875 
Q 24.46875 64.65625 21.28125 53.65625 
Q 18.109375 42.671875 18.109375 31.390625 
Q 18.109375 20.125 21.3125 9.0625 
Q 24.515625 -2 31 -13.1875 
L 23.1875 -13.1875 
Q 15.875 -1.703125 12.234375 9.375 
Q 8.59375 20.453125 8.59375 31.390625 
Q 8.59375 42.28125 12.203125 53.3125 
Q 15.828125 64.359375 23.1875 75.875 
z
" id="DejaVuSans-40"/>
      <path d="M 8.015625 75.875 
L 15.828125 75.875 
Q 23.140625 64.359375 26.78125 53.3125 
Q 30.421875 42.28125 30.421875 31.390625 
Q 30.421875 20.453125 26.78125 9.375 
Q 23.140625 -1.703125 15.828125 -13.1875 
L 8.015625 -13.1875 
Q 14.5 -2 17.703125 9.0625 
Q 20.90625 20.125 20.90625 31.390625 
Q 20.90625 42.671875 17.703125 53.65625 
Q 14.5 64.65625 8.015625 75.875 
z
" id="DejaVuSans-41"/>
     </defs>
     <g transform="translate(19.595937 156.345)rotate(-90)scale(0.13 -0.13)">
      <use transform="translate(0 0.125)" xlink:href="#DejaVuSans-Oblique-112"/>
      <use transform="translate(63.476562 0.125)" xlink:href="#DejaVuSans-40"/>
      <use transform="translate(102.490234 0.125)" xlink:href="#DejaVuSans-Oblique-120"/>
      <use transform="translate(161.669922 0.125)" xlink:href="#DejaVuSans-41"/>
     </g>
    </g>
   </g>
   <g id="line2d_12">
    <path clip-path="url(#pb0130dcc08)" d="M 69.218182 242.116364 
L 174.690729 242.005964 
L 180.382898 241.759928 
L 184.157385 241.383569 
L 187.079568 240.875635 
L 189.514721 240.232283 
L 191.645479 239.443448 
L 193.563162 238.500645 
L 195.359087 237.3701 
L 197.063694 236.031167 
L 198.707422 234.452543 
L 200.32071 232.58746 
L 201.903559 230.4138 
L 203.486409 227.860761 
L 205.099697 224.829678 
L 206.743425 221.258749 
L 208.448032 217.005991 
L 210.213518 211.981885 
L 212.039882 206.10204 
L 213.988004 199.063129 
L 216.088323 190.615594 
L 218.401718 180.364629 
L 221.110826 167.308795 
L 224.885312 147.908621 
L 230.486163 119.193125 
L 233.043073 107.297838 
L 235.112953 98.684755 
L 236.908878 92.130534 
L 238.491727 87.160306 
L 239.92238 83.372348 
L 241.200835 80.580545 
L 242.387972 78.50155 
L 243.453351 77.059277 
L 244.427412 76.088499 
L 245.340594 75.474534 
L 246.223337 75.145685 
L 247.07564 75.065644 
L 247.927944 75.207569 
L 248.841126 75.590611 
L 249.845626 76.265161 
L 250.971884 77.300825 
L 252.311218 78.851874 
L 254.046265 81.23215 
L 259.220964 88.576417 
L 260.499419 89.891662 
L 261.564798 90.683527 
L 262.477981 91.099027 
L 263.299845 91.239057 
L 264.091269 91.146152 
L 264.852254 90.832876 
L 265.643679 90.26366 
L 266.495982 89.364859 
L 267.409165 88.068541 
L 268.413665 86.247138 
L 269.539923 83.729774 
L 270.848818 80.223149 
L 272.401227 75.380192 
L 274.531986 67.919683 
L 278.276033 54.752292 
L 279.737125 50.478997 
L 280.863383 47.819459 
L 281.807004 46.122695 
L 282.598429 45.128364 
L 283.268096 44.621991 
L 283.846445 44.448015 
L 284.394354 44.518946 
L 284.942263 44.827443 
L 285.520612 45.418098 
L 286.190279 46.449714 
L 286.920825 48.007426 
L 287.742689 50.302835 
L 288.68631 53.643304 
L 289.75169 58.299321 
L 290.938827 64.53898 
L 292.3086 72.999713 
L 293.921889 84.456532 
L 295.930889 100.45066 
L 299.127027 127.990575 
L 302.931953 160.289452 
L 305.15403 177.282199 
L 307.071713 190.288106 
L 308.806759 200.565697 
L 310.420047 208.813725 
L 311.942018 215.462422 
L 313.403109 220.865526 
L 314.803322 225.211953 
L 316.173095 228.751446 
L 317.512429 231.606499 
L 318.821324 233.889967 
L 320.130218 235.7412 
L 321.469552 237.255344 
L 322.839326 238.471967 
L 324.269978 239.449788 
L 325.822388 240.241461 
L 327.557434 240.87193 
L 329.566435 241.358334 
L 332.032027 241.716185 
L 335.319483 241.954043 
L 340.524622 242.081526 
L 354.161476 242.115963 
L 373.581818 242.116363 
L 373.581818 242.116363 
" style="fill:none;stroke:#1f77b4;stroke-linecap:square;stroke-width:1.5;"/>
   </g>
   <g id="line2d_13">
    <path clip-path="url(#pb0130dcc08)" d="M 69.218182 242.116364 
L 181.630914 242.00547 
L 186.866492 241.757007 
L 190.367024 241.378027 
L 193.106571 240.866192 
L 195.419966 240.214643 
L 197.489845 239.402173 
L 199.377089 238.422338 
L 201.142574 237.255911 
L 202.847181 235.861787 
L 204.521348 234.201207 
L 206.195516 232.22024 
L 207.900123 229.846656 
L 209.635169 227.040753 
L 211.461533 223.652426 
L 213.409656 219.555839 
L 215.570853 214.474628 
L 218.158203 207.787743 
L 222.906751 194.727194 
L 225.859373 186.981765 
L 227.868374 182.301123 
L 229.512102 179.000897 
L 230.942754 176.605662 
L 232.19077 174.928763 
L 233.317028 173.774338 
L 234.321529 173.04789 
L 235.26515 172.634743 
L 236.147893 172.488788 
L 237.000196 172.569967 
L 237.882939 172.883254 
L 238.796121 173.44942 
L 239.800622 174.349275 
L 240.896441 175.648591 
L 242.114017 177.457482 
L 243.48379 179.911495 
L 245.066639 183.228664 
L 246.953883 187.72781 
L 249.449914 194.297688 
L 257.242402 215.208635 
L 259.525358 220.481722 
L 261.564798 224.647639 
L 263.452042 228.011908 
L 265.247967 230.772924 
L 266.983013 233.046598 
L 268.718059 234.958191 
L 270.453105 236.539846 
L 272.218591 237.848339 
L 274.044955 238.925302 
L 275.993077 239.813175 
L 278.123836 240.534026 
L 280.49811 241.098691 
L 283.298535 241.530329 
L 286.829507 241.837912 
L 291.760691 242.026352 
L 300.679437 242.107422 
L 349.108534 242.116364 
L 373.581818 242.116364 
L 373.581818 242.116364 
" style="fill:none;stroke:#ff7f0e;stroke-linecap:square;stroke-width:1.5;"/>
   </g>
   <g id="line2d_14">
    <path clip-path="url(#pb0130dcc08)" d="M 69.218182 242.116364 
L 229.329466 242.005496 
L 234.26065 241.757994 
L 237.517666 241.382078 
L 240.044137 240.87522 
L 242.174896 240.22502 
L 244.0317 239.429444 
L 245.736306 238.455799 
L 247.319156 237.292778 
L 248.810687 235.922243 
L 250.271778 234.276151 
L 251.70243 232.329022 
L 253.133082 230.005825 
L 254.594174 227.199804 
L 256.085705 223.8383 
L 257.607675 219.847782 
L 259.190525 215.059496 
L 260.864692 209.259227 
L 262.630178 202.315814 
L 264.54786 193.843465 
L 266.709058 183.246184 
L 269.357287 169.074999 
L 277.210654 126.230425 
L 279.037018 117.930035 
L 280.558989 112.000136 
L 281.867883 107.753614 
L 282.994141 104.804325 
L 283.998642 102.764727 
L 284.881385 101.454192 
L 285.64237 100.696957 
L 286.312037 100.320814 
L 286.920825 100.216637 
L 287.529613 100.339455 
L 288.168841 100.712055 
L 288.838507 101.367949 
L 289.599493 102.438287 
L 290.451796 104.037913 
L 291.425857 106.366025 
L 292.521676 109.58884 
L 293.769692 113.97797 
L 295.230783 119.980318 
L 296.965829 128.117047 
L 299.157467 139.548288 
L 302.901514 160.499587 
L 306.645561 180.985624 
L 309.050274 192.937608 
L 311.120154 202.143339 
L 313.007397 209.555467 
L 314.772883 215.611498 
L 316.44705 220.579715 
L 318.060339 224.684816 
L 319.612749 228.044501 
L 321.134719 230.823523 
L 322.62625 233.101661 
L 324.117781 234.989018 
L 325.639751 236.56344 
L 327.192161 237.855746 
L 328.835889 238.934146 
L 330.570935 239.807229 
L 332.488618 240.520706 
L 334.649816 241.084119 
L 337.206726 241.515633 
L 340.433303 241.824953 
L 344.968775 242.018668 
L 353.065657 242.10523 
L 373.581818 242.116351 
L 373.581818 242.116351 
" style="fill:none;stroke:#2ca02c;stroke-linecap:square;stroke-width:1.5;"/>
   </g>
   <g id="line2d_15">
    <path clip-path="url(#pb0130dcc08)" d="M 69.218182 242.116364 
L 194.780738 242.006029 
L 199.681483 241.759692 
L 202.938499 241.381838 
L 205.46497 240.869919 
L 207.565289 240.221889 
L 209.422093 239.416542 
L 211.096261 238.447713 
L 212.64867 237.293601 
L 214.140201 235.905241 
L 215.601293 234.232176 
L 217.031945 232.246599 
L 218.462597 229.869683 
L 219.893249 227.054045 
L 221.354341 223.678275 
L 222.845872 219.665119 
L 224.398282 214.837578 
L 226.01157 209.08412 
L 227.746616 202.041076 
L 229.60342 193.536947 
L 231.6733 182.960498 
L 234.078013 169.456826 
L 237.639424 148.01045 
L 241.657426 124.142103 
L 243.757745 112.978169 
L 245.431912 105.208029 
L 246.862564 99.572252 
L 248.080141 95.616875 
L 249.14552 92.851846 
L 250.089142 90.979115 
L 250.911006 89.80677 
L 251.641551 89.132093 
L 252.280779 88.829344 
L 252.859128 88.788195 
L 253.437476 88.968385 
L 254.046265 89.396306 
L 254.715932 90.146794 
L 255.476917 91.349935 
L 256.32922 93.129088 
L 257.303281 95.700143 
L 258.3991 99.240958 
L 259.677555 104.170799 
L 261.138647 110.737223 
L 262.873693 119.605656 
L 265.09577 132.201314 
L 269.20509 157.094948 
L 272.614303 177.108296 
L 274.988577 189.766479 
L 277.028017 199.489061 
L 278.884821 207.309312 
L 280.619867 213.699564 
L 282.294035 219.037073 
L 283.876884 223.36796 
L 285.429294 226.984994 
L 286.951264 229.976043 
L 288.442795 232.427325 
L 289.934326 234.457587 
L 291.425857 236.120299 
L 292.947828 237.49145 
L 294.530677 238.623172 
L 296.204844 239.550716 
L 298.031209 240.309218 
L 300.101088 240.922558 
L 302.505801 241.395824 
L 305.458424 241.741745 
L 309.445986 241.970482 
L 315.868701 242.08872 
L 334.314982 242.116277 
L 373.581818 242.116364 
L 373.581818 242.116364 
" style="fill:none;stroke:#d62728;stroke-linecap:square;stroke-width:1.5;"/>
   </g>
   <g id="patch_3">
    <path d="M 54 252 
L 54 34.56 
" style="fill:none;stroke:#000000;stroke-linecap:square;stroke-linejoin:miter;stroke-width:0.8;"/>
   </g>
   <g id="patch_4">
    <path d="M 388.8 252 
L 388.8 34.56 
" style="fill:none;stroke:#000000;stroke-linecap:square;stroke-linejoin:miter;stroke-width:0.8;"/>
   </g>
   <g id="patch_5">
    <path d="M 54 252 
L 388.8 252 
" style="fill:none;stroke:#000000;stroke-linecap:square;stroke-linejoin:miter;stroke-width:0.8;"/>
   </g>
   <g id="patch_6">
    <path d="M 54 34.56 
L 388.8 34.56 
" style="fill:none;stroke:#000000;stroke-linecap:square;stroke-linejoin:miter;stroke-width:0.8;"/>
   </g>
   <g id="legend_1">
    <g id="patch_7">
     <path d="M 63.1 121.4 
L 152.93 121.4 
Q 155.53 121.4 155.53 118.8 
L 155.53 43.66 
Q 155.53 41.06 152.93 41.06 
L 63.1 41.06 
Q 60.5 41.06 60.5 43.66 
L 60.5 118.8 
Q 60.5 121.4 63.1 121.4 
z
" style="fill:#ffffff;opacity:0.8;stroke:#cccccc;stroke-linejoin:miter;"/>
    </g>
    <g id="line2d_16">
     <path d="M 65.7 51.59 
L 91.7 51.59 
" style="fill:none;stroke:#1f77b4;stroke-linecap:square;stroke-width:1.5;"/>
    </g>
    <g id="line2d_17"/>
    <g id="text_14">
     <!-- $p(x)$ -->
     <g transform="translate(102.1 56.14)scale(0.13 -0.13)">
      <use transform="translate(0 0.125)" xlink:href="#DejaVuSans-Oblique-112"/>
      <use transform="translate(63.476562 0.125)" xlink:href="#DejaVuSans-40"/>
      <use transform="translate(102.490234 0.125)" xlink:href="#DejaVuSans-Oblique-120"/>
      <use transform="translate(161.669922 0.125)" xlink:href="#DejaVuSans-41"/>
     </g>
    </g>
    <g id="line2d_18">
     <path d="M 65.7 70.7 
L 91.7 70.7 
" style="fill:none;stroke:#ff7f0e;stroke-linecap:square;stroke-width:1.5;"/>
    </g>
    <g id="line2d_19"/>
    <g id="text_15">
     <!-- $w_0 p_0(z)$ -->
     <defs>
      <path d="M 8.5 54.6875 
L 17.390625 54.6875 
L 19.671875 10.6875 
L 40.09375 54.6875 
L 50.484375 54.6875 
L 53.515625 10.6875 
L 72.90625 54.6875 
L 81.890625 54.6875 
L 56.890625 0 
L 46.390625 0 
L 43.703125 45.3125 
L 22.796875 0 
L 12.203125 0 
z
" id="DejaVuSans-Oblique-119"/>
      <path d="M 11.625 54.6875 
L 54.296875 54.6875 
L 52.6875 46.484375 
L 11.53125 7.171875 
L 45.515625 7.171875 
L 44.09375 0 
L -0.296875 0 
L 1.3125 8.203125 
L 42.484375 47.515625 
L 10.203125 47.515625 
z
" id="DejaVuSans-Oblique-122"/>
     </defs>
     <g transform="translate(102.1 75.25)scale(0.13 -0.13)">
      <use transform="translate(0 0.125)" xlink:href="#DejaVuSans-Oblique-119"/>
      <use transform="translate(81.787109 -16.28125)scale(0.7)" xlink:href="#DejaVuSans-48"/>
      <use transform="translate(129.057617 0.125)" xlink:href="#DejaVuSans-Oblique-112"/>
      <use transform="translate(192.53418 -16.28125)scale(0.7)" xlink:href="#DejaVuSans-48"/>
      <use transform="translate(239.804688 0.125)" xlink:href="#DejaVuSans-40"/>
      <use transform="translate(278.818359 0.125)" xlink:href="#DejaVuSans-Oblique-122"/>
      <use transform="translate(331.308594 0.125)" xlink:href="#DejaVuSans-41"/>
     </g>
    </g>
    <g id="line2d_20">
     <path d="M 65.7 89.81 
L 91.7 89.81 
" style="fill:none;stroke:#2ca02c;stroke-linecap:square;stroke-width:1.5;"/>
    </g>
    <g id="line2d_21"/>
    <g id="text_16">
     <!-- $w_1 p_1(z)$ -->
     <g transform="translate(102.1 94.36)scale(0.13 -0.13)">
      <use transform="translate(0 0.125)" xlink:href="#DejaVuSans-Oblique-119"/>
      <use transform="translate(81.787109 -16.28125)scale(0.7)" xlink:href="#DejaVuSans-49"/>
      <use transform="translate(129.057617 0.125)" xlink:href="#DejaVuSans-Oblique-112"/>
      <use transform="translate(192.53418 -16.28125)scale(0.7)" xlink:href="#DejaVuSans-49"/>
      <use transform="translate(239.804688 0.125)" xlink:href="#DejaVuSans-40"/>
      <use transform="translate(278.818359 0.125)" xlink:href="#DejaVuSans-Oblique-122"/>
      <use transform="translate(331.308594 0.125)" xlink:href="#DejaVuSans-41"/>
     </g>
    </g>
    <g id="line2d_22">
     <path d="M 65.7 108.92 
L 91.7 108.92 
" style="fill:none;stroke:#d62728;stroke-linecap:square;stroke-width:1.5;"/>
    </g>
    <g id="line2d_23"/>
    <g id="text_17">
     <!-- $w_2 p_2(z)$ -->
     <g transform="translate(102.1 113.47)scale(0.13 -0.13)">
      <use transform="translate(0 0.125)" xlink:href="#DejaVuSans-Oblique-119"/>
      <use transform="translate(81.787109 -16.28125)scale(0.7)" xlink:href="#DejaVuSans-50"/>
      <use transform="translate(129.057617 0.125)" xlink:href="#DejaVuSans-Oblique-112"/>
      <use transform="translate(192.53418 -16.28125)scale(0.7)" xlink:href="#DejaVuSans-50"/>
      <use transform="translate(239.804688 0.125)" xlink:href="#DejaVuSans-40"/>
      <use transform="translate(278.818359 0.125)" xlink:href="#DejaVuSans-Oblique-122"/>
      <use transform="translate(331.308594 0.125)" xlink:href="#DejaVuSans-41"/>
     </g>
    </g>
   </g>
  </g>
 </g>
 <defs>
  <clipPath id="pb0130dcc08">
   <rect height="217.44" width="334.8" x="54" y="34.56"/>
  </clipPath>
 </defs>
</svg>
