<?xml version="1.0" encoding="utf-8" standalone="no"?>
<!DOCTYPE svg PUBLIC "-//W3C//DTD SVG 1.1//EN"
  "http://www.w3.org/Graphics/SVG/1.1/DTD/svg11.dtd">
<!-- Created with matplotlib (https://matplotlib.org/) -->
<svg height="288pt" version="1.1" viewBox="0 0 432 288" width="432pt" xmlns="http://www.w3.org/2000/svg" xmlns:xlink="http://www.w3.org/1999/xlink">
 <defs>
  <style type="text/css">
*{stroke-linecap:butt;stroke-linejoin:round;}
  </style>
 </defs>
 <g id="figure_1">
  <g id="patch_1">
   <path d="M 0 288 
L 432 288 
L 432 0 
L 0 0 
z
" style="fill:#ffffff;"/>
  </g>
  <g id="axes_1">
   <g id="patch_2">
    <path d="M 54 252 
L 388.8 252 
L 388.8 34.56 
L 54 34.56 
z
" style="fill:#ffffff;"/>
   </g>
   <g id="matplotlib.axis_1">
    <g id="xtick_1">
     <g id="line2d_1">
      <defs>
       <path d="M 0 0 
L 0 3.5 
" id="m96c9486ff6" style="stroke:#000000;stroke-width:0.8;"/>
      </defs>
      <g>
       <use style="stroke:#000000;stroke-width:0.8;" x="69.218182" xlink:href="#m96c9486ff6" y="252"/>
      </g>
     </g>
     <g id="text_1">
      <!-- 0 -->
      <defs>
       <path d="M 31.78125 66.40625 
Q 24.171875 66.40625 20.328125 58.90625 
Q 16.5 51.421875 16.5 36.375 
Q 16.5 21.390625 20.328125 13.890625 
Q 24.171875 6.390625 31.78125 6.390625 
Q 39.453125 6.390625 43.28125 13.890625 
Q 47.125 21.390625 47.125 36.375 
Q 47.125 51.421875 43.28125 58.90625 
Q 39.453125 66.40625 31.78125 66.40625 
z
M 31.78125 74.21875 
Q 44.046875 74.21875 50.515625 64.515625 
Q 56.984375 54.828125 56.984375 36.375 
Q 56.984375 17.96875 50.515625 8.265625 
Q 44.046875 -1.421875 31.78125 -1.421875 
Q 19.53125 -1.421875 13.0625 8.265625 
Q 6.59375 17.96875 6.59375 36.375 
Q 6.59375 54.828125 13.0625 64.515625 
Q 19.53125 74.21875 31.78125 74.21875 
z
" id="DejaVuSans-48"/>
      </defs>
      <g transform="translate(65.082557 268.877969)scale(0.13 -0.13)">
       <use xlink:href="#DejaVuSans-48"/>
      </g>
     </g>
    </g>
    <g id="xtick_2">
     <g id="line2d_2">
      <g>
       <use style="stroke:#000000;stroke-width:0.8;" x="130.090909" xlink:href="#m96c9486ff6" y="252"/>
      </g>
     </g>
     <g id="text_2">
      <!-- 2 -->
      <defs>
       <path d="M 19.1875 8.296875 
L 53.609375 8.296875 
L 53.609375 0 
L 7.328125 0 
L 7.328125 8.296875 
Q 12.9375 14.109375 22.625 23.890625 
Q 32.328125 33.6875 34.8125 36.53125 
Q 39.546875 41.84375 41.421875 45.53125 
Q 43.3125 49.21875 43.3125 52.78125 
Q 43.3125 58.59375 39.234375 62.25 
Q 35.15625 65.921875 28.609375 65.921875 
Q 23.96875 65.921875 18.8125 64.3125 
Q 13.671875 62.703125 7.8125 59.421875 
L 7.8125 69.390625 
Q 13.765625 71.78125 18.9375 73 
Q 24.125 74.21875 28.421875 74.21875 
Q 39.75 74.21875 46.484375 68.546875 
Q 53.21875 62.890625 53.21875 53.421875 
Q 53.21875 48.921875 51.53125 44.890625 
Q 49.859375 40.875 45.40625 35.40625 
Q 44.1875 33.984375 37.640625 27.21875 
Q 31.109375 20.453125 19.1875 8.296875 
z
" id="DejaVuSans-50"/>
      </defs>
      <g transform="translate(125.955284 268.877969)scale(0.13 -0.13)">
       <use xlink:href="#DejaVuSans-50"/>
      </g>
     </g>
    </g>
    <g id="xtick_3">
     <g id="line2d_3">
      <g>
       <use style="stroke:#000000;stroke-width:0.8;" x="190.963636" xlink:href="#m96c9486ff6" y="252"/>
      </g>
     </g>
     <g id="text_3">
      <!-- 4 -->
      <defs>
       <path d="M 37.796875 64.3125 
L 12.890625 25.390625 
L 37.796875 25.390625 
z
M 35.203125 72.90625 
L 47.609375 72.90625 
L 47.609375 25.390625 
L 58.015625 25.390625 
L 58.015625 17.1875 
L 47.609375 17.1875 
L 47.609375 0 
L 37.796875 0 
L 37.796875 17.1875 
L 4.890625 17.1875 
L 4.890625 26.703125 
z
" id="DejaVuSans-52"/>
      </defs>
      <g transform="translate(186.828011 268.877969)scale(0.13 -0.13)">
       <use xlink:href="#DejaVuSans-52"/>
      </g>
     </g>
    </g>
    <g id="xtick_4">
     <g id="line2d_4">
      <g>
       <use style="stroke:#000000;stroke-width:0.8;" x="251.836364" xlink:href="#m96c9486ff6" y="252"/>
      </g>
     </g>
     <g id="text_4">
      <!-- 6 -->
      <defs>
       <path d="M 33.015625 40.375 
Q 26.375 40.375 22.484375 35.828125 
Q 18.609375 31.296875 18.609375 23.390625 
Q 18.609375 15.53125 22.484375 10.953125 
Q 26.375 6.390625 33.015625 6.390625 
Q 39.65625 6.390625 43.53125 10.953125 
Q 47.40625 15.53125 47.40625 23.390625 
Q 47.40625 31.296875 43.53125 35.828125 
Q 39.65625 40.375 33.015625 40.375 
z
M 52.59375 71.296875 
L 52.59375 62.3125 
Q 48.875 64.0625 45.09375 64.984375 
Q 41.3125 65.921875 37.59375 65.921875 
Q 27.828125 65.921875 22.671875 59.328125 
Q 17.53125 52.734375 16.796875 39.40625 
Q 19.671875 43.65625 24.015625 45.921875 
Q 28.375 48.1875 33.59375 48.1875 
Q 44.578125 48.1875 50.953125 41.515625 
Q 57.328125 34.859375 57.328125 23.390625 
Q 57.328125 12.15625 50.6875 5.359375 
Q 44.046875 -1.421875 33.015625 -1.421875 
Q 20.359375 -1.421875 13.671875 8.265625 
Q 6.984375 17.96875 6.984375 36.375 
Q 6.984375 53.65625 15.1875 63.9375 
Q 23.390625 74.21875 37.203125 74.21875 
Q 40.921875 74.21875 44.703125 73.484375 
Q 48.484375 72.75 52.59375 71.296875 
z
" id="DejaVuSans-54"/>
      </defs>
      <g transform="translate(247.700739 268.877969)scale(0.13 -0.13)">
       <use xlink:href="#DejaVuSans-54"/>
      </g>
     </g>
    </g>
    <g id="xtick_5">
     <g id="line2d_5">
      <g>
       <use style="stroke:#000000;stroke-width:0.8;" x="312.709091" xlink:href="#m96c9486ff6" y="252"/>
      </g>
     </g>
     <g id="text_5">
      <!-- 8 -->
      <defs>
       <path d="M 31.78125 34.625 
Q 24.75 34.625 20.71875 30.859375 
Q 16.703125 27.09375 16.703125 20.515625 
Q 16.703125 13.921875 20.71875 10.15625 
Q 24.75 6.390625 31.78125 6.390625 
Q 38.8125 6.390625 42.859375 10.171875 
Q 46.921875 13.96875 46.921875 20.515625 
Q 46.921875 27.09375 42.890625 30.859375 
Q 38.875 34.625 31.78125 34.625 
z
M 21.921875 38.8125 
Q 15.578125 40.375 12.03125 44.71875 
Q 8.5 49.078125 8.5 55.328125 
Q 8.5 64.0625 14.71875 69.140625 
Q 20.953125 74.21875 31.78125 74.21875 
Q 42.671875 74.21875 48.875 69.140625 
Q 55.078125 64.0625 55.078125 55.328125 
Q 55.078125 49.078125 51.53125 44.71875 
Q 48 40.375 41.703125 38.8125 
Q 48.828125 37.15625 52.796875 32.3125 
Q 56.78125 27.484375 56.78125 20.515625 
Q 56.78125 9.90625 50.3125 4.234375 
Q 43.84375 -1.421875 31.78125 -1.421875 
Q 19.734375 -1.421875 13.25 4.234375 
Q 6.78125 9.90625 6.78125 20.515625 
Q 6.78125 27.484375 10.78125 32.3125 
Q 14.796875 37.15625 21.921875 38.8125 
z
M 18.3125 54.390625 
Q 18.3125 48.734375 21.84375 45.5625 
Q 25.390625 42.390625 31.78125 42.390625 
Q 38.140625 42.390625 41.71875 45.5625 
Q 45.3125 48.734375 45.3125 54.390625 
Q 45.3125 60.0625 41.71875 63.234375 
Q 38.140625 66.40625 31.78125 66.40625 
Q 25.390625 66.40625 21.84375 63.234375 
Q 18.3125 60.0625 18.3125 54.390625 
z
" id="DejaVuSans-56"/>
      </defs>
      <g transform="translate(308.573466 268.877969)scale(0.13 -0.13)">
       <use xlink:href="#DejaVuSans-56"/>
      </g>
     </g>
    </g>
    <g id="xtick_6">
     <g id="line2d_6">
      <g>
       <use style="stroke:#000000;stroke-width:0.8;" x="373.581818" xlink:href="#m96c9486ff6" y="252"/>
      </g>
     </g>
     <g id="text_6">
      <!-- 10 -->
      <defs>
       <path d="M 12.40625 8.296875 
L 28.515625 8.296875 
L 28.515625 63.921875 
L 10.984375 60.40625 
L 10.984375 69.390625 
L 28.421875 72.90625 
L 38.28125 72.90625 
L 38.28125 8.296875 
L 54.390625 8.296875 
L 54.390625 0 
L 12.40625 0 
z
" id="DejaVuSans-49"/>
      </defs>
      <g transform="translate(365.310568 268.877969)scale(0.13 -0.13)">
       <use xlink:href="#DejaVuSans-49"/>
       <use x="63.623047" xlink:href="#DejaVuSans-48"/>
      </g>
     </g>
    </g>
    <g id="text_7">
     <!-- $x$ -->
     <defs>
      <path d="M 60.015625 54.6875 
L 34.90625 27.875 
L 50.296875 0 
L 39.984375 0 
L 28.421875 21.6875 
L 8.296875 0 
L -2.59375 0 
L 24.3125 28.8125 
L 10.015625 54.6875 
L 20.3125 54.6875 
L 30.8125 34.90625 
L 49.125 54.6875 
z
" id="DejaVuSans-Oblique-120"/>
     </defs>
     <g transform="translate(217.5 285.459531)scale(0.13 -0.13)">
      <use transform="translate(0 0.3125)" xlink:href="#DejaVuSans-Oblique-120"/>
     </g>
    </g>
   </g>
   <g id="matplotlib.axis_2">
    <g id="ytick_1">
     <g id="line2d_7">
      <defs>
       <path d="M 0 0 
L -3.5 0 
" id="m4556edfa86" style="stroke:#000000;stroke-width:0.8;"/>
      </defs>
      <g>
       <use style="stroke:#000000;stroke-width:0.8;" x="54" xlink:href="#m4556edfa86" y="242.116364"/>
      </g>
     </g>
     <g id="text_8">
      <!-- 0.0 -->
      <defs>
       <path d="M 10.6875 12.40625 
L 21 12.40625 
L 21 0 
L 10.6875 0 
z
" id="DejaVuSans-46"/>
      </defs>
      <g transform="translate(26.325937 247.055348)scale(0.13 -0.13)">
       <use xlink:href="#DejaVuSans-48"/>
       <use x="63.623047" xlink:href="#DejaVuSans-46"/>
       <use x="95.410156" xlink:href="#DejaVuSans-48"/>
      </g>
     </g>
    </g>
    <g id="ytick_2">
     <g id="line2d_8">
      <g>
       <use style="stroke:#000000;stroke-width:0.8;" x="54" xlink:href="#m4556edfa86" y="196.386894"/>
      </g>
     </g>
     <g id="text_9">
      <!-- 0.1 -->
      <g transform="translate(26.325937 201.325878)scale(0.13 -0.13)">
       <use xlink:href="#DejaVuSans-48"/>
       <use x="63.623047" xlink:href="#DejaVuSans-46"/>
       <use x="95.410156" xlink:href="#DejaVuSans-49"/>
      </g>
     </g>
    </g>
    <g id="ytick_3">
     <g id="line2d_9">
      <g>
       <use style="stroke:#000000;stroke-width:0.8;" x="54" xlink:href="#m4556edfa86" y="150.657424"/>
      </g>
     </g>
     <g id="text_10">
      <!-- 0.2 -->
      <g transform="translate(26.325937 155.596408)scale(0.13 -0.13)">
       <use xlink:href="#DejaVuSans-48"/>
       <use x="63.623047" xlink:href="#DejaVuSans-46"/>
       <use x="95.410156" xlink:href="#DejaVuSans-50"/>
      </g>
     </g>
    </g>
    <g id="ytick_4">
     <g id="line2d_10">
      <g>
       <use style="stroke:#000000;stroke-width:0.8;" x="54" xlink:href="#m4556edfa86" y="104.927953"/>
      </g>
     </g>
     <g id="text_11">
      <!-- 0.3 -->
      <defs>
       <path d="M 40.578125 39.3125 
Q 47.65625 37.796875 51.625 33 
Q 55.609375 28.21875 55.609375 21.1875 
Q 55.609375 10.40625 48.1875 4.484375 
Q 40.765625 -1.421875 27.09375 -1.421875 
Q 22.515625 -1.421875 17.65625 -0.515625 
Q 12.796875 0.390625 7.625 2.203125 
L 7.625 11.71875 
Q 11.71875 9.328125 16.59375 8.109375 
Q 21.484375 6.890625 26.8125 6.890625 
Q 36.078125 6.890625 40.9375 10.546875 
Q 45.796875 14.203125 45.796875 21.1875 
Q 45.796875 27.640625 41.28125 31.265625 
Q 36.765625 34.90625 28.71875 34.90625 
L 20.21875 34.90625 
L 20.21875 43.015625 
L 29.109375 43.015625 
Q 36.375 43.015625 40.234375 45.921875 
Q 44.09375 48.828125 44.09375 54.296875 
Q 44.09375 59.90625 40.109375 62.90625 
Q 36.140625 65.921875 28.71875 65.921875 
Q 24.65625 65.921875 20.015625 65.03125 
Q 15.375 64.15625 9.8125 62.3125 
L 9.8125 71.09375 
Q 15.4375 72.65625 20.34375 73.4375 
Q 25.25 74.21875 29.59375 74.21875 
Q 40.828125 74.21875 47.359375 69.109375 
Q 53.90625 64.015625 53.90625 55.328125 
Q 53.90625 49.265625 50.4375 45.09375 
Q 46.96875 40.921875 40.578125 39.3125 
z
" id="DejaVuSans-51"/>
      </defs>
      <g transform="translate(26.325937 109.866938)scale(0.13 -0.13)">
       <use xlink:href="#DejaVuSans-48"/>
       <use x="63.623047" xlink:href="#DejaVuSans-46"/>
       <use x="95.410156" xlink:href="#DejaVuSans-51"/>
      </g>
     </g>
    </g>
    <g id="ytick_5">
     <g id="line2d_11">
      <g>
       <use style="stroke:#000000;stroke-width:0.8;" x="54" xlink:href="#m4556edfa86" y="59.198483"/>
      </g>
     </g>
     <g id="text_12">
      <!-- 0.4 -->
      <g transform="translate(26.325937 64.137468)scale(0.13 -0.13)">
       <use xlink:href="#DejaVuSans-48"/>
       <use x="63.623047" xlink:href="#DejaVuSans-46"/>
       <use x="95.410156" xlink:href="#DejaVuSans-52"/>
      </g>
     </g>
    </g>
    <g id="text_13">
     <!-- $p(x)$ -->
     <defs>
      <path d="M 49.609375 33.6875 
Q 49.609375 40.875 46.484375 44.671875 
Q 43.359375 48.484375 37.5 48.484375 
Q 33.5 48.484375 29.859375 46.4375 
Q 26.21875 44.390625 23.390625 40.484375 
Q 20.609375 36.625 18.9375 31.15625 
Q 17.28125 25.6875 17.28125 20.3125 
Q 17.28125 13.484375 20.40625 9.796875 
Q 23.53125 6.109375 29.296875 6.109375 
Q 33.546875 6.109375 37.1875 8.109375 
Q 40.828125 10.109375 43.40625 13.921875 
Q 46.1875 17.921875 47.890625 23.34375 
Q 49.609375 28.765625 49.609375 33.6875 
z
M 21.78125 46.390625 
Q 25.390625 51.125 30.296875 53.5625 
Q 35.203125 56 41.21875 56 
Q 49.609375 56 54.25 50.5 
Q 58.890625 45.015625 58.890625 35.109375 
Q 58.890625 27 56 19.65625 
Q 53.125 12.3125 47.703125 6.5 
Q 44.09375 2.640625 39.546875 0.609375 
Q 35.015625 -1.421875 29.984375 -1.421875 
Q 24.171875 -1.421875 20.21875 1 
Q 16.265625 3.421875 14.3125 8.203125 
L 8.6875 -20.796875 
L -0.296875 -20.796875 
L 14.40625 54.6875 
L 23.390625 54.6875 
z
" id="DejaVuSans-Oblique-112"/>
      <path d="M 31 75.875 
Q 24.46875 64.65625 21.28125 53.65625 
Q 18.109375 42.671875 18.109375 31.390625 
Q 18.109375 20.125 21.3125 9.0625 
Q 24.515625 -2 31 -13.1875 
L 23.1875 -13.1875 
Q 15.875 -1.703125 12.234375 9.375 
Q 8.59375 20.453125 8.59375 31.390625 
Q 8.59375 42.28125 12.203125 53.3125 
Q 15.828125 64.359375 23.1875 75.875 
z
" id="DejaVuSans-40"/>
      <path d="M 8.015625 75.875 
L 15.828125 75.875 
Q 23.140625 64.359375 26.78125 53.3125 
Q 30.421875 42.28125 30.421875 31.390625 
Q 30.421875 20.453125 26.78125 9.375 
Q 23.140625 -1.703125 15.828125 -13.1875 
L 8.015625 -13.1875 
Q 14.5 -2 17.703125 9.0625 
Q 20.90625 20.125 20.90625 31.390625 
Q 20.90625 42.671875 17.703125 53.65625 
Q 14.5 64.65625 8.015625 75.875 
z
" id="DejaVuSans-41"/>
     </defs>
     <g transform="translate(19.595937 156.345)rotate(-90)scale(0.13 -0.13)">
      <use transform="translate(0 0.125)" xlink:href="#DejaVuSans-Oblique-112"/>
      <use transform="translate(63.476562 0.125)" xlink:href="#DejaVuSans-40"/>
      <use transform="translate(102.490234 0.125)" xlink:href="#DejaVuSans-Oblique-120"/>
      <use transform="translate(161.669922 0.125)" xlink:href="#DejaVuSans-41"/>
     </g>
    </g>
   </g>
   <g id="line2d_12">
    <path clip-path="url(#p0411bdfb81)" d="M 69.218182 242.116364 
L 174.690729 242.005964 
L 180.382898 241.759928 
L 184.157385 241.383569 
L 187.079568 240.875635 
L 189.514721 240.232283 
L 191.645479 239.443448 
L 193.563162 238.500645 
L 195.359087 237.3701 
L 197.063694 236.031167 
L 198.707422 234.452543 
L 200.32071 232.58746 
L 201.903559 230.4138 
L 203.486409 227.860761 
L 205.099697 224.829678 
L 206.743425 221.258749 
L 208.448032 217.005991 
L 210.213518 211.981885 
L 212.039882 206.10204 
L 213.988004 199.063129 
L 216.088323 190.615594 
L 218.401718 180.364629 
L 221.110826 167.308795 
L 224.885312 147.908621 
L 230.486163 119.193125 
L 233.043073 107.297838 
L 235.112953 98.684755 
L 236.908878 92.130534 
L 238.491727 87.160306 
L 239.92238 83.372348 
L 241.200835 80.580545 
L 242.387972 78.50155 
L 243.453351 77.059277 
L 244.427412 76.088499 
L 245.340594 75.474534 
L 246.223337 75.145685 
L 247.07564 75.065644 
L 247.927944 75.207569 
L 248.841126 75.590611 
L 249.845626 76.265161 
L 250.971884 77.300825 
L 252.311218 78.851874 
L 254.046265 81.23215 
L 259.220964 88.576417 
L 260.499419 89.891662 
L 261.564798 90.683527 
L 262.477981 91.099027 
L 263.299845 91.239057 
L 264.091269 91.146152 
L 264.852254 90.832876 
L 265.643679 90.26366 
L 266.495982 89.364859 
L 267.409165 88.068541 
L 268.413665 86.247138 
L 269.539923 83.729774 
L 270.848818 80.223149 
L 272.401227 75.380192 
L 274.531986 67.919683 
L 278.276033 54.752292 
L 279.737125 50.478997 
L 280.863383 47.819459 
L 281.807004 46.122695 
L 282.598429 45.128364 
L 283.268096 44.621991 
L 283.846445 44.448015 
L 284.394354 44.518946 
L 284.942263 44.827443 
L 285.520612 45.418098 
L 286.190279 46.449714 
L 286.920825 48.007426 
L 287.742689 50.302835 
L 288.68631 53.643304 
L 289.75169 58.299321 
L 290.938827 64.53898 
L 292.3086 72.999713 
L 293.921889 84.456532 
L 295.930889 100.45066 
L 299.127027 127.990575 
L 302.931953 160.289452 
L 305.15403 177.282199 
L 307.071713 190.288106 
L 308.806759 200.565697 
L 310.420047 208.813725 
L 311.942018 215.462422 
L 313.403109 220.865526 
L 314.803322 225.211953 
L 316.173095 228.751446 
L 317.512429 231.606499 
L 318.821324 233.889967 
L 320.130218 235.7412 
L 321.469552 237.255344 
L 322.839326 238.471967 
L 324.269978 239.449788 
L 325.822388 240.241461 
L 327.557434 240.87193 
L 329.566435 241.358334 
L 332.032027 241.716185 
L 335.319483 241.954043 
L 340.524622 242.081526 
L 354.161476 242.115963 
L 373.581818 242.116363 
L 373.581818 242.116363 
" style="fill:none;stroke:#1f77b4;stroke-linecap:square;stroke-width:1.5;"/>
   </g>
   <g id="line2d_13">
    <path clip-path="url(#p0411bdfb81)" d="M 69.218182 242.116364 
L 178.526094 242.005587 
L 183.426839 241.759515 
L 186.683856 241.383186 
L 189.210326 240.874453 
L 191.310646 240.231615 
L 193.167449 239.433969 
L 194.841617 238.475758 
L 196.424466 237.310679 
L 197.915997 235.93505 
L 199.377089 234.279719 
L 200.807741 232.317997 
L 202.238393 229.973 
L 203.699484 227.135205 
L 205.160576 223.803824 
L 206.682546 219.763752 
L 208.265396 214.904189 
L 209.909124 209.116559 
L 211.64417 202.175678 
L 213.531413 193.678809 
L 215.631732 183.156876 
L 218.158203 169.290335 
L 222.632796 143.174404 
L 225.676737 126.115259 
L 227.685738 116.067821 
L 229.299026 109.062214 
L 230.699239 103.931605 
L 231.886376 100.37016 
L 232.951755 97.845322 
L 233.864937 96.215649 
L 234.656362 95.216862 
L 235.356468 94.66043 
L 235.995696 94.423785 
L 236.604484 94.440492 
L 237.213272 94.69331 
L 237.8525 95.211541 
L 238.552606 96.072989 
L 239.344031 97.409973 
L 240.257213 99.417816 
L 241.292153 102.269774 
L 242.44885 106.13613 
L 243.788184 111.426276 
L 245.340594 118.504907 
L 247.227837 128.203674 
L 249.784748 142.612727 
L 256.755372 182.488274 
L 259.038327 193.94282 
L 261.047328 202.924253 
L 262.873693 210.115092 
L 264.608739 216.07021 
L 266.252467 220.941574 
L 267.835316 224.959554 
L 269.387726 228.304645 
L 270.909696 231.062389 
L 272.401227 233.315821 
L 273.892758 235.176856 
L 275.414729 236.724465 
L 276.967139 237.990755 
L 278.610867 239.044018 
L 280.376352 239.906702 
L 282.324474 240.60423 
L 284.516112 241.14863 
L 287.133901 241.563744 
L 290.482235 241.857864 
L 295.261222 242.035994 
L 304.301727 242.109632 
L 364.115162 242.116364 
L 373.581818 242.116364 
L 373.581818 242.116364 
" style="fill:none;stroke:#ff7f0e;stroke-linecap:square;stroke-width:1.5;"/>
   </g>
   <g id="line2d_14">
    <path clip-path="url(#p0411bdfb81)" d="M 69.218182 242.116364 
L 228.08145 242.005493 
L 232.890876 241.758622 
L 236.056575 241.383925 
L 238.522167 240.874335 
L 240.561607 240.231696 
L 242.357532 239.435621 
L 243.970821 238.480922 
L 245.492791 237.320174 
L 246.923443 235.949641 
L 248.323656 234.296963 
L 249.693429 232.332888 
L 251.063203 229.974247 
L 252.432976 227.168568 
L 253.833189 223.783533 
L 255.263841 219.728545 
L 256.724932 214.909473 
L 258.246903 209.10854 
L 259.829752 202.185889 
L 261.503919 193.849417 
L 263.299845 183.752956 
L 265.278406 171.318832 
L 267.561362 155.484469 
L 270.544424 133.100221 
L 276.175714 90.61057 
L 278.215154 77.099647 
L 279.858882 67.633858 
L 281.259095 60.819288 
L 282.446232 56.071472 
L 283.481172 52.773439 
L 284.394354 50.552061 
L 285.185779 49.168593 
L 285.855446 48.399808 
L 286.433794 48.036067 
L 286.951264 47.94789 
L 287.468734 48.084149 
L 288.016643 48.472514 
L 288.625432 49.196637 
L 289.325538 50.405688 
L 290.116963 52.247818 
L 291.030145 54.981326 
L 292.065085 58.831312 
L 293.252222 64.166377 
L 294.591556 71.252039 
L 296.174405 80.881297 
L 298.122527 94.204026 
L 300.801195 114.212676 
L 307.010834 161.056498 
L 309.354668 176.766598 
L 311.394109 188.972729 
L 313.250912 198.773628 
L 314.985959 206.770089 
L 316.629687 213.327446 
L 318.212536 218.748495 
L 319.734506 223.190007 
L 321.226037 226.871217 
L 322.687129 229.896446 
L 324.117781 232.36361 
L 325.548433 234.401149 
L 327.009525 236.098508 
L 328.501056 237.490869 
L 330.053465 238.63476 
L 331.697193 239.568261 
L 333.493118 240.328599 
L 335.502119 240.933386 
L 337.845954 241.401558 
L 340.768137 241.7474 
L 344.69482 241.973198 
L 351.087096 242.089776 
L 369.837771 242.116295 
L 373.581818 242.116346 
L 373.581818 242.116346 
" style="fill:none;stroke:#2ca02c;stroke-linecap:square;stroke-width:1.5;"/>
   </g>
   <g id="line2d_15">
    <path clip-path="url(#p0411bdfb81)" d="M 69.218182 242.116364 
L 194.567662 242.005315 
L 199.437967 241.758275 
L 202.664545 241.381238 
L 205.160576 240.872954 
L 207.260895 240.221278 
L 209.08726 239.424533 
L 210.761427 238.449707 
L 212.313837 237.285392 
L 213.774928 235.913025 
L 215.205581 234.262649 
L 216.605793 232.307281 
L 218.006006 229.968355 
L 219.436658 227.133201 
L 220.89775 223.722262 
L 222.389281 219.652722 
L 223.911251 214.842112 
L 225.52454 208.977371 
L 227.198707 202.033638 
L 228.994632 193.616504 
L 230.973194 183.240116 
L 233.22571 170.19431 
L 236.178332 151.6702 
L 242.053138 114.532548 
L 244.062139 103.428975 
L 245.705867 95.541523 
L 247.07564 89.988835 
L 248.262777 86.03286 
L 249.328156 83.220498 
L 250.241339 81.397757 
L 251.032763 80.273211 
L 251.73287 79.638575 
L 252.341658 79.364925 
L 252.920007 79.345983 
L 253.498355 79.561984 
L 254.107143 80.042127 
L 254.77681 80.866971 
L 255.537796 82.175578 
L 256.390099 84.098402 
L 257.36416 86.865056 
L 258.490418 90.778533 
L 259.768873 96.074004 
L 261.260404 103.262409 
L 263.02589 112.929042 
L 265.308845 126.763005 
L 274.471107 183.732518 
L 276.571426 194.65726 
L 278.489109 203.484516 
L 280.254595 210.597711 
L 281.928762 216.450156 
L 283.542051 221.298948 
L 285.09446 225.277393 
L 286.616431 228.576226 
L 288.107962 231.286821 
L 289.569053 233.495872 
L 291.060584 235.351475 
L 292.552115 236.858402 
L 294.104525 238.112526 
L 295.717814 239.133001 
L 297.45286 239.969298 
L 299.370543 240.646155 
L 301.56218 241.181016 
L 304.210408 241.589581 
L 307.589183 241.874031 
L 312.489927 242.044378 
L 322.10878 242.111448 
L 373.581818 242.116364 
L 373.581818 242.116364 
" style="fill:none;stroke:#d62728;stroke-linecap:square;stroke-width:1.5;"/>
   </g>
   <g id="patch_3">
    <path d="M 54 252 
L 54 34.56 
" style="fill:none;stroke:#000000;stroke-linecap:square;stroke-linejoin:miter;stroke-width:0.8;"/>
   </g>
   <g id="patch_4">
    <path d="M 388.8 252 
L 388.8 34.56 
" style="fill:none;stroke:#000000;stroke-linecap:square;stroke-linejoin:miter;stroke-width:0.8;"/>
   </g>
   <g id="patch_5">
    <path d="M 54 252 
L 388.8 252 
" style="fill:none;stroke:#000000;stroke-linecap:square;stroke-linejoin:miter;stroke-width:0.8;"/>
   </g>
   <g id="patch_6">
    <path d="M 54 34.56 
L 388.8 34.56 
" style="fill:none;stroke:#000000;stroke-linecap:square;stroke-linejoin:miter;stroke-width:0.8;"/>
   </g>
   <g id="legend_1">
    <g id="patch_7">
     <path d="M 63.1 125.04 
L 152.93 125.04 
Q 155.53 125.04 155.53 122.44 
L 155.53 43.66 
Q 155.53 41.06 152.93 41.06 
L 63.1 41.06 
Q 60.5 41.06 60.5 43.66 
L 60.5 122.44 
Q 60.5 125.04 63.1 125.04 
z
" style="fill:#ffffff;opacity:0.8;stroke:#cccccc;stroke-linejoin:miter;"/>
    </g>
    <g id="line2d_16">
     <path d="M 65.7 51.59 
L 91.7 51.59 
" style="fill:none;stroke:#1f77b4;stroke-linecap:square;stroke-width:1.5;"/>
    </g>
    <g id="line2d_17"/>
    <g id="text_14">
     <!-- $p(x)$ -->
     <g transform="translate(102.1 56.14)scale(0.13 -0.13)">
      <use transform="translate(0 0.125)" xlink:href="#DejaVuSans-Oblique-112"/>
      <use transform="translate(63.476562 0.125)" xlink:href="#DejaVuSans-40"/>
      <use transform="translate(102.490234 0.125)" xlink:href="#DejaVuSans-Oblique-120"/>
      <use transform="translate(161.669922 0.125)" xlink:href="#DejaVuSans-41"/>
     </g>
    </g>
    <g id="line2d_18">
     <path d="M 65.7 70.96 
L 91.7 70.96 
" style="fill:none;stroke:#ff7f0e;stroke-linecap:square;stroke-width:1.5;"/>
    </g>
    <g id="line2d_19"/>
    <g id="text_15">
     <!-- $w_0^\prime p_0(z)$ -->
     <defs>
      <path d="M 8.5 54.6875 
L 17.390625 54.6875 
L 19.671875 10.6875 
L 40.09375 54.6875 
L 50.484375 54.6875 
L 53.515625 10.6875 
L 72.90625 54.6875 
L 81.890625 54.6875 
L 56.890625 0 
L 46.390625 0 
L 43.703125 45.3125 
L 22.796875 0 
L 12.203125 0 
z
" id="DejaVuSans-Oblique-119"/>
      <path d="M 3.515625 5.421875 
Q 2.875 5.609375 2.875 6.390625 
L 15.09375 51.8125 
Q 15.671875 53.65625 17.078125 54.78125 
Q 18.5 55.90625 20.3125 55.90625 
Q 22.65625 55.90625 24.4375 54.359375 
Q 26.21875 52.828125 26.21875 50.484375 
Q 26.21875 49.46875 25.6875 48.1875 
L 7.625 4.984375 
Q 7.28125 4.296875 6.6875 4.296875 
Q 6.15625 4.296875 5 4.78125 
Q 3.859375 5.28125 3.515625 5.421875 
z
" id="Cmsy10-48"/>
      <path d="M 11.625 54.6875 
L 54.296875 54.6875 
L 52.6875 46.484375 
L 11.53125 7.171875 
L 45.515625 7.171875 
L 44.09375 0 
L -0.296875 0 
L 1.3125 8.203125 
L 42.484375 47.515625 
L 10.203125 47.515625 
z
" id="DejaVuSans-Oblique-122"/>
     </defs>
     <g transform="translate(102.1 75.51)scale(0.13 -0.13)">
      <use transform="translate(0 0.584375)" xlink:href="#DejaVuSans-Oblique-119"/>
      <use transform="translate(86.253255 38.865625)scale(0.7)" xlink:href="#Cmsy10-48"/>
      <use transform="translate(81.787109 -26.759375)scale(0.7)" xlink:href="#DejaVuSans-48"/>
      <use transform="translate(129.057617 0.584375)" xlink:href="#DejaVuSans-Oblique-112"/>
      <use transform="translate(192.53418 -15.821875)scale(0.7)" xlink:href="#DejaVuSans-48"/>
      <use transform="translate(239.804688 0.584375)" xlink:href="#DejaVuSans-40"/>
      <use transform="translate(278.818359 0.584375)" xlink:href="#DejaVuSans-Oblique-122"/>
      <use transform="translate(331.308594 0.584375)" xlink:href="#DejaVuSans-41"/>
     </g>
    </g>
    <g id="line2d_20">
     <path d="M 65.7 91.37 
L 91.7 91.37 
" style="fill:none;stroke:#2ca02c;stroke-linecap:square;stroke-width:1.5;"/>
    </g>
    <g id="line2d_21"/>
    <g id="text_16">
     <!-- $w_1^\prime p_1(z)$ -->
     <g transform="translate(102.1 95.92)scale(0.13 -0.13)">
      <use transform="translate(0 0.584375)" xlink:href="#DejaVuSans-Oblique-119"/>
      <use transform="translate(86.253255 38.865625)scale(0.7)" xlink:href="#Cmsy10-48"/>
      <use transform="translate(81.787109 -26.759375)scale(0.7)" xlink:href="#DejaVuSans-49"/>
      <use transform="translate(129.057617 0.584375)" xlink:href="#DejaVuSans-Oblique-112"/>
      <use transform="translate(192.53418 -15.821875)scale(0.7)" xlink:href="#DejaVuSans-49"/>
      <use transform="translate(239.804688 0.584375)" xlink:href="#DejaVuSans-40"/>
      <use transform="translate(278.818359 0.584375)" xlink:href="#DejaVuSans-Oblique-122"/>
      <use transform="translate(331.308594 0.584375)" xlink:href="#DejaVuSans-41"/>
     </g>
    </g>
    <g id="line2d_22">
     <path d="M 65.7 111.65 
L 91.7 111.65 
" style="fill:none;stroke:#d62728;stroke-linecap:square;stroke-width:1.5;"/>
    </g>
    <g id="line2d_23"/>
    <g id="text_17">
     <!-- $w_2^\prime p_2(z)$ -->
     <g transform="translate(102.1 116.2)scale(0.13 -0.13)">
      <use transform="translate(0 0.584375)" xlink:href="#DejaVuSans-Oblique-119"/>
      <use transform="translate(86.253255 38.865625)scale(0.7)" xlink:href="#Cmsy10-48"/>
      <use transform="translate(81.787109 -26.759375)scale(0.7)" xlink:href="#DejaVuSans-50"/>
      <use transform="translate(129.057617 0.584375)" xlink:href="#DejaVuSans-Oblique-112"/>
      <use transform="translate(192.53418 -15.821875)scale(0.7)" xlink:href="#DejaVuSans-50"/>
      <use transform="translate(239.804688 0.584375)" xlink:href="#DejaVuSans-40"/>
      <use transform="translate(278.818359 0.584375)" xlink:href="#DejaVuSans-Oblique-122"/>
      <use transform="translate(331.308594 0.584375)" xlink:href="#DejaVuSans-41"/>
     </g>
    </g>
   </g>
  </g>
 </g>
 <defs>
  <clipPath id="p0411bdfb81">
   <rect height="217.44" width="334.8" x="54" y="34.56"/>
  </clipPath>
 </defs>
</svg>
