<svg version="1.1" viewBox="0.0 0.0 100.0 186.54593175853017" fill="none" stroke="none" stroke-linecap="square" stroke-miterlimit="10" xmlns:xlink="http://www.w3.org/1999/xlink" xmlns="http://www.w3.org/2000/svg"><clipPath id="p.0"><path d="m0 0l100.0 0l0 186.54593l-100.0 0l0 -186.54593z" clip-rule="nonzero"/></clipPath><g clip-path="url(#p.0)"><path fill="#000000" fill-opacity="0.0" d="m0 0l100.0 0l0 186.54593l-100.0 0z" fill-rule="evenodd"/><path fill="#000000" fill-opacity="0.0" d="m30.12205 33.475067l0 0c0 -17.881851 14.496103 -32.377953 32.377953 -32.377953l0 0c8.587166 0 16.822624 3.411239 22.894669 9.483283c6.0720444 6.0720434 9.483284 14.307504 9.483284 22.894672l0 0c0 17.881847 -14.496101 32.377953 -32.377953 32.377953l0 0c-17.881847 0 -32.377953 -14.496105 -32.377953 -32.377953z" fill-rule="evenodd"/><path stroke="#000000" stroke-width="1.0" stroke-linejoin="round" stroke-linecap="butt" d="m30.12205 33.475067l0 0c0 -17.881851 14.496103 -32.377953 32.377953 -32.377953l0 0c8.587166 0 16.822624 3.411239 22.894669 9.483283c6.0720444 6.0720434 9.483284 14.307504 9.483284 22.894672l0 0c0 17.881847 -14.496101 32.377953 -32.377953 32.377953l0 0c-17.881847 0 -32.377953 -14.496105 -32.377953 -32.377953z" fill-rule="evenodd"/><path fill="#000000" d="m60.560547 30.203186q0.953125 1.015625 1.4375 2.03125q0.359375 0.703125 1.15625 3.6875l1.71875 -2.578125q0.6875 -0.9375 1.65625 -1.78125q0.984375 -0.859375 1.71875 -1.171875q0.46875 -0.1875 1.046875 -0.1875q0.828125 0 1.328125 0.453125q0.5 0.4375 0.5 1.078125q0 0.75 -0.296875 1.015625q-0.546875 0.5 -1.25 0.5q-0.40625 0 -0.875 -0.1875q-0.921875 -0.3125 -1.234375 -0.3125q-0.46875 0 -1.109375 0.546875q-1.203125 1.015625 -2.890625 3.9375l1.609375 6.71875q0.359375 1.53125 0.609375 1.84375q0.265625 0.296875 0.515625 0.296875q0.40625 0 0.953125 -0.453125q1.078125 -0.890625 1.84375 -2.34375l0.6875 0.359375q-1.234375 2.296875 -3.125 3.828125q-1.078125 0.859375 -1.828125 0.859375q-1.09375 0 -1.734375 -1.234375q-0.40625 -0.765625 -1.703125 -6.5625q-3.046875 5.296875 -4.875 6.8125q-1.1875 0.984375 -2.3125 0.984375q-0.78125 0 -1.421875 -0.5625q-0.46875 -0.4375 -0.46875 -1.15625q0 -0.640625 0.4375 -1.0625q0.421875 -0.4375 1.046875 -0.4375q0.625 0 1.328125 0.625q0.515625 0.4375 0.78125 0.4375q0.234375 0 0.609375 -0.3125q0.921875 -0.734375 2.5 -3.1875q1.578125 -2.46875 2.0625 -3.5625q-1.203125 -4.75 -1.296875 -5.015625q-0.453125 -1.28125 -1.1875 -1.796875q-0.71875 -0.53125 -2.125 -0.53125q-0.4375 0 -1.03125 0.03125l0 -0.703125l5.21875 -0.90625z" fill-rule="nonzero"/><path fill="#000000" fill-opacity="0.0" d="m30.12205 153.07086l0 0c0 -17.881851 14.496103 -32.377945 32.377953 -32.377945l0 0c8.587166 0 16.822624 3.411232 22.894669 9.483276c6.0720444 6.072052 9.483284 14.30751 9.483284 22.894669l0 0c0 17.881851 -14.496101 32.37796 -32.377953 32.37796l0 0c-17.881847 0 -32.377953 -14.496109 -32.377953 -32.37796z" fill-rule="evenodd"/><path stroke="#000000" stroke-width="1.0" stroke-linejoin="round" stroke-linecap="butt" d="m30.12205 153.07086l0 0c0 -17.881851 14.496103 -32.377945 32.377953 -32.377945l0 0c8.587166 0 16.822624 3.411232 22.894669 9.483276c6.0720444 6.072052 9.483284 14.30751 9.483284 22.894669l0 0c0 17.881851 -14.496101 32.37796 -32.377953 32.37796l0 0c-17.881847 0 -32.377953 -14.496109 -32.377953 -32.37796z" fill-rule="evenodd"/><path fill="#000000" d="m58.07617 150.26773l12.40625 0l0 0.484375l-13.515625 14.0625l5.71875 0q2.03125 0 2.578125 -0.15625q0.546875 -0.15625 1.0 -0.65625q0.46875 -0.515625 1.03125 -1.84375l0.71875 0l-1.6875 5.3125l-12.71875 0l0 -0.5625l13.515625 -14.0625l-5.625 0q-1.78125 0 -2.15625 0.09375q-0.546875 0.109375 -1.078125 0.609375q-0.53125 0.5 -1.109375 1.65625l-0.734375 0l1.65625 -4.9375z" fill-rule="nonzero"/><path fill="#000000" fill-opacity="0.0" d="m62.5 120.69292l0 -54.83465" fill-rule="evenodd"/><path stroke="#000000" stroke-width="1.0" stroke-linejoin="round" stroke-linecap="butt" d="m62.5 120.69292l0 -48.83465" fill-rule="evenodd"/><path fill="#000000" stroke="#000000" stroke-width="1.0" stroke-linecap="butt" d="m64.15173 71.85827l-1.6517334 -4.538101l-1.6517334 4.538101z" fill-rule="evenodd"/><path fill="#000000" fill-opacity="0.0" d="m30.12205 33.475067c-12.5 0 -25.007874 29.897636 -25.0 59.795273c0.007874012 29.897636 12.531496 59.795273 25.062992 59.795273" fill-rule="evenodd"/><path stroke="#000000" stroke-width="1.0" stroke-linejoin="round" stroke-linecap="butt" stroke-dasharray="4.0,3.0" d="m30.12205 33.475067c-12.5 0 -25.007874 29.897636 -25.0 59.795273c0.0039367676 14.948822 3.1368113 29.897636 7.8351374 41.109253c2.349163 5.6058044 5.08969 10.277313 8.026145 13.547363c0.7341137 0.81752014 1.4804707 1.5474396 2.236023 2.1824646c0.3777771 0.3175354 0.75784874 0.61131287 1.1398392 0.8804779l0.15756416 0.1083374" fill-rule="evenodd"/><path fill="#000000" stroke="#000000" stroke-width="1.0" stroke-linecap="butt" d="m23.975163 152.65866l4.8288 -0.072402954l-3.7456074 -3.0484314z" fill-rule="evenodd"/></g></svg>