<?xml version="1.0" encoding="utf-8" standalone="no"?>
<!DOCTYPE svg PUBLIC "-//W3C//DTD SVG 1.1//EN"
  "http://www.w3.org/Graphics/SVG/1.1/DTD/svg11.dtd">
<!-- Created with matplotlib (https://matplotlib.org/) -->
<svg height="288pt" version="1.1" viewBox="0 0 432 288" width="432pt" xmlns="http://www.w3.org/2000/svg" xmlns:xlink="http://www.w3.org/1999/xlink">
 <defs>
  <style type="text/css">
*{stroke-linecap:butt;stroke-linejoin:round;}
  </style>
 </defs>
 <g id="figure_1">
  <g id="patch_1">
   <path d="M 0 288 
L 432 288 
L 432 0 
L 0 0 
z
" style="fill:#ffffff;"/>
  </g>
  <g id="axes_1">
   <g id="patch_2">
    <path d="M 54 252 
L 388.8 252 
L 388.8 34.56 
L 54 34.56 
z
" style="fill:#ffffff;"/>
   </g>
   <g id="patch_3">
    <path clip-path="url(#p2d7e3cc7a8)" d="M 221.4 252 
Q 221.4 149.32 221.4 47.758034 
" style="fill:none;stroke:#ff0000;stroke-linecap:round;"/>
    <path clip-path="url(#p2d7e3cc7a8)" d="M 217.4 55.758034 
L 221.4 47.758034 
L 225.4 55.758034 
L 217.4 55.758034 
z
" style="fill:#ff0000;stroke:#ff0000;stroke-linecap:round;"/>
   </g>
   <g id="matplotlib.axis_1">
    <g id="xtick_1">
     <g id="line2d_1">
      <defs>
       <path d="M 0 0 
L 0 3.5 
" id="m410beadb10" style="stroke:#000000;stroke-width:0.8;"/>
      </defs>
      <g>
       <use style="stroke:#000000;stroke-width:0.8;" x="99.654545" xlink:href="#m410beadb10" y="252"/>
      </g>
     </g>
     <g id="text_1">
      <!-- −4 -->
      <defs>
       <path d="M 10.59375 35.5 
L 73.1875 35.5 
L 73.1875 27.203125 
L 10.59375 27.203125 
z
" id="DejaVuSans-8722"/>
       <path d="M 37.796875 64.3125 
L 12.890625 25.390625 
L 37.796875 25.390625 
z
M 35.203125 72.90625 
L 47.609375 72.90625 
L 47.609375 25.390625 
L 58.015625 25.390625 
L 58.015625 17.1875 
L 47.609375 17.1875 
L 47.609375 0 
L 37.796875 0 
L 37.796875 17.1875 
L 4.890625 17.1875 
L 4.890625 26.703125 
z
" id="DejaVuSans-52"/>
      </defs>
      <g transform="translate(90.072124 268.877969)scale(0.13 -0.13)">
       <use xlink:href="#DejaVuSans-8722"/>
       <use x="83.789062" xlink:href="#DejaVuSans-52"/>
      </g>
     </g>
    </g>
    <g id="xtick_2">
     <g id="line2d_2">
      <g>
       <use style="stroke:#000000;stroke-width:0.8;" x="160.527273" xlink:href="#m410beadb10" y="252"/>
      </g>
     </g>
     <g id="text_2">
      <!-- −2 -->
      <defs>
       <path d="M 19.1875 8.296875 
L 53.609375 8.296875 
L 53.609375 0 
L 7.328125 0 
L 7.328125 8.296875 
Q 12.9375 14.109375 22.625 23.890625 
Q 32.328125 33.6875 34.8125 36.53125 
Q 39.546875 41.84375 41.421875 45.53125 
Q 43.3125 49.21875 43.3125 52.78125 
Q 43.3125 58.59375 39.234375 62.25 
Q 35.15625 65.921875 28.609375 65.921875 
Q 23.96875 65.921875 18.8125 64.3125 
Q 13.671875 62.703125 7.8125 59.421875 
L 7.8125 69.390625 
Q 13.765625 71.78125 18.9375 73 
Q 24.125 74.21875 28.421875 74.21875 
Q 39.75 74.21875 46.484375 68.546875 
Q 53.21875 62.890625 53.21875 53.421875 
Q 53.21875 48.921875 51.53125 44.890625 
Q 49.859375 40.875 45.40625 35.40625 
Q 44.1875 33.984375 37.640625 27.21875 
Q 31.109375 20.453125 19.1875 8.296875 
z
" id="DejaVuSans-50"/>
      </defs>
      <g transform="translate(150.944851 268.877969)scale(0.13 -0.13)">
       <use xlink:href="#DejaVuSans-8722"/>
       <use x="83.789062" xlink:href="#DejaVuSans-50"/>
      </g>
     </g>
    </g>
    <g id="xtick_3">
     <g id="line2d_3">
      <g>
       <use style="stroke:#000000;stroke-width:0.8;" x="221.4" xlink:href="#m410beadb10" y="252"/>
      </g>
     </g>
     <g id="text_3">
      <!-- 0 -->
      <defs>
       <path d="M 31.78125 66.40625 
Q 24.171875 66.40625 20.328125 58.90625 
Q 16.5 51.421875 16.5 36.375 
Q 16.5 21.390625 20.328125 13.890625 
Q 24.171875 6.390625 31.78125 6.390625 
Q 39.453125 6.390625 43.28125 13.890625 
Q 47.125 21.390625 47.125 36.375 
Q 47.125 51.421875 43.28125 58.90625 
Q 39.453125 66.40625 31.78125 66.40625 
z
M 31.78125 74.21875 
Q 44.046875 74.21875 50.515625 64.515625 
Q 56.984375 54.828125 56.984375 36.375 
Q 56.984375 17.96875 50.515625 8.265625 
Q 44.046875 -1.421875 31.78125 -1.421875 
Q 19.53125 -1.421875 13.0625 8.265625 
Q 6.59375 17.96875 6.59375 36.375 
Q 6.59375 54.828125 13.0625 64.515625 
Q 19.53125 74.21875 31.78125 74.21875 
z
" id="DejaVuSans-48"/>
      </defs>
      <g transform="translate(217.264375 268.877969)scale(0.13 -0.13)">
       <use xlink:href="#DejaVuSans-48"/>
      </g>
     </g>
    </g>
    <g id="xtick_4">
     <g id="line2d_4">
      <g>
       <use style="stroke:#000000;stroke-width:0.8;" x="282.272727" xlink:href="#m410beadb10" y="252"/>
      </g>
     </g>
     <g id="text_4">
      <!-- 2 -->
      <g transform="translate(278.137102 268.877969)scale(0.13 -0.13)">
       <use xlink:href="#DejaVuSans-50"/>
      </g>
     </g>
    </g>
    <g id="xtick_5">
     <g id="line2d_5">
      <g>
       <use style="stroke:#000000;stroke-width:0.8;" x="343.145455" xlink:href="#m410beadb10" y="252"/>
      </g>
     </g>
     <g id="text_5">
      <!-- 4 -->
      <g transform="translate(339.00983 268.877969)scale(0.13 -0.13)">
       <use xlink:href="#DejaVuSans-52"/>
      </g>
     </g>
    </g>
    <g id="text_6">
     <!-- $z$ -->
     <defs>
      <path d="M 11.625 54.6875 
L 54.296875 54.6875 
L 52.6875 46.484375 
L 11.53125 7.171875 
L 45.515625 7.171875 
L 44.09375 0 
L -0.296875 0 
L 1.3125 8.203125 
L 42.484375 47.515625 
L 10.203125 47.515625 
z
" id="DejaVuSans-Oblique-122"/>
     </defs>
     <g transform="translate(217.955 285.459531)scale(0.13 -0.13)">
      <use transform="translate(0 0.3125)" xlink:href="#DejaVuSans-Oblique-122"/>
     </g>
    </g>
   </g>
   <g id="matplotlib.axis_2">
    <g id="ytick_1">
     <g id="line2d_6">
      <defs>
       <path d="M 0 0 
L -3.5 0 
" id="m35e5101303" style="stroke:#000000;stroke-width:0.8;"/>
      </defs>
      <g>
       <use style="stroke:#000000;stroke-width:0.8;" x="54" xlink:href="#m35e5101303" y="252"/>
      </g>
     </g>
     <g id="text_7">
      <!-- 0.0 -->
      <defs>
       <path d="M 10.6875 12.40625 
L 21 12.40625 
L 21 0 
L 10.6875 0 
z
" id="DejaVuSans-46"/>
      </defs>
      <g transform="translate(26.325937 256.938984)scale(0.13 -0.13)">
       <use xlink:href="#DejaVuSans-48"/>
       <use x="63.623047" xlink:href="#DejaVuSans-46"/>
       <use x="95.410156" xlink:href="#DejaVuSans-48"/>
      </g>
     </g>
    </g>
    <g id="ytick_2">
     <g id="line2d_7">
      <g>
       <use style="stroke:#000000;stroke-width:0.8;" x="54" xlink:href="#m35e5101303" y="203.68"/>
      </g>
     </g>
     <g id="text_8">
      <!-- 0.2 -->
      <g transform="translate(26.325937 208.618984)scale(0.13 -0.13)">
       <use xlink:href="#DejaVuSans-48"/>
       <use x="63.623047" xlink:href="#DejaVuSans-46"/>
       <use x="95.410156" xlink:href="#DejaVuSans-50"/>
      </g>
     </g>
    </g>
    <g id="ytick_3">
     <g id="line2d_8">
      <g>
       <use style="stroke:#000000;stroke-width:0.8;" x="54" xlink:href="#m35e5101303" y="155.36"/>
      </g>
     </g>
     <g id="text_9">
      <!-- 0.4 -->
      <g transform="translate(26.325937 160.298984)scale(0.13 -0.13)">
       <use xlink:href="#DejaVuSans-48"/>
       <use x="63.623047" xlink:href="#DejaVuSans-46"/>
       <use x="95.410156" xlink:href="#DejaVuSans-52"/>
      </g>
     </g>
    </g>
    <g id="ytick_4">
     <g id="line2d_9">
      <g>
       <use style="stroke:#000000;stroke-width:0.8;" x="54" xlink:href="#m35e5101303" y="107.04"/>
      </g>
     </g>
     <g id="text_10">
      <!-- 0.6 -->
      <defs>
       <path d="M 33.015625 40.375 
Q 26.375 40.375 22.484375 35.828125 
Q 18.609375 31.296875 18.609375 23.390625 
Q 18.609375 15.53125 22.484375 10.953125 
Q 26.375 6.390625 33.015625 6.390625 
Q 39.65625 6.390625 43.53125 10.953125 
Q 47.40625 15.53125 47.40625 23.390625 
Q 47.40625 31.296875 43.53125 35.828125 
Q 39.65625 40.375 33.015625 40.375 
z
M 52.59375 71.296875 
L 52.59375 62.3125 
Q 48.875 64.0625 45.09375 64.984375 
Q 41.3125 65.921875 37.59375 65.921875 
Q 27.828125 65.921875 22.671875 59.328125 
Q 17.53125 52.734375 16.796875 39.40625 
Q 19.671875 43.65625 24.015625 45.921875 
Q 28.375 48.1875 33.59375 48.1875 
Q 44.578125 48.1875 50.953125 41.515625 
Q 57.328125 34.859375 57.328125 23.390625 
Q 57.328125 12.15625 50.6875 5.359375 
Q 44.046875 -1.421875 33.015625 -1.421875 
Q 20.359375 -1.421875 13.671875 8.265625 
Q 6.984375 17.96875 6.984375 36.375 
Q 6.984375 53.65625 15.1875 63.9375 
Q 23.390625 74.21875 37.203125 74.21875 
Q 40.921875 74.21875 44.703125 73.484375 
Q 48.484375 72.75 52.59375 71.296875 
z
" id="DejaVuSans-54"/>
      </defs>
      <g transform="translate(26.325937 111.978984)scale(0.13 -0.13)">
       <use xlink:href="#DejaVuSans-48"/>
       <use x="63.623047" xlink:href="#DejaVuSans-46"/>
       <use x="95.410156" xlink:href="#DejaVuSans-54"/>
      </g>
     </g>
    </g>
    <g id="ytick_5">
     <g id="line2d_10">
      <g>
       <use style="stroke:#000000;stroke-width:0.8;" x="54" xlink:href="#m35e5101303" y="58.72"/>
      </g>
     </g>
     <g id="text_11">
      <!-- 0.8 -->
      <defs>
       <path d="M 31.78125 34.625 
Q 24.75 34.625 20.71875 30.859375 
Q 16.703125 27.09375 16.703125 20.515625 
Q 16.703125 13.921875 20.71875 10.15625 
Q 24.75 6.390625 31.78125 6.390625 
Q 38.8125 6.390625 42.859375 10.171875 
Q 46.921875 13.96875 46.921875 20.515625 
Q 46.921875 27.09375 42.890625 30.859375 
Q 38.875 34.625 31.78125 34.625 
z
M 21.921875 38.8125 
Q 15.578125 40.375 12.03125 44.71875 
Q 8.5 49.078125 8.5 55.328125 
Q 8.5 64.0625 14.71875 69.140625 
Q 20.953125 74.21875 31.78125 74.21875 
Q 42.671875 74.21875 48.875 69.140625 
Q 55.078125 64.0625 55.078125 55.328125 
Q 55.078125 49.078125 51.53125 44.71875 
Q 48 40.375 41.703125 38.8125 
Q 48.828125 37.15625 52.796875 32.3125 
Q 56.78125 27.484375 56.78125 20.515625 
Q 56.78125 9.90625 50.3125 4.234375 
Q 43.84375 -1.421875 31.78125 -1.421875 
Q 19.734375 -1.421875 13.25 4.234375 
Q 6.78125 9.90625 6.78125 20.515625 
Q 6.78125 27.484375 10.78125 32.3125 
Q 14.796875 37.15625 21.921875 38.8125 
z
M 18.3125 54.390625 
Q 18.3125 48.734375 21.84375 45.5625 
Q 25.390625 42.390625 31.78125 42.390625 
Q 38.140625 42.390625 41.71875 45.5625 
Q 45.3125 48.734375 45.3125 54.390625 
Q 45.3125 60.0625 41.71875 63.234375 
Q 38.140625 66.40625 31.78125 66.40625 
Q 25.390625 66.40625 21.84375 63.234375 
Q 18.3125 60.0625 18.3125 54.390625 
z
" id="DejaVuSans-56"/>
      </defs>
      <g transform="translate(26.325937 63.658984)scale(0.13 -0.13)">
       <use xlink:href="#DejaVuSans-48"/>
       <use x="63.623047" xlink:href="#DejaVuSans-46"/>
       <use x="95.410156" xlink:href="#DejaVuSans-56"/>
      </g>
     </g>
    </g>
    <g id="text_12">
     <!-- $q(z \vert x)$ -->
     <defs>
      <path d="M 41.703125 8.203125 
Q 38.09375 3.46875 33.171875 1.015625 
Q 28.265625 -1.421875 22.3125 -1.421875 
Q 14.015625 -1.421875 9.296875 4.171875 
Q 4.59375 9.765625 4.59375 19.578125 
Q 4.59375 27.484375 7.5 34.859375 
Q 10.40625 42.234375 15.828125 48.09375 
Q 19.34375 51.90625 23.90625 53.953125 
Q 28.46875 56 33.5 56 
Q 39.546875 56 43.453125 53.609375 
Q 47.359375 51.21875 49.125 46.390625 
L 50.6875 54.59375 
L 59.71875 54.59375 
L 45.125 -20.609375 
L 36.078125 -20.609375 
z
M 13.921875 20.90625 
Q 13.921875 13.671875 16.9375 9.890625 
Q 19.96875 6.109375 25.6875 6.109375 
Q 34.1875 6.109375 40.1875 14.234375 
Q 46.1875 22.359375 46.1875 33.984375 
Q 46.1875 41.015625 43.078125 44.75 
Q 39.984375 48.484375 34.1875 48.484375 
Q 29.9375 48.484375 26.3125 46.5 
Q 22.703125 44.53125 20.015625 40.71875 
Q 17.1875 36.71875 15.546875 31.34375 
Q 13.921875 25.984375 13.921875 20.90625 
z
" id="DejaVuSans-Oblique-113"/>
      <path d="M 31 75.875 
Q 24.46875 64.65625 21.28125 53.65625 
Q 18.109375 42.671875 18.109375 31.390625 
Q 18.109375 20.125 21.3125 9.0625 
Q 24.515625 -2 31 -13.1875 
L 23.1875 -13.1875 
Q 15.875 -1.703125 12.234375 9.375 
Q 8.59375 20.453125 8.59375 31.390625 
Q 8.59375 42.28125 12.203125 53.3125 
Q 15.828125 64.359375 23.1875 75.875 
z
" id="DejaVuSans-40"/>
      <path d="M 21 76.421875 
L 21 -23.578125 
L 12.703125 -23.578125 
L 12.703125 76.421875 
z
" id="DejaVuSans-124"/>
      <path d="M 60.015625 54.6875 
L 34.90625 27.875 
L 50.296875 0 
L 39.984375 0 
L 28.421875 21.6875 
L 8.296875 0 
L -2.59375 0 
L 24.3125 28.8125 
L 10.015625 54.6875 
L 20.3125 54.6875 
L 30.8125 34.90625 
L 49.125 54.6875 
z
" id="DejaVuSans-Oblique-120"/>
      <path d="M 8.015625 75.875 
L 15.828125 75.875 
Q 23.140625 64.359375 26.78125 53.3125 
Q 30.421875 42.28125 30.421875 31.390625 
Q 30.421875 20.453125 26.78125 9.375 
Q 23.140625 -1.703125 15.828125 -13.1875 
L 8.015625 -13.1875 
Q 14.5 -2 17.703125 9.0625 
Q 20.90625 20.125 20.90625 31.390625 
Q 20.90625 42.671875 17.703125 53.65625 
Q 14.5 64.65625 8.015625 75.875 
z
" id="DejaVuSans-41"/>
     </defs>
     <g transform="translate(19.205937 161.935)rotate(-90)scale(0.13 -0.13)">
      <use transform="translate(0 0.578125)" xlink:href="#DejaVuSans-Oblique-113"/>
      <use transform="translate(63.476562 0.578125)" xlink:href="#DejaVuSans-40"/>
      <use transform="translate(102.490234 0.578125)" xlink:href="#DejaVuSans-Oblique-122"/>
      <use transform="translate(154.980469 0.578125)" xlink:href="#DejaVuSans-124"/>
      <use transform="translate(188.671875 0.578125)" xlink:href="#DejaVuSans-Oblique-120"/>
      <use transform="translate(247.851562 0.578125)" xlink:href="#DejaVuSans-41"/>
     </g>
    </g>
   </g>
   <g id="line2d_11">
    <path clip-path="url(#p2d7e3cc7a8)" d="M 221.4 252 
L 221.4 49.056 
" style="fill:none;stroke:#ff0000;stroke-linecap:square;stroke-width:1.5;"/>
   </g>
   <g id="line2d_12">
    <path clip-path="url(#p2d7e3cc7a8)" d="M 69.218182 252 
L 162.606284 251.88935 
L 167.415711 251.643125 
L 170.581409 251.269542 
L 173.047001 250.761603 
L 175.086441 250.121185 
L 176.882366 249.328009 
L 178.495655 248.376948 
L 180.017625 247.220805 
L 181.448278 245.855911 
L 182.84849 244.210272 
L 184.218264 242.254841 
L 185.588037 239.906914 
L 186.95781 237.114383 
L 188.358023 233.745708 
L 189.788675 229.710936 
L 191.249767 224.916651 
L 192.771737 219.146518 
L 194.354586 212.261846 
L 196.028754 203.972696 
L 197.824679 193.935664 
L 199.80324 181.577682 
L 202.086196 165.84478 
L 205.099697 143.379855 
L 210.639669 101.867593 
L 212.67911 88.421209 
L 214.322838 78.988514 
L 215.72305 72.18767 
L 216.940627 67.332109 
L 217.975567 64.050267 
L 218.888749 61.837895 
L 219.680173 60.458147 
L 220.34984 59.689522 
L 220.958629 59.312149 
L 221.476099 59.2335 
L 221.993568 59.377664 
L 222.541478 59.772599 
L 223.150266 60.501823 
L 223.850372 61.713844 
L 224.641797 63.555586 
L 225.554979 66.283715 
L 226.589919 70.1213 
L 227.777056 75.434122 
L 229.146829 82.657092 
L 230.729678 92.2564 
L 232.677801 105.518858 
L 235.386908 125.64099 
L 241.44435 171.030371 
L 243.788184 186.676281 
L 245.827625 198.844479 
L 247.684428 208.623001 
L 249.419475 216.60705 
L 251.063203 223.158605 
L 252.646052 228.578227 
L 254.168022 233.021173 
L 255.659553 236.705629 
L 257.120645 239.735159 
L 258.551297 242.207119 
L 259.981949 244.249659 
L 261.443041 245.95205 
L 262.934572 247.349258 
L 264.486981 248.497735 
L 266.130709 249.435489 
L 267.926634 250.199737 
L 269.935635 250.808022 
L 272.27947 251.279241 
L 275.171213 251.624989 
L 279.067458 251.85313 
L 285.368415 251.971925 
L 303.358105 251.999903 
L 373.581818 252 
L 373.581818 252 
" style="fill:none;stroke:#1f77b4;stroke-linecap:square;stroke-width:1.5;"/>
   </g>
   <g id="line2d_13">
    <path clip-path="url(#p2d7e3cc7a8)" d="M 69.218182 251.999641 
L 109.641715 251.88616 
L 119.717159 251.636596 
L 126.474707 251.255579 
L 131.740725 250.742039 
L 136.124 250.097138 
L 139.959365 249.312856 
L 143.399018 248.387193 
L 146.564716 247.309077 
L 149.547778 246.059416 
L 152.378643 244.632691 
L 155.11819 243.000963 
L 157.766418 241.164663 
L 160.384208 239.077979 
L 163.001997 236.703016 
L 165.619786 234.025017 
L 168.298453 230.960525 
L 171.038 227.482527 
L 173.899304 223.482405 
L 176.912806 218.879906 
L 180.200262 213.441345 
L 183.944309 206.798586 
L 188.753735 197.777185 
L 198.616103 179.167464 
L 201.994878 173.342643 
L 204.795303 168.942757 
L 207.230456 165.514382 
L 209.422093 162.797566 
L 211.431094 160.649288 
L 213.287898 158.978867 
L 215.022944 157.708088 
L 216.666672 156.774059 
L 218.219082 156.140487 
L 219.741052 155.75861 
L 221.202144 155.617582 
L 222.663235 155.698525 
L 224.124327 156.000882 
L 225.615858 156.535745 
L 227.168268 157.331036 
L 228.781556 158.408841 
L 230.516603 159.84372 
L 232.342967 161.648115 
L 234.321529 163.921648 
L 236.482726 166.752375 
L 238.88744 170.280978 
L 241.626986 174.713396 
L 244.884003 180.429765 
L 249.236838 188.559265 
L 260.286343 209.386181 
L 264.06083 215.908862 
L 267.378725 221.206254 
L 270.422666 225.656267 
L 273.31441 229.496094 
L 276.084396 232.811406 
L 278.793503 235.711909 
L 281.472171 238.255974 
L 284.120399 240.468411 
L 286.799067 242.41828 
L 289.508174 244.117532 
L 292.3086 245.611388 
L 295.200344 246.902976 
L 298.274724 248.030533 
L 301.56218 248.995864 
L 305.123591 249.807674 
L 309.111153 250.484124 
L 313.677064 251.027194 
L 319.125718 251.443641 
L 326.065903 251.739324 
L 335.95871 251.91914 
L 354.49631 251.993214 
L 373.581818 251.999641 
L 373.581818 251.999641 
" style="fill:none;stroke:#ff7f0e;stroke-linecap:square;stroke-width:1.5;"/>
   </g>
   <g id="line2d_14">
    <path clip-path="url(#p2d7e3cc7a8)" d="M 69.218182 249.882581 
L 77.558579 249.045452 
L 85.168431 248.06097 
L 92.260813 246.922104 
L 99.018362 245.613151 
L 105.532395 244.125299 
L 111.894231 242.444438 
L 118.195189 240.55018 
L 124.557025 238.405003 
L 131.101497 235.961975 
L 138.041682 233.129734 
L 145.712413 229.752984 
L 155.300826 225.273561 
L 176.608412 215.237453 
L 183.426839 212.328747 
L 189.240766 210.084914 
L 194.476344 208.298359 
L 199.346649 206.868877 
L 203.943 205.749293 
L 208.356714 204.901478 
L 212.64867 204.303231 
L 216.849309 203.94225 
L 220.989068 203.808871 
L 225.128827 203.898104 
L 229.299026 204.21181 
L 233.530104 204.755157 
L 237.8525 205.536228 
L 242.327093 206.573124 
L 247.014761 207.890959 
L 251.976385 209.519507 
L 257.36416 211.525584 
L 263.421602 214.025018 
L 270.635742 217.252972 
L 281.106898 222.210194 
L 296.874511 229.656086 
L 305.001833 233.232975 
L 312.124654 236.128055 
L 318.760445 238.588109 
L 325.18316 240.733645 
L 331.514557 242.615285 
L 337.876393 244.274173 
L 344.359987 245.734272 
L 351.056657 247.01304 
L 358.05772 248.122299 
L 365.515375 249.076735 
L 373.581818 249.882581 
L 373.581818 249.882581 
" style="fill:none;stroke:#2ca02c;stroke-linecap:square;stroke-width:1.5;"/>
   </g>
   <g id="patch_4">
    <path d="M 54 252 
L 54 34.56 
" style="fill:none;stroke:#000000;stroke-linecap:square;stroke-linejoin:miter;stroke-width:0.8;"/>
   </g>
   <g id="patch_5">
    <path d="M 388.8 252 
L 388.8 34.56 
" style="fill:none;stroke:#000000;stroke-linecap:square;stroke-linejoin:miter;stroke-width:0.8;"/>
   </g>
   <g id="patch_6">
    <path d="M 54 252 
L 388.8 252 
" style="fill:none;stroke:#000000;stroke-linecap:square;stroke-linejoin:miter;stroke-width:0.8;"/>
   </g>
   <g id="patch_7">
    <path d="M 54 34.56 
L 388.8 34.56 
" style="fill:none;stroke:#000000;stroke-linecap:square;stroke-linejoin:miter;stroke-width:0.8;"/>
   </g>
   <g id="legend_1">
    <g id="patch_8">
     <path d="M 267.12 121.28625 
L 379.7 121.28625 
Q 382.3 121.28625 382.3 118.68625 
L 382.3 43.66 
Q 382.3 41.06 379.7 41.06 
L 267.12 41.06 
Q 264.52 41.06 264.52 43.66 
L 264.52 118.68625 
Q 264.52 121.28625 267.12 121.28625 
z
" style="fill:#ffffff;opacity:0.8;stroke:#cccccc;stroke-linejoin:miter;"/>
    </g>
    <g id="line2d_15">
     <path d="M 269.72 51.587969 
L 295.72 51.587969 
" style="fill:none;stroke:#ff0000;stroke-linecap:square;stroke-width:1.5;"/>
    </g>
    <g id="line2d_16"/>
    <g id="text_13">
     <!-- $\mathbb{H} = - \infty$ -->
     <defs>
      <path d="M 76.703125 65.296875 
L 59.203125 0 
L 43.796875 0 
L 52.09375 30.90625 
L 25.5 30.90625 
L 17.09375 0 
L 1.703125 0 
L 19.203125 65.296875 
L 34.59375 65.296875 
L 26.5 34.59375 
L 53.09375 34.59375 
L 61.296875 65.296875 
z
M 71.90625 61.59375 
L 64.09375 61.59375 
L 48.59375 3.703125 
L 56.40625 3.703125 
z
M 29.796875 61.59375 
L 22 61.59375 
L 6.5 3.703125 
L 14.296875 3.703125 
z
" id="STIXGeneral-Italic-8461"/>
      <path d="M 10.59375 45.40625 
L 73.1875 45.40625 
L 73.1875 37.203125 
L 10.59375 37.203125 
z
M 10.59375 25.484375 
L 73.1875 25.484375 
L 73.1875 17.1875 
L 10.59375 17.1875 
z
" id="DejaVuSans-61"/>
      <path d="M 45.5625 17.046875 
Q 44.046875 18.796875 41.65625 22.90625 
Q 38.375 17.046875 35.5 14.453125 
Q 31.890625 11.328125 26.265625 11.328125 
Q 19.671875 11.328125 15.328125 16.265625 
Q 10.75 21.4375 10.75 29.984375 
Q 10.75 38.1875 15.328125 43.75 
Q 19.4375 48.6875 26.375 48.6875 
Q 29.9375 48.6875 32.5625 47.21875 
Q 35.640625 45.609375 37.75 42.828125 
Q 39.703125 40.328125 41.65625 36.96875 
Q 44.921875 42.828125 47.796875 45.40625 
Q 51.421875 48.53125 57.03125 48.53125 
Q 63.625 48.53125 67.96875 43.609375 
Q 72.5625 38.421875 72.5625 29.890625 
Q 72.5625 21.6875 67.96875 16.109375 
Q 63.875 11.1875 56.9375 11.1875 
Q 53.375 11.1875 50.734375 12.640625 
Q 48.09375 13.96875 45.5625 17.046875 
z
M 25.734375 17.71875 
Q 33.796875 17.71875 38.625 29.4375 
Q 32.421875 42.234375 25.734375 42.234375 
Q 20.84375 42.234375 18.359375 38.71875 
Q 15.671875 34.96875 15.671875 29.984375 
Q 15.671875 24.515625 18.359375 21.140625 
Q 21.09375 17.71875 25.734375 17.71875 
z
M 57.5625 42.140625 
Q 50.296875 42.140625 44.671875 30.421875 
Q 50.828125 17.625 57.5625 17.625 
Q 62.453125 17.625 64.9375 21.140625 
Q 67.625 24.90625 67.625 29.890625 
Q 67.625 35.359375 64.9375 38.71875 
Q 62.203125 42.140625 57.5625 42.140625 
z
" id="DejaVuSans-8734"/>
     </defs>
     <g transform="translate(306.12 56.137969)scale(0.13 -0.13)">
      <use transform="translate(0 0.703125)" xlink:href="#STIXGeneral-Italic-8461"/>
      <use transform="translate(92.682404 0.703125)" xlink:href="#DejaVuSans-61"/>
      <use transform="translate(215.43631 0.703125)" xlink:href="#DejaVuSans-8722"/>
      <use transform="translate(318.707794 0.703125)" xlink:href="#DejaVuSans-8734"/>
     </g>
    </g>
    <g id="line2d_17">
     <path d="M 269.72 70.669531 
L 295.72 70.669531 
" style="fill:none;stroke:#1f77b4;stroke-linecap:square;stroke-width:1.5;"/>
    </g>
    <g id="line2d_18"/>
    <g id="text_14">
     <!-- $\mathbb{H} = 0.7258$ -->
     <defs>
      <path d="M 8.203125 72.90625 
L 55.078125 72.90625 
L 55.078125 68.703125 
L 28.609375 0 
L 18.3125 0 
L 43.21875 64.59375 
L 8.203125 64.59375 
z
" id="DejaVuSans-55"/>
      <path d="M 10.796875 72.90625 
L 49.515625 72.90625 
L 49.515625 64.59375 
L 19.828125 64.59375 
L 19.828125 46.734375 
Q 21.96875 47.46875 24.109375 47.828125 
Q 26.265625 48.1875 28.421875 48.1875 
Q 40.625 48.1875 47.75 41.5 
Q 54.890625 34.8125 54.890625 23.390625 
Q 54.890625 11.625 47.5625 5.09375 
Q 40.234375 -1.421875 26.90625 -1.421875 
Q 22.3125 -1.421875 17.546875 -0.640625 
Q 12.796875 0.140625 7.71875 1.703125 
L 7.71875 11.625 
Q 12.109375 9.234375 16.796875 8.0625 
Q 21.484375 6.890625 26.703125 6.890625 
Q 35.15625 6.890625 40.078125 11.328125 
Q 45.015625 15.765625 45.015625 23.390625 
Q 45.015625 31 40.078125 35.4375 
Q 35.15625 39.890625 26.703125 39.890625 
Q 22.75 39.890625 18.8125 39.015625 
Q 14.890625 38.140625 10.796875 36.28125 
z
" id="DejaVuSans-53"/>
     </defs>
     <g transform="translate(306.12 75.219531)scale(0.13 -0.13)">
      <use transform="translate(0 0.78125)" xlink:href="#STIXGeneral-Italic-8461"/>
      <use transform="translate(92.682404 0.78125)" xlink:href="#DejaVuSans-61"/>
      <use transform="translate(195.953888 0.78125)" xlink:href="#DejaVuSans-48"/>
      <use transform="translate(259.576935 0.78125)" xlink:href="#DejaVuSans-46"/>
      <use transform="translate(283.614044 0.78125)" xlink:href="#DejaVuSans-55"/>
      <use transform="translate(347.237091 0.78125)" xlink:href="#DejaVuSans-50"/>
      <use transform="translate(410.860138 0.78125)" xlink:href="#DejaVuSans-53"/>
      <use transform="translate(474.483185 0.78125)" xlink:href="#DejaVuSans-56"/>
     </g>
    </g>
    <g id="line2d_19">
     <path d="M 269.72 89.751094 
L 295.72 89.751094 
" style="fill:none;stroke:#ff7f0e;stroke-linecap:square;stroke-width:1.5;"/>
    </g>
    <g id="line2d_20"/>
    <g id="text_15">
     <!-- $\mathbb{H} = 1.4189$ -->
     <defs>
      <path d="M 12.40625 8.296875 
L 28.515625 8.296875 
L 28.515625 63.921875 
L 10.984375 60.40625 
L 10.984375 69.390625 
L 28.421875 72.90625 
L 38.28125 72.90625 
L 38.28125 8.296875 
L 54.390625 8.296875 
L 54.390625 0 
L 12.40625 0 
z
" id="DejaVuSans-49"/>
      <path d="M 10.984375 1.515625 
L 10.984375 10.5 
Q 14.703125 8.734375 18.5 7.8125 
Q 22.3125 6.890625 25.984375 6.890625 
Q 35.75 6.890625 40.890625 13.453125 
Q 46.046875 20.015625 46.78125 33.40625 
Q 43.953125 29.203125 39.59375 26.953125 
Q 35.25 24.703125 29.984375 24.703125 
Q 19.046875 24.703125 12.671875 31.3125 
Q 6.296875 37.9375 6.296875 49.421875 
Q 6.296875 60.640625 12.9375 67.421875 
Q 19.578125 74.21875 30.609375 74.21875 
Q 43.265625 74.21875 49.921875 64.515625 
Q 56.59375 54.828125 56.59375 36.375 
Q 56.59375 19.140625 48.40625 8.859375 
Q 40.234375 -1.421875 26.421875 -1.421875 
Q 22.703125 -1.421875 18.890625 -0.6875 
Q 15.09375 0.046875 10.984375 1.515625 
z
M 30.609375 32.421875 
Q 37.25 32.421875 41.125 36.953125 
Q 45.015625 41.5 45.015625 49.421875 
Q 45.015625 57.28125 41.125 61.84375 
Q 37.25 66.40625 30.609375 66.40625 
Q 23.96875 66.40625 20.09375 61.84375 
Q 16.21875 57.28125 16.21875 49.421875 
Q 16.21875 41.5 20.09375 36.953125 
Q 23.96875 32.421875 30.609375 32.421875 
z
" id="DejaVuSans-57"/>
     </defs>
     <g transform="translate(306.12 94.301094)scale(0.13 -0.13)">
      <use transform="translate(0 0.78125)" xlink:href="#STIXGeneral-Italic-8461"/>
      <use transform="translate(92.682404 0.78125)" xlink:href="#DejaVuSans-61"/>
      <use transform="translate(195.953888 0.78125)" xlink:href="#DejaVuSans-49"/>
      <use transform="translate(259.576935 0.78125)" xlink:href="#DejaVuSans-46"/>
      <use transform="translate(291.364044 0.78125)" xlink:href="#DejaVuSans-52"/>
      <use transform="translate(354.987091 0.78125)" xlink:href="#DejaVuSans-49"/>
      <use transform="translate(418.610138 0.78125)" xlink:href="#DejaVuSans-56"/>
      <use transform="translate(482.233185 0.78125)" xlink:href="#DejaVuSans-57"/>
     </g>
    </g>
    <g id="line2d_21">
     <path d="M 269.72 108.832656 
L 295.72 108.832656 
" style="fill:none;stroke:#2ca02c;stroke-linecap:square;stroke-width:1.5;"/>
    </g>
    <g id="line2d_22"/>
    <g id="text_16">
     <!-- $\mathbb{H} = 2.1121$ -->
     <g transform="translate(306.12 113.382656)scale(0.13 -0.13)">
      <use transform="translate(0 0.78125)" xlink:href="#STIXGeneral-Italic-8461"/>
      <use transform="translate(92.682404 0.78125)" xlink:href="#DejaVuSans-61"/>
      <use transform="translate(195.953888 0.78125)" xlink:href="#DejaVuSans-50"/>
      <use transform="translate(259.576935 0.78125)" xlink:href="#DejaVuSans-46"/>
      <use transform="translate(291.364044 0.78125)" xlink:href="#DejaVuSans-49"/>
      <use transform="translate(354.987091 0.78125)" xlink:href="#DejaVuSans-49"/>
      <use transform="translate(418.610138 0.78125)" xlink:href="#DejaVuSans-50"/>
      <use transform="translate(482.233185 0.78125)" xlink:href="#DejaVuSans-49"/>
     </g>
    </g>
   </g>
  </g>
 </g>
 <defs>
  <clipPath id="p2d7e3cc7a8">
   <rect height="217.44" width="334.8" x="54" y="34.56"/>
  </clipPath>
 </defs>
</svg>
